<?xml version="1.0" encoding="utf-8"?>
<!-- Generator: Adobe Illustrator 16.0.0, SVG Export Plug-In . SVG Version: 6.00 Build 0)  -->
<!DOCTYPE svg PUBLIC "-//W3C//DTD SVG 1.1//EN" "http://www.w3.org/Graphics/SVG/1.1/DTD/svg11.dtd">
<svg version="1.1" id="图层_1" xmlns="http://www.w3.org/2000/svg" xmlns:xlink="http://www.w3.org/1999/xlink" x="0px" y="0px"
	 width="196.76px" height="86.39px" viewBox="0 0 196.76 86.39" style="enable-background:new 0 0 196.76 86.39;"
	 xml:space="preserve">
<g>
	<path style="fill:#231815;" d="M196.76,37.39c0.05-0.13-0.18-0.17-0.32-0.26c-0.05,0.02-0.18,0-0.17,0.07
		c0.02,0.12,0.12,0.34,0.35,0.38C196.75,37.58,196.73,37.46,196.76,37.39z"/>
	<path style="fill:#231815;" d="M196.68,36.5c-0.09-0.13-0.24-0.38-0.57-0.47c-0.32-0.19-0.69-0.08-0.59,0.14
		c0.2,0.21,0.21,0.45,0.64,0.56C196.36,36.68,196.75,36.77,196.68,36.5z"/>
	<path style="fill:#231815;" d="M188.43,44.84c-0.15,0.11-0.27,0.16-0.08,0.38c0.56,0.78,1.52,0.87,2.33,0.99
		c0.33-0.04-0.04-0.34-0.04-0.5C190,45.14,189.15,45.03,188.43,44.84z"/>
	<polygon style="fill:#231815;" points="193.8,37.99 193.47,37.94 193.51,38.01 	"/>
	<path style="fill:#231815;" d="M188.45,41.29c-0.42-0.28-0.98-0.53-1.4-0.41c-0.04,0.09-0.1,0.17-0.04,0.29
		c0.02,0.42,0.66,0.83,1.12,0.98C188.77,42.26,189.13,41.71,188.45,41.29z"/>
	<polygon style="fill:#231815;" points="181.94,58.87 182.14,58.96 182.15,58.92 	"/>
	<path style="fill:#231815;" d="M168.62,54.83l-0.2-0.08l-0.01,0.04c0.07,0.03,0.13,0.06,0.2,0.08L168.62,54.83z"/>
	<path style="fill:#231815;" d="M167.62,53.92l-0.02-0.01c0.01,0,0.01,0.01,0.02,0.02L167.62,53.92z"/>
	<path style="fill:#231815;" d="M123.2,13.39C122.96,13.35,123.06,13.38,123.2,13.39L123.2,13.39z"/>
	<path style="fill:#231815;" d="M173.44,44.35l-0.26-0.21C173.19,44.19,173.28,44.33,173.44,44.35z"/>
	<path style="fill:#231815;" d="M135.45,35.17l-0.01,0l0.22,0.08C135.61,35.22,135.51,35.14,135.45,35.17z"/>
	<polygon style="fill:#231815;" points="168.41,54.79 168.4,54.78 168.41,54.79 	"/>
	<path style="fill:#231815;" d="M168.64,53.9c-0.16-0.08-0.36-0.2-0.56-0.27l0.01,0.02L168.64,53.9z"/>
	<path style="fill:#231815;" d="M162.23,44.42c0.08,0.04,0.17,0.07,0.26,0.04L162.23,44.42z"/>
	<path style="fill:#231815;" d="M167.96,54.06l0.02-0.06l-0.34-0.13l-0.02,0.05C167.74,53.97,167.87,54.05,167.96,54.06z"/>
	<path style="fill:#231815;" d="M154.04,40.12l-0.22-0.09C153.89,40.08,153.95,40.12,154.04,40.12z"/>
	<polygon style="fill:#231815;" points="171.54,56.92 171.39,56.84 171.43,56.87 	"/>
	<path style="fill:#231815;" d="M177.05,63.86l-0.04,0.09c0.19,0.41,0.77,0.38,1.14,0.58C178,64.28,177.49,63.95,177.05,63.86z"/>
	<polygon style="fill:#231815;" points="173.72,68.95 173.71,68.99 173.95,69.09 173.96,69.06 	"/>
	<polygon style="fill:#231815;" points="185.6,37.73 185.3,37.67 185.52,37.76 	"/>
	
		<rect x="188.97" y="25.5" transform="matrix(-0.3539 0.9353 -0.9353 -0.3539 280.159 -141.6049)" style="fill:#231815;" width="0.04" height="0.93"/>
	<path style="fill:#231815;" d="M176.53,58.39c0.02,0.12,0.1,0.32,0.35,0.36c0.2,0.07,0.35,0,0.35-0.17l-0.48-0.36
		C176.62,58.23,176.57,58.3,176.53,58.39z"/>
	<polygon style="fill:#231815;" points="185.01,37.03 185.03,36.97 184.8,36.94 	"/>
	<polygon style="fill:#231815;" points="180.26,43.69 181.77,44.38 181.82,44.35 180.27,43.65 	"/>
	<path style="fill:#231815;" d="M184.38,34.07c-0.13-0.03-0.35-0.21-0.4-0.06C184.16,34.1,184.34,34.09,184.38,34.07z"/>
	<polygon style="fill:#231815;" points="186.32,26.32 186.6,26.44 186.62,26.38 186.34,26.27 	"/>
	<polygon style="fill:#231815;" points="183.71,34.08 183.82,34.09 183.5,34 	"/>
	
		<rect x="178.11" y="43.8" transform="matrix(-0.9241 -0.3822 0.3822 -0.9241 326.5527 152.5141)" style="fill:#231815;" width="0.64" height="0.04"/>
	<polygon style="fill:#231815;" points="182.18,28.93 182.73,29.11 182.71,29.04 182.19,28.89 	"/>
	<path style="fill:#231815;" d="M168.61,15.74c2.15,1.06,4.49,1.87,6.55,2.76c2.52,1.31,4.99,1.74,7.4,2.86l-0.18-0.22
		c-1.09-0.58-2.29-1.04-3.45-1.54c-2.63-0.78-5.67-2.44-8.3-3.27c-1.16-0.39-2.64-1.38-3.5-1.12
		C167.58,15.42,168.07,15.6,168.61,15.74z"/>
	<polygon style="fill:#231815;" points="170.34,57.56 169.32,57.05 169.31,57.08 170.33,57.6 	"/>
	<polygon style="fill:#231815;" points="173.52,46.68 172.82,46.41 173.3,46.64 	"/>
	
		<rect x="167.32" y="62.99" transform="matrix(-0.9295 -0.3689 0.3689 -0.9295 299.7903 183.3605)" style="fill:#231815;" width="0.2" height="0.06"/>
	<path style="fill:#231815;" d="M153.67,56.9c3.7,1.78,7.36,2.97,11.22,4.9l0.14-0.05l2.03,0.99c-1.29-0.88-3.11-1.49-4.5-2.39
		l-0.05-0.21c-0.66-0.14-1.16-0.68-1.74-0.56C158.4,58.64,156.04,57.85,153.67,56.9z"/>
	<path style="fill:#231815;" d="M160.76,69.54c-0.58-0.3-1.19-0.32-1.57-0.74c-2.77-1.21-5.52-2.11-8.4-2.77
		c0.57,0.23,1.15,0.46,1.72,0.71l-0.08-0.03l-0.01,0.04l0.47,0.16c1.48,0.65,2.96,1.36,4.41,2.04c1.8,0.46,3.72,1.14,5.46,1.8
		l0.55,0.03c0.14,0.03,0.15,0.25,0.3,0.16l-0.33-0.24C162.4,70.52,161.52,70.08,160.76,69.54z"/>
	<polygon style="fill:#231815;" points="159.24,68.73 159.15,68.74 159.19,68.79 159.26,68.76 	"/>
	<polygon style="fill:#231815;" points="170.01,47.8 170.54,48.07 170.58,48.02 170.02,47.76 	"/>
	<path style="fill:#231815;" d="M159.02,51.83c2.33,1.17,5.11,2.08,7.78,3.26l0.15,0.02C164.51,53.71,161.79,52.98,159.02,51.83z"/>
	<polygon style="fill:#231815;" points="163.19,60.43 162.92,60.33 162.91,60.37 163.18,60.47 	"/>
	<path style="fill:#231815;" d="M162.99,56.95l-0.56-0.28C162.56,56.82,162.75,57.04,162.99,56.95z"/>
	<path style="fill:#231815;" d="M162.21,56.56l0.21,0.11C162.34,56.58,162.27,56.52,162.21,56.56z"/>
	<path style="fill:#231815;" d="M152.41,51.12c-0.34,0.16-0.73-0.12-1.25-0.23c1.94,0.72,3.87,1.47,5.79,2.25
		c1.71,0.69,3.36,1.5,5.04,1.94C158.83,53.89,155.59,52.41,152.41,51.12z"/>
	
		<rect x="161.62" y="55.34" transform="matrix(-0.326 0.9454 -0.9454 -0.326 266.8036 -79.2476)" style="fill:#231815;" width="0.06" height="0.3"/>
	<path style="fill:#231815;" d="M152.48,70.34c-0.08,0.06,0.1,0.05,0.1,0.14l0.23-0.09l-0.22-0.22
		C152.47,70.17,152.52,70.3,152.48,70.34z"/>
	<polygon style="fill:#231815;" points="150.76,67.02 153.06,67.89 150.73,66.95 	"/>
	<path style="fill:#231815;" d="M157.91,50.49c-1.03-0.59-2.22-1.04-3.38-1.52L157.91,50.49z"/>
	
		<rect x="157.8" y="49.29" transform="matrix(0.9494 0.3141 -0.3141 0.9494 23.4802 -47.1066)" style="fill:#231815;" width="0.27" height="0.06"/>
	<path style="fill:#231815;" d="M166.9,15.1c-0.27-0.21-0.73-0.25-0.92-0.21C166.28,14.96,166.66,15.19,166.9,15.1z"/>
	<path style="fill:#231815;" d="M152.81,63.98l0.19,0.06c-0.02-0.05,0.04-0.05,0.11-0.07l-0.19-0.15
		C152.8,63.81,152.85,63.93,152.81,63.98z"/>
	<path style="fill:#231815;" d="M153,63.1l0.11,0.03c0.09-0.01,0.11-0.07,0.12-0.13l-0.19-0.06L153,63.1z"/>
	<path style="fill:#231815;" d="M152.72,63.26c0.04,0.07,0.12,0.08,0.2,0.11c0.08,0.01,0.08-0.08,0.09-0.12l-0.27-0.09L152.72,63.26
		z"/>
	<polygon style="fill:#231815;" points="156.17,48.06 155.97,48 155.95,48.06 156.16,48.12 	"/>
	<path style="fill:#231815;" d="M159.25,15.83c1.43,0.62,3.38,1.25,4.57,1.62c-2.85-1.01-5.41-2-8.24-2.9L159.25,15.83z"/>
	<polygon style="fill:#231815;" points="155.77,47.94 155.36,47.81 155.35,47.87 155.75,47.99 	"/>
	<polygon style="fill:#231815;" points="152.4,56.5 152.77,56.67 152.78,56.62 152.41,56.46 	"/>
	<path style="fill:#231815;" d="M151.26,55.6c0.21-0.23,0.7,0.32,1.21,0.42c-0.33-0.23-0.69-0.45-1.17-0.55
		c-0.65-0.62-1.65-1.16-2.73-1.38l0.19,0.06c0.26,0.16,0.56,0.39,0.37,0.56C149.81,55.06,150.57,55.49,151.26,55.6z"/>
	<polygon style="fill:#231815;" points="162.08,15.78 161.68,15.66 161.66,15.71 162.06,15.83 	"/>
	
		<rect x="150.07" y="62.52" transform="matrix(0.2195 -0.9756 0.9756 0.2195 55.9444 195.3914)" style="fill:#231815;" width="0.04" height="0.42"/>
	<polygon style="fill:#231815;" points="161.11,15.49 160.81,15.4 160.79,15.46 161.1,15.54 	"/>
	<polygon style="fill:#231815;" points="152.15,48.02 152.9,48.35 152.91,48.29 152.19,47.97 	"/>
	<polygon style="fill:#231815;" points="159.85,15.07 158.87,14.79 158.86,14.83 159.84,15.11 	"/>
	<path style="fill:#231815;" d="M151.76,47.79l-0.66-0.29C151.28,47.64,151.53,47.71,151.76,47.79z"/>
	
		<rect x="151.61" y="47.29" transform="matrix(0.959 0.2835 -0.2835 0.959 19.6452 -41.1147)" style="fill:#231815;" width="0.51" height="0.04"/>
	<path style="fill:#231815;" d="M158.48,14.62l0.24,0.07C158.63,14.58,158.31,14.57,158.48,14.62z"/>
	
		<rect x="150.01" y="50.45" transform="matrix(-0.9587 -0.2843 0.2843 -0.9587 279.7763 141.5681)" style="fill:#231815;" width="0.3" height="0.06"/>
	<path style="fill:#231815;" d="M158.15,14.52c-0.83-0.3-1.95-0.71-2.86-0.98L158.15,14.52z"/>
	<polygon style="fill:#231815;" points="150.75,47.4 150.76,47.36 150.03,47.08 150.01,47.14 	"/>
	<polygon style="fill:#231815;" points="149.96,49.79 150.06,49.78 149.76,49.73 	"/>
	<path style="fill:#231815;" d="M146.52,63.16c-0.63-0.02-1.38-0.3-1.97-0.32C145.27,63.14,145.88,63.07,146.52,63.16z"/>
	<polygon style="fill:#231815;" points="149.85,46.54 149.83,46.59 150.41,46.76 150.43,46.7 	"/>
	<path style="fill:#231815;" d="M157.71,11.79c-1.79-0.59-3.58-1.16-5.39-1.71c1.9,0.62,3.69,1.24,5.67,1.94L157.71,11.79z"/>
	<polygon style="fill:#231815;" points="149.63,46.93 147.93,46.31 147.89,46.34 149.59,46.96 	"/>
	<polygon style="fill:#231815;" points="147.78,47.5 148.41,47.68 148.43,47.62 147.79,47.44 	"/>
	<polygon style="fill:#231815;" points="153.75,13 153.74,13.04 155.11,13.5 155.12,13.44 	"/>
	<polygon style="fill:#231815;" points="154.88,14.32 154.89,14.28 154.55,14.19 154.54,14.23 	"/>
	
		<rect x="147.47" y="47.21" transform="matrix(-0.2152 0.9766 -0.9766 -0.2152 225.5198 -86.4573)" style="fill:#231815;" width="0.06" height="0.36"/>
	<path style="fill:#231815;" d="M150.14,12.82c-2.38-0.79-4.73-1.59-7.21-2.25c-0.78-0.24-1.44-0.36-2.05-0.62
		c-1.89-0.44-3.77-1.11-5.55-1.38l-0.17-0.11c-3.85-0.88-7.42-1.67-11.42-2.43C132.85,7.75,141.47,10.11,150.14,12.82z"/>
	<path style="fill:#231815;" d="M154.31,14.17l-0.01,0.04l0.17,0.05l-0.15-0.12c-0.63-0.18-1.24-0.38-1.86-0.57L154.31,14.17z"/>
	<polygon style="fill:#231815;" points="147.45,46.11 147.44,46.17 147.78,46.27 147.8,46.21 	"/>
	
		<rect x="142.72" y="66.8" transform="matrix(0.2591 -0.9658 0.9658 0.2591 41.0451 187.5049)" style="fill:#231815;" width="0.04" height="0.4"/>
	<polygon style="fill:#231815;" points="142.15,66.77 142.11,66.8 142.36,66.91 142.37,66.87 	"/>
	<polygon style="fill:#231815;" points="153.51,12.93 153.12,12.77 153.11,12.83 153.51,12.97 	"/>
	<path style="fill:#231815;" d="M141.72,66.59c-1.11-0.45-2.23-1-3.34-1.31C139.46,65.76,140.53,66.22,141.72,66.59z"/>
	<polygon style="fill:#231815;" points="152.65,12.61 151.74,12.32 151.73,12.37 152.64,12.65 	"/>
	<polygon style="fill:#231815;" points="152.16,9.97 151.51,9.77 151.61,9.83 	"/>
	
		<rect x="151.02" y="12.16" transform="matrix(0.9706 0.2407 -0.2407 0.9706 7.3762 -36.0466)" style="fill:#231815;" width="0.49" height="0.04"/>
	<polygon style="fill:#231815;" points="150.8,12 149.89,11.71 149.88,11.77 150.76,12.03 	"/>
	<polygon style="fill:#231815;" points="150.29,11.46 148.96,11.1 150.27,11.56 	"/>
	<polygon style="fill:#231815;" points="139.57,65.48 138.49,65 138.48,65.06 139.56,65.52 	"/>
	<polygon style="fill:#231815;" points="144.72,37.59 144.99,37.66 145,37.6 144.73,37.53 	"/>
	<polygon style="fill:#231815;" points="149.59,11.6 149.25,11.52 149.24,11.56 149.58,11.64 	"/>
	<polygon style="fill:#231815;" points="138.06,64.85 138.05,64.89 138.35,65.03 138.36,64.97 	"/>
	<polygon style="fill:#231815;" points="137.81,65.08 137.8,65.14 138.11,65.25 138.12,65.22 	"/>
	<polygon style="fill:#231815;" points="147.97,11.07 147.05,10.8 147.04,10.86 147.93,11.1 	"/>
	<path style="fill:#231815;" d="M138.04,63.77l-0.92-0.37c-0.79-0.7-2.03-1.16-3.05-1.3c1.15,0.5,2.3,0.95,3.32,1.61l-0.05-0.15
		C137.57,63.61,137.84,63.64,138.04,63.77z"/>
	<path style="fill:#231815;" d="M131.56,62.53l0.01-0.04c-5.4-1.51-10.76-2.73-16.16-3.92c-6.34-1-12.29-1.88-18.68-2.01l0.02,0.34
		c0.21-0.03,0.66,0,0.77,0.12c0.31-0.18,0.74,0.03,1.05,0.08c3.12,0.16,6.25,0.43,9.37,0.8c0.98-0.29,2,0.19,3.09,0.19
		c4.92,0.82,9.69,2.03,14.37,3.18c3.93,0.8,7.81,2.11,11.69,3.49c-2.98-1.4-6.31-2.12-9.56-3.16c3.46,0.71,6.85,1.91,10.3,3.13
		C135.74,63.95,133.6,63.3,131.56,62.53z"/>
	<polygon style="fill:#231815;" points="146.88,10.72 146.64,10.66 146.64,10.7 146.88,10.76 	"/>
	<polygon style="fill:#231815;" points="144.84,19.87 145.39,20.04 145.39,20 144.88,19.82 	"/>
	<polygon style="fill:#231815;" points="145.52,10.31 145.48,10.34 145.82,10.48 145.83,10.42 	"/>
	<polygon style="fill:#231815;" points="144.84,10.12 144.35,10.01 144.35,10.05 144.83,10.16 	"/>
	<polygon style="fill:#231815;" points="144.02,9.88 143.78,9.83 143.77,9.89 144.01,9.94 	"/>
	<polygon style="fill:#231815;" points="141.41,9.15 141.37,9.19 142.47,9.45 142.48,9.41 	"/>
	<path style="fill:#231815;" d="M128.94,65.84l1.4,0.36c0.76,0.2,1.53,0.69,2.27,0.58C131.27,66.51,130.1,66.05,128.94,65.84z"/>
	
		<rect x="139.87" y="18.6" transform="matrix(-0.9796 -0.2009 0.2009 -0.9796 273.6481 65.0157)" style="fill:#231815;" width="0.51" height="0.04"/>
	<polygon style="fill:#231815;" points="132.82,61.69 132.79,61.72 133.18,61.86 133.19,61.8 	"/>
	<path style="fill:#231815;" d="M135.07,7.52c2.03,0.48,4.05,0.98,6.06,1.52C139.26,8.4,137.03,7.98,135.07,7.52z"/>
	<path style="fill:#231815;" d="M133.86,16.97c0.04,0.03,0.11,0.04,0.16,0.07l0-0.04L133.86,16.97z"/>
	<path style="fill:#231815;" d="M134.03,17.04c0.31,0.15,0.76,0.27,1.24,0.37C134.79,17.26,134.39,17.09,134.03,17.04z"/>
	<polygon style="fill:#231815;" points="134.03,17.04 134.02,17.04 134.02,17.04 	"/>
	<path style="fill:#231815;" d="M126.94,65.26c0.65,0.24,1.26,0.4,1.88,0.5l-1.26-0.38C127.33,65.25,127,65.21,126.94,65.26z"/>
	<polygon style="fill:#231815;" points="134.34,7.36 134.3,7.39 134.9,7.53 134.9,7.49 	"/>
	<path style="fill:#231815;" d="M133.68,17.04c-0.89-0.34-2.06-0.61-3.2-0.83c0.03,0.05,0.1,0.08,0.09,0.12
		C131.75,16.51,132.58,16.83,133.68,17.04z"/>
	<path style="fill:#231815;" d="M122.72,64.17c1.1,0.19,2.25,0.12,3.19,0.39c-1.78-0.45-3.56-0.86-5.34-1.24l-0.3-0.18
		c0.24-0.05,0.54,0.06,0.81,0.07c0.71-0.28,1.45,0.37,2.08-0.03l3.18,0.57l-0.16-0.17l-9.59-2.04c-6.41-1.3-13.15-1.54-19.69-2.12
		l0.01,0.1c-0.08-0.02-0.2-0.02-0.31-0.02l0-0.08c-1.43-0.12-3.03-0.13-4.49-0.28l-0.2-0.23c-8.08-0.28-16.52,1.02-24.9,2.25
		c-8.58,0.73-17.7,3.96-25.72,6.83c0.01-0.31-0.41,0-0.6,0.08c-0.16-0.08-0.07,0.35-0.32,0.16c-1.22,0.57-2.41,1.1-3.53,1.85
		c0.32,0.5,0.84-0.41,1.28-0.15c-0.03,0.1-0.11,0.17-0.22,0.23c1.51-0.56,3.02-1.09,4.55-1.59c0.26-0.11,0.95-0.5,1.15-0.29
		l1.7-0.62l-0.04-0.09c2.74-1.04,5.47-2.05,8.32-2.59c-1.71,0.86-3.77,1.01-5.21,2.1c0.17-0.01-0.17,0.24,0.12,0.14
		c-0.08,0.55,0.77-0.2,1.14-0.01c6.04-2.04,12.33-3.54,18.37-4.01c-0.22,0.02-0.43,0.02-0.63-0.03c1.46-0.5,3.27-0.51,4.89-0.68
		c1.13-0.04,2.25-0.37,3.31-0.23c4.68-0.42,9.6-0.74,14.32-0.92c-4.86-0.34-9.81,0.55-14.62,0.7c0.02-0.04,0.06-0.09,0.11-0.08
		c-1.21-0.09-2.56,0.37-3.76,0.25c0.08-0.18,0.24-0.26,0.43-0.27c-0.04-0.01-0.08-0.04-0.12-0.05c0.68-0.19,1.35-0.23,2.02-0.39
		c-5.65,1.02-10.97,1.01-16.51,2.52c5.4-1.58,11.11-2.18,16.7-3.04c7.27-0.55,15.18-1.09,22.54-0.57l0,0.01l0.03-0.01l0.02,0l0-0.01
		l0.2-0.06l-0.1-0.07c0.05,0.01,0.1,0.03,0.15,0.03l0.01,0.1c1.51,0.04,3.39,0.2,4.98,0.28c3.32,0.23,6.3,0.58,9.25,1.04
		c0.63,0.29,1.11-0.01,1.66,0.41c3.57,0.56,6.49,1.57,10.11,2.16l0.01-0.06C122.89,64.21,122.76,64.25,122.72,64.17z"/>
	<path style="fill:#231815;" d="M125.05,64.79c0.23,0.22,0.69,0.18,1.02,0.28C125.74,64.95,125.21,64.79,125.05,64.79z"/>
	<polygon style="fill:#231815;" points="132.3,4.08 132.3,4.04 131.02,3.78 131.01,3.84 	"/>
	<path style="fill:#231815;" d="M124.93,64.71l-1.18-0.24C124.04,64.68,124.69,64.72,124.93,64.71z"/>
	<path style="fill:#231815;" d="M130.32,16.19l-0.45-0.1C129.99,16.24,130.16,16.14,130.32,16.19z"/>
	<path style="fill:#231815;" d="M129.78,16.1l0.05-0.02c-1.63-0.35-3.26-0.67-4.89-0.98C126.56,15.41,128.43,15.94,129.78,16.1z"/>
	<polygon style="fill:#231815;" points="129.83,16.08 129.87,16.09 129.85,16.07 	"/>
	<path style="fill:#231815;" d="M96.55,53.71c5.45,0.19,10.9,0.69,16.34,1.48c4.02,0.72,7.94,1.62,11.92,2.37
		c-0.81-0.29-1.82-0.33-2.6-0.68c-2.79-0.44-5.27-1.35-7.96-1.72c-0.21-0.1-0.57-0.05-0.64-0.3c-5.44-0.85-11.46-1.27-17.09-1.63
		L96.55,53.71z"/>
	<polygon style="fill:#231815;" points="129.13,3.43 129.13,3.37 128.7,3.27 128.7,3.3 	"/>
	<path style="fill:#231815;" d="M123.52,59.76c-3.14-0.78-6.3-1.46-9.47-2.04c-5.71-0.83-11.6-1.4-17.35-1.64l0.01,0.2
		c0.44-0.15,1.23,0.27,1.4-0.09c0.43,0.15,1.04,0.09,1.38,0.22c1.51,0.01,3.25,0.17,4.66,0.28l0.42,0.17
		c2.36,0.11,4.92,0.48,7.2,0.7c0,0.06-0.05,0.07-0.08,0.09l0.27,0.02c-0.05,0-0.1-0.01-0.14-0.05c0.27-0.1,0.9,0.07,1.22,0.14
		c-0.06,0.06-0.13,0.05-0.21,0.04l0.08,0.05c0.18,0.05,0.27-0.04,0.38-0.11l0.18,0.15l0.09-0.09c0.4-0.06,0.36,0.21,0.55,0.25
		l0.01-0.14l1.79,0.36c-0.49,0.09-1.03-0.17-1.4-0.14l1.95,0.34c-0.21-0.04-0.42-0.06-0.63-0.15c2.59,0.39,5.44,1.17,7.84,1.58
		L123.52,59.76z"/>
	<polygon style="fill:#231815;" points="123.27,14.84 123.95,14.98 123.96,14.92 123.31,14.8 	"/>
	<polygon style="fill:#231815;" points="122.16,14.67 122.8,14.74 122.81,14.68 122.16,14.61 	"/>
	<polygon style="fill:#231815;" points="122.46,5.88 122.96,5.94 122.96,5.9 122.46,5.84 	"/>
	
		<rect x="118.31" y="59.91" transform="matrix(0.9923 0.124 -0.124 0.9923 8.349 -14.2259)" style="fill:#231815;" width="0.24" height="0.06"/>
	<polygon style="fill:#231815;" points="118.68,55.55 118.09,55.42 118.09,55.48 118.65,55.58 	"/>
	<polygon style="fill:#231815;" points="118.1,59.83 117.42,59.71 117.42,59.75 118.1,59.87 	"/>
	<polygon style="fill:#231815;" points="120.83,5.57 120.4,5.49 120.05,5.45 	"/>
	<polygon style="fill:#231815;" points="117.5,55.31 117.96,55.4 117.72,55.33 	"/>
	<path style="fill:#231815;" d="M114.24,59.03l2.88,0.58C116.14,59.4,115.21,59.17,114.24,59.03z"/>
	<polygon style="fill:#231815;" points="119.87,5.43 119.91,5.38 118.94,5.25 118.94,5.29 	"/>
	
		<rect x="117.07" y="55.22" transform="matrix(0.9937 0.1117 -0.1117 0.9937 6.9075 -12.7497)" style="fill:#231815;" width="0.24" height="0.06"/>
	<path style="fill:#231815;" d="M116.86,55.14c-0.4-0.18-1.16-0.24-1.61-0.37C115.75,54.96,116.32,55.02,116.86,55.14z"/>
	<polygon style="fill:#231815;" points="118.35,12.74 118.69,12.77 118.69,12.73 118.35,12.7 	"/>
	<polygon style="fill:#231815;" points="117.41,5.05 117.77,5.08 117.77,5.04 117.41,5.01 	"/>
	<polygon style="fill:#231815;" points="116.37,4.92 117.05,4.98 117.06,4.94 116.37,4.88 	"/>
	<path style="fill:#231815;" d="M115.14,54.72c-0.41-0.06-0.83-0.26-1.19-0.15C114.36,54.61,114.78,54.8,115.14,54.72z"/>
	<polygon style="fill:#231815;" points="116.02,4.86 116.05,4.8 113.8,4.54 113.8,4.59 	"/>
	<polygon style="fill:#231815;" points="113.98,58.95 113.4,58.86 113.4,58.9 113.97,59.01 	"/>
	<polygon style="fill:#231815;" points="113.85,54.5 112.42,54.28 112.41,54.34 113.82,54.56 	"/>
	<polygon style="fill:#231815;" points="112.54,58.68 110.64,58.44 110.64,58.5 112.53,58.74 	"/>
	<polygon style="fill:#231815;" points="112.5,57.78 112.5,57.72 112.31,57.77 	"/>
	<polygon style="fill:#231815;" points="113.55,4.48 112.76,4.39 112.86,4.43 	"/>
	
		<rect x="111.63" y="54.2" transform="matrix(0.9969 0.0782 -0.0782 0.9969 4.5791 -8.5764)" style="fill:#231815;" width="0.46" height="0.04"/>
	<polygon style="fill:#231815;" points="112.43,4.31 110.96,4.18 111.03,4.23 	"/>
	
		<rect x="110.79" y="54.09" transform="matrix(0.9974 0.0715 -0.0715 0.9974 4.1543 -7.7952)" style="fill:#231815;" width="0.25" height="0.04"/>
	<path style="fill:#231815;" d="M99.85,3.33c3.53,0.19,7.29,0.46,10.61,0.83C107.07,3.73,103.33,3.42,99.85,3.33z"/>
	
		<rect x="109.17" y="53.89" transform="matrix(0.9982 0.0601 -0.0601 0.9982 3.4401 -6.4867)" style="fill:#231815;" width="0.65" height="0.04"/>
	
		<rect x="106.49" y="53.55" transform="matrix(0.9992 0.0403 -0.0403 0.9992 2.2465 -4.2582)" style="fill:#231815;" width="0.46" height="0.06"/>
	<polygon style="fill:#231815;" points="103.72,12.64 104.9,12.7 104.9,12.66 103.72,12.6 	"/>
	<polygon style="fill:#231815;" points="103.55,12.63 103.58,12.59 102.82,12.52 102.82,12.58 	"/>
	<rect x="104.4" y="61.23" style="fill:#231815;" width="0.26" height="0.06"/>
	<polygon style="fill:#231815;" points="100.91,0.04 100.91,0 100.65,0 100.66,0.04 	"/>
	<rect x="102.27" y="62.09" style="fill:#231815;" width="0.31" height="0.04"/>
	<polygon style="fill:#231815;" points="95.55,3.15 98.8,3.34 98.79,3.3 95.54,3.12 	"/>
	<polygon style="fill:#231815;" points="94.6,3.08 94.23,3.05 94.34,3.09 	"/>
	<polygon style="fill:#231815;" points="92.11,3.07 93.87,3.1 93.9,3.06 92.15,3.03 	"/>
	<path style="fill:#231815;" d="M10.57,43.82c0.13-0.09,0.3-0.17,0.49-0.26C10.9,43.63,10.73,43.72,10.57,43.82L10.57,43.82z"/>
	<path style="fill:#231815;" d="M10.34,43.78l-0.3,0.38c0.17-0.12,0.35-0.23,0.53-0.34C10.48,43.81,10.36,43.86,10.34,43.78z"/>
	<path style="fill:#231815;" d="M21.28,51.16c-0.12,0.03-0.23,0.08-0.35,0.12C21.05,51.26,21.16,51.26,21.28,51.16z"/>
	<path style="fill:#231815;" d="M45.08,62.04c0.07,0,0.15-0.01,0.21-0.07L45.08,62.04z"/>
	<path style="fill:#231815;" d="M18.44,36.17l0.39-0.18C18.71,36,18.57,36.1,18.44,36.17z"/>
	<path style="fill:#231815;" d="M18.34,48.2C18.11,48.32,18.23,48.27,18.34,48.2L18.34,48.2z"/>
	<polygon style="fill:#231815;" points="96.65,60.46 96.64,60.43 96.52,60.47 	"/>
	<path style="fill:#231815;" d="M42.82,64.87c-1.46,0.52-2.91,1.07-4.34,1.64c0.15,0.06,0.36-0.23,0.47-0.08
		c2.16-0.94,4.33-1.6,6.59-2.49c-0.22,0.03-0.4,0.2-0.64,0.13l0.08-0.14c0.67-0.01,0.96-0.56,1.63-0.56
		c0.3-0.11,1.03-0.29,1.09-0.46c0.34-0.01,0.69-0.33,1.01-0.27c-0.31,0.34-0.74,0.35-1.05,0.61c4.26-1.37,9.08-2.38,13.6-3.38
		l0.02-0.17c0.29-0.11,0.04,0.11,0.24,0.13c2.84-0.49,5.3-1,8.16-1.32c-1.62,0.09-3.23,0.35-4.96,0.61
		c-0.1-0.06,0.17-0.17,0.02-0.11l-2.74,0.46l0.05,0.15l-0.2,0.06c-0.25-0.34-1.1,0.08-1.66,0.15c-1.96,0.13-3.75,0.73-5.71,1.05
		c2.12-0.72,4.37-1.02,6.59-1.57c-0.21,0.04-0.42,0.08-0.64,0.09c0.63-0.19,1.38-0.44,2-0.39c-0.08,0.1-0.27,0.1-0.42,0.16
		c1.19-0.28,2.35-0.37,3.54-0.55l0.01,0.02l0.24-0.06l0.25-0.04c-0.02,0-0.05,0.01-0.06-0.01c0.47-0.27,1.18-0.24,1.79-0.31
		l-0.03-0.1c0.46-0.11,0.15,0.17,0.61,0.05l-0.04-0.15c2.37-0.27,4.77-0.49,7.15-0.63l-0.04,0.05c-0.02,0.16,0.23-0.18,0.38,0.03
		c-0.06,0.09-0.2,0.06-0.3,0.1c1.87-0.25,3.99-0.27,6.08-0.6c4.94-0.3,9.89-0.32,14.85-0.08l-0.02-0.37l-0.01-0.2l-0.02-0.34
		l-0.14-2.27L96.2,53.2c-2.15-0.12-4.29-0.18-6.44-0.2c-3.93,0-7.48,0.55-11.45,0.86l0.04-0.05c-2.61,0.21-5.4,0.64-8.08,1.15
		c-0.84-0.26-1.97,0.28-2.83,0.41c-6.51,0.94-12.74,2.03-19.12,4.08c-1.84,0.7-3.76,1.07-5.46,1.93c1.71-0.58,3.43-1.13,5.16-1.64
		c-1.98,0.89-4.17,1.37-6.06,2.42c3.05-0.98,6.27-2.43,9.55-3.28l0.74-0.38c3.79-1.12,7.57-1.81,11.35-2.35l-0.36,0.2
		c-4.89,1.21-9.7,2.68-14.41,4.43c-1.32,0.45-2.63,0.92-3.93,1.4c0-0.05,0.02-0.07,0.04-0.09c-1.65,0.56-3.29,1.16-4.92,1.79
		c-4.24,1.85-8.37,3.93-12.36,6.21l-0.57,0.2c-4.05,2.34-8.09,4.6-11.9,7.11c0.01-0.11,0.15-0.18,0.25-0.26
		c-0.61,0.32-1.14,0.79-1.77,0.96c0.02,0.06,0.07,0.04,0.12,0.02l-0.13,0.24c0.47-0.61,1.07-0.44,1.61-0.68
		c0.18,0.16,0.75-0.03,0.48,0.47c-0.26-0.14-0.41,0.26-0.64,0.27l0.01-0.06c-1.04,0.73-2.35,1.29-3.06,1.99l0.13,0.31
		c2.19-0.84,4.44-2.51,6.68-3.83c7.92-4.47,15.94-9.71,24.93-12.53C43.54,64.54,43.01,64.65,42.82,64.87z"/>
	<path style="fill:#231815;" d="M67.43,6.69l0.05-0.01l-0.02-0.01C67.45,6.69,67.44,6.69,67.43,6.69z"/>
	<path style="fill:#231815;" d="M67.43,6.69c-0.51,0.08-0.99,0.17-1.34,0.33C66.64,6.89,67.18,6.9,67.43,6.69z"/>
	<path style="fill:#231815;" d="M21.44,28l-0.02,0.06l0.37-0.16C21.67,27.85,21.55,27.97,21.44,28z"/>
	<polygon style="fill:#231815;" points="26.72,25.53 26.51,25.51 26.5,25.56 26.7,25.58 	"/>
	<path style="fill:#231815;" d="M72.1,6.36l0.08,0.03c0.13-0.02,0.26-0.04,0.38-0.07C72.42,6.31,72.26,6.28,72.1,6.36z"/>
	<path style="fill:#231815;" d="M13.26,25.06L13.26,25.06C13.37,25.02,13.32,25.03,13.26,25.06z"/>
	<path style="fill:#231815;" d="M70.04,3.31c-0.09,0.09-0.36,0.08-0.5,0.12c1.92-0.27,3.85-0.5,5.78-0.71l0.05-0.11
		c0.22-0.01,0.47-0.1,0.63-0.02C81.1,2.24,86.52,1.58,91.35,1.6l-0.01-0.06l-2.33-0.02c-5.77,0.29-12.04,0.74-18.18,1.55
		C64.7,3.87,58.69,5.03,53.46,6.5c4.63-1.08,11.19-2.64,16.3-3.24L70.04,3.31z"/>
	<polygon style="fill:#231815;" points="91.52,3.02 87.65,3.08 87.66,3.14 91.53,3.06 	"/>
	<polygon style="fill:#231815;" points="87.47,3.09 86.59,3.11 86.71,3.14 	"/>
	<polygon style="fill:#231815;" points="85.22,3.25 86.34,3.17 86.34,3.13 85.21,3.21 	"/>
	<path style="fill:#231815;" d="M84.15,3.26c-1.66,0.11-3.33,0.24-4.99,0.39l0.01,0.04c1.66-0.15,3.32-0.28,4.99-0.39L84.15,3.26z"
		/>
	<polygon style="fill:#231815;" points="83.13,4.45 83.71,4.39 83.7,4.33 83.12,4.39 	"/>
	<polygon style="fill:#231815;" points="89.85,52.68 89.85,52.62 88.74,52.67 88.75,52.7 88.93,52.69 	"/>
	<polygon style="fill:#231815;" points="89.99,61.39 90.72,61.38 90.21,61.37 	"/>
	<polygon style="fill:#231815;" points="82.09,4.54 82.52,4.5 82.51,4.44 82.08,4.48 	"/>
	<polygon style="fill:#231815;" points="87.67,65.41 88.43,65.38 88.45,65.34 87.66,65.35 	"/>
	<polygon style="fill:#231815;" points="77.36,3.9 78.48,3.77 78.47,3.73 77.35,3.86 	"/>
	<polygon style="fill:#231815;" points="76.51,5.03 76.94,4.97 76.93,4.91 76.5,4.97 	"/>
	
		<rect x="74.76" y="5.13" transform="matrix(-0.9909 0.1345 -0.1345 -0.9909 149.9731 0.1583)" style="fill:#231815;" width="0.44" height="0.04"/>
	
		<rect x="73.83" y="5.25" transform="matrix(-0.9904 0.1381 -0.1381 -0.9904 148.1801 0.2596)" style="fill:#231815;" width="0.51" height="0.04"/>
	<path style="fill:#231815;" d="M73.57,5.32l-0.01-0.06c-1.68,0.21-3.37,0.45-5.04,0.71l0.01,0.04C70.21,5.76,71.89,5.53,73.57,5.32
		z"/>
	
		<rect x="71.74" y="6.62" transform="matrix(-0.9888 0.1489 -0.1489 -0.9888 144.5926 2.4619)" style="fill:#231815;" width="0.94" height="0.04"/>
	<polygon style="fill:#231815;" points="71.84,6.82 72.12,6.78 72.11,6.74 71.83,6.78 	"/>
	<path style="fill:#231815;" d="M69.19,2.42l-1.32,0.18l-0.02-0.1l-0.33,0.06C67.84,2.65,68.83,2.68,69.19,2.42z"/>
	<polygon style="fill:#231815;" points="69.25,3.48 67.44,3.79 67.45,3.82 69.26,3.52 	"/>
	<polygon style="fill:#231815;" points="68.27,6.02 68.25,5.96 68.01,6.06 	"/>
	<path style="fill:#231815;" d="M67.82,6.03c-2.3,0.39-4.58,0.82-6.86,1.29l0.01,0.04c2.28-0.47,4.57-0.89,6.87-1.27L67.82,6.03z"/>
	<path style="fill:#231815;" d="M52.83,6.91c5.05-1.08,9.48-2.27,14.35-3.12C62.57,4.6,57.56,5.67,52.83,6.91z"/>
	<polygon style="fill:#231815;" points="66.99,7.01 66.67,7.06 66.68,7.1 67,7.04 	"/>
	<path style="fill:#231815;" d="M60.56,8.14l0.98-0.11c-0.1,0.18-0.44,0.15-0.65,0.22l0.02,0.06l0.74-0.16l-0.02-0.06L61.6,7.96
		l3.15-0.68C63.34,7.55,61.95,7.84,60.56,8.14z"/>
	<polygon style="fill:#231815;" points="64.9,7.88 64.56,7.99 64.91,7.92 	"/>
	
		<rect x="62.63" y="7.39" transform="matrix(0.9805 -0.1966 0.1966 0.9805 -0.2172 12.6296)" style="fill:#231815;" width="1.74" height="0.04"/>
	<polygon style="fill:#231815;" points="63.33,7.74 63.03,7.87 63.28,7.81 	"/>
	<path style="fill:#231815;" d="M61.92,8.2c0.27-0.1,0.77-0.08,0.82-0.27c-0.29,0.04-0.38,0.12-0.76,0.1L61.92,8.2z"/>
	<path style="fill:#231815;" d="M72.35,58.06l2.68-0.33l0.16-0.13c-0.26,0.15-0.38,0.11-0.64,0.02l0.04-0.05
		C73.99,57.62,73.15,57.95,72.35,58.06z"/>
	<polygon style="fill:#231815;" points="61.72,7.75 61.37,7.83 61.38,7.86 61.73,7.79 	"/>
	<polygon style="fill:#231815;" points="60.78,7.36 60.34,7.4 60.46,7.43 	"/>
	<polygon style="fill:#231815;" points="60.94,7.92 59.43,8.29 59.44,8.33 60.99,7.95 	"/>
	<polygon style="fill:#231815;" points="60.14,8.52 60.64,8.41 60.62,8.37 60.13,8.48 	"/>
	<polygon style="fill:#231815;" points="60.21,7.49 60.19,7.43 58.4,7.89 58.41,7.93 	"/>
	<path style="fill:#231815;" d="M59.13,8.8c0.36-0.04,0.54-0.2,0.82-0.28l-0.92,0.21C59.08,8.73,59.15,8.74,59.13,8.8z"/>
	<polygon style="fill:#231815;" points="58.8,8.82 59.05,8.76 59.04,8.72 58.79,8.78 	"/>
	<path style="fill:#231815;" d="M70.16,58.33c0.57,0.01,1.41-0.17,1.99-0.23L72.12,58C71.51,58.25,70.92,58.06,70.16,58.33z"/>
	<polygon style="fill:#231815;" points="58.13,8.73 55.91,9.26 57.07,9.08 	"/>
	<polygon style="fill:#231815;" points="57.73,8.05 57.3,8.15 57.32,8.19 57.74,8.08 	"/>
	<polygon style="fill:#231815;" points="56.95,8.23 56.4,8.4 56.42,8.46 57,8.26 	"/>
	
		<rect x="55.75" y="8.77" transform="matrix(-0.2873 -0.9578 0.9578 -0.2873 63.0121 65.2218)" style="fill:#231815;" width="0.04" height="0.79"/>
	
		<rect x="69.86" y="58.38" transform="matrix(-0.9745 0.2243 -0.2243 -0.9745 151.2171 99.6454)" style="fill:#231815;" width="0.18" height="0.06"/>
	
		<rect x="68.77" y="58.24" transform="matrix(-0.9737 0.228 -0.228 -0.9737 149.2641 99.2961)" style="fill:#231815;" width="0.26" height="0.06"/>
	<polygon style="fill:#231815;" points="53.19,6.61 53.18,6.57 52.75,6.68 52.76,6.72 	"/>
	<polygon style="fill:#231815;" points="68.14,58.38 68.63,58.3 68.62,58.26 68.13,58.32 	"/>
	<polygon style="fill:#231815;" points="52.62,6.75 52.61,6.72 52.07,6.86 52.09,6.89 	"/>
	<path style="fill:#231815;" d="M47.23,8.3c-1.62,0.3-3.5,0.89-5.01,1.38l-0.01-0.04c-1.69,0.61-3.9,1.05-5.45,1.64
		C39.73,10.47,43.53,9.27,47.23,8.3z"/>
	<path style="fill:#231815;" d="M47.84,8.14l-0.6,0.16l0.45-0.09C47.74,8.19,47.78,8.17,47.84,8.14z"/>
	<path style="fill:#231815;" d="M49.41,7.48l0.28,0.03c-0.56,0.44-1.17,0.33-1.85,0.64c1.49-0.39,2.96-0.74,4.33-1.02
		C51.64,6.62,50.39,7.39,49.41,7.48z"/>
	<polygon style="fill:#231815;" points="69,63.11 69.01,63.17 69.44,63.1 69.43,63.06 	"/>
	<polygon style="fill:#231815;" points="67.64,58.44 67.96,58.42 67.95,58.37 67.63,58.4 	"/>
	<polygon style="fill:#231815;" points="67.43,58.45 67.44,58.41 66.63,58.51 66.61,58.56 	"/>
	
		<rect x="61.28" y="59.25" transform="matrix(-0.959 0.2833 -0.2833 -0.959 137.1434 98.7275)" style="fill:#231815;" width="0.31" height="0.06"/>
	
		<rect x="60.17" y="60.56" transform="matrix(-0.9546 0.298 -0.298 -0.9546 135.8556 100.4406)" style="fill:#231815;" width="0.21" height="0.04"/>
	
		<rect x="59.63" y="60.65" transform="matrix(-0.9541 0.2993 -0.2993 -0.9541 134.9863 100.6799)" style="fill:#231815;" width="0.31" height="0.06"/>
	
		<rect x="58.94" y="60.82" transform="matrix(-0.9521 0.3059 -0.3059 -0.9521 133.9688 100.6942)" style="fill:#231815;" width="0.31" height="0.04"/>
	
		<rect x="57.65" y="61.1" transform="matrix(-0.949 0.3153 -0.3153 -0.949 131.9365 100.8938)" style="fill:#231815;" width="0.31" height="0.04"/>
	<path style="fill:#231815;" d="M51.51,62.65c1.82-0.47,4.08-1.06,5.95-1.5C55.48,61.45,53.36,62.07,51.51,62.65z"/>
	<path style="fill:#231815;" d="M23.63,15.59c4.23-1.71,8.36-2.92,12.72-4.15C32.11,12.57,27.89,13.78,23.63,15.59z"/>
	
		<rect x="58.37" y="65.67" transform="matrix(-0.3348 -0.9423 0.9423 -0.3348 15.9383 142.8379)" style="fill:#231815;" width="0.04" height="0.25"/>
	<polygon style="fill:#231815;" points="56.78,66.16 56.8,66.22 57.5,66.01 57.49,65.98 	"/>
	<path style="fill:#231815;" d="M52.36,67.31l0.02,0.05c1.43-0.39,2.86-0.76,4.3-1.11l-0.02-0.05
		C55.22,66.55,53.79,66.92,52.36,67.31z"/>
	<path style="fill:#231815;" d="M49.91,59.59l1.07-0.3C50.61,59.37,50.25,59.41,49.91,59.59z"/>
	
		<rect x="50.64" y="62.82" transform="matrix(-0.9302 0.3671 -0.3671 -0.9302 121.1196 102.6638)" style="fill:#231815;" width="0.31" height="0.06"/>
	
		<rect x="49.94" y="63.07" transform="matrix(-0.9267 0.3757 -0.3757 -0.9267 120.1566 102.7487)" style="fill:#231815;" width="0.23" height="0.04"/>
	<polygon style="fill:#231815;" points="49.77,71.48 49.79,71.53 51.23,71.11 51.21,71.08 	"/>
	
		<rect x="47.28" y="63.29" transform="matrix(-0.9215 0.3884 -0.3884 -0.9215 115.6765 103.2518)" style="fill:#231815;" width="0.24" height="0.06"/>
	<polygon style="fill:#231815;" points="23.48,15.7 23.46,15.66 22.76,15.98 22.77,16.02 	"/>
	
		<rect x="46.87" y="63.45" transform="matrix(-0.9206 0.3905 -0.3905 -0.9206 115.1125 103.545)" style="fill:#231815;" width="0.32" height="0.06"/>
	<path style="fill:#231815;" d="M49.89,71.03c0.18-0.05,0.36-0.1,0.54-0.14C50.21,70.9,50.05,70.96,49.89,71.03z"/>
	<path style="fill:#231815;" d="M48.8,71.49c0.45-0.07,0.74-0.3,1.09-0.46c-1.08,0.29-2.16,0.73-3.23,0.91
		c-0.73,0.32-1.51,0.62-2.07,0.78C45.98,72.35,47.3,71.85,48.8,71.49z"/>
	<polygon style="fill:#231815;" points="24.62,19.25 24.6,19.22 24.39,19.36 	"/>
	<polygon style="fill:#231815;" points="22.52,16.09 22.49,16.04 21.75,16.37 21.78,16.43 	"/>
	<polygon style="fill:#231815;" points="44.98,60.14 44.24,60.4 44.26,60.45 45,60.18 	"/>
	<polygon style="fill:#231815;" points="48.77,71.83 48.79,71.86 49.5,71.59 49.48,71.56 	"/>
	<polygon style="fill:#231815;" points="20.69,16.82 18.38,17.76 18.37,17.81 20.71,16.85 	"/>
	<path style="fill:#231815;" d="M43.7,61.94c-1.04,0.43-1.32,0.47-2.37,1.01L43.7,61.94z"/>
	<polygon style="fill:#231815;" points="16.66,18.54 17.88,18 17.85,17.95 16.4,18.62 16.42,18.65 	"/>
	
		<rect x="41.22" y="61.97" transform="matrix(0.9054 -0.4246 0.4246 0.9054 -22.4122 23.4238)" style="fill:#231815;" width="0.27" height="0.06"/>
	<polygon style="fill:#231815;" points="45.32,70.09 44.98,70.21 44.98,70.25 45.35,70.14 	"/>
	<polygon style="fill:#231815;" points="40.08,61.96 40.86,61.63 40.25,61.88 	"/>
	<polygon style="fill:#231815;" points="37.94,56.59 37.67,56.68 37.69,56.71 37.94,56.66 	"/>
	<polygon style="fill:#231815;" points="37.35,56.19 35.52,56.98 35.55,57.03 37.37,56.23 	"/>
	<polygon style="fill:#231815;" points="16.09,18.82 16.07,18.78 14.36,19.66 14.38,19.69 	"/>
	<polygon style="fill:#231815;" points="18.03,27.33 18.12,27.35 19.62,26.7 	"/>
	<polygon style="fill:#231815;" points="41.97,68.91 42.2,68.86 42.2,68.8 41.95,68.87 	"/>
	<path style="fill:#231815;" d="M15.99,23.36c-0.5,0.08-0.84,0.43-1.25,0.58L15.99,23.36z"/>
	<polygon style="fill:#231815;" points="15.95,28.33 17.62,27.54 17.63,27.49 15.92,28.28 	"/>
	<polygon style="fill:#231815;" points="13.07,20.32 13.04,20.27 11.67,20.95 11.7,20.98 	"/>
	<path style="fill:#231815;" d="M13.15,29.12c1.21-0.74,2.85-1.19,3.94-1.84C15.86,27.96,14.13,28.29,13.15,29.12z"/>
	<path style="fill:#231815;" d="M43.37,73.21l-0.67,0.13C42.92,73.34,43.17,73.32,43.37,73.21z"/>
	<path style="fill:#231815;" d="M42.02,73.47l0.68-0.13C42.41,73.34,42.15,73.33,42.02,73.47z"/>
	<path style="fill:#231815;" d="M17.59,32.84c0.4-0.15,1.56-0.54,2.13-0.92L17.59,32.84z"/>
	<polygon style="fill:#231815;" points="21.16,34.77 20.66,35.03 20.68,35.07 21.19,34.8 	"/>
	
		<rect x="40.4" y="69.43" transform="matrix(0.8922 -0.4517 0.4517 0.8922 -26.9909 25.8329)" style="fill:#231815;" width="0.44" height="0.04"/>
	
		<rect x="38.76" y="66.69" transform="matrix(-0.8919 0.4521 -0.4521 -0.8919 103.7128 108.6394)" style="fill:#231815;" width="0.24" height="0.04"/>
	<polygon style="fill:#231815;" points="19.31,33.28 18.34,33.72 18.37,33.77 19.33,33.31 	"/>
	<path style="fill:#231815;" d="M9.88,25.57c-0.07,0.09-0.35,0.26-0.22,0.33c1.16-0.62,2.33-1.22,3.5-1.81
		C12.1,24.32,10.88,25.12,9.88,25.57z"/>
	<polygon style="fill:#231815;" points="38.13,66.69 37.73,66.85 37.73,66.9 38.15,66.73 	"/>
	
		<rect x="39.34" y="69.83" transform="matrix(-0.5163 -0.8564 0.8564 -0.5163 -0.3442 139.997)" style="fill:#231815;" width="0.04" height="0.54"/>
	<polygon style="fill:#231815;" points="14.22,29.08 15,28.72 14.96,28.68 14.2,29.05 	"/>
	<polygon style="fill:#231815;" points="17.71,33.36 17.5,33.48 17.53,33.51 17.73,33.4 	"/>
	<path style="fill:#231815;" d="M38.67,68.78l-0.05-0.09l-0.14,0.12C38.53,68.85,38.6,68.82,38.67,68.78z"/>
	<path style="fill:#231815;" d="M16.97,33.72l-0.29,0.09l-0.01,0.01C16.75,33.88,16.87,33.75,16.97,33.72z"/>
	<path style="fill:#231815;" d="M16.8,33.72l0.5-0.24C17.14,33.51,16.94,33.61,16.8,33.72z"/>
	<path style="fill:#231815;" d="M16.5,33.87l0.18-0.06c0.03-0.03,0.08-0.06,0.12-0.09L16.5,33.87z"/>
	
		<rect x="37.15" y="67.04" transform="matrix(-0.8847 0.4661 -0.4661 -0.8847 101.4924 109.0323)" style="fill:#231815;" width="0.24" height="0.06"/>
	<polygon style="fill:#231815;" points="10.95,30.47 14.04,29.13 14.02,29.1 10.96,30.42 	"/>
	<polygon style="fill:#231815;" points="18.09,36.25 17.64,36.42 18.03,36.28 	"/>
	<polygon style="fill:#231815;" points="16.15,34.6 16.15,34.53 14.44,35.4 14.46,35.43 	"/>
	<polygon style="fill:#231815;" points="32.02,60.39 31.63,60.67 31.68,60.69 32.08,60.43 	"/>
	<polygon style="fill:#231815;" points="12.9,35.55 12.9,35.62 15.69,34.31 15.65,34.26 	"/>
	<polygon style="fill:#231815;" points="16.16,35.61 15.8,35.81 15.84,35.86 16.19,35.66 	"/>
	
		<rect x="16.05" y="36.82" transform="matrix(0.8726 -0.4884 0.4884 0.8726 -15.9072 12.6881)" style="fill:#231815;" width="0.64" height="0.04"/>
	<polygon style="fill:#231815;" points="28.99,57.83 29.06,57.84 29.59,57.66 	"/>
	<path style="fill:#231815;" d="M30.96,60.97l-0.3,0.12C30.77,61.07,30.88,61.04,30.96,60.97z"/>
	<path style="fill:#231815;" d="M30.06,61.31l0.6-0.23C30.41,61.13,30.13,61.1,30.06,61.31z"/>
	<polygon style="fill:#231815;" points="29.16,59.21 29.36,59.1 29.43,58.99 	"/>
	<polygon style="fill:#231815;" points="15.17,37.49 14.91,37.6 14.93,37.63 15.16,37.54 	"/>
	<polygon style="fill:#231815;" points="10.38,30.64 9.87,30.83 9.89,30.86 10.37,30.69 	"/>
	<path style="fill:#231815;" d="M25.65,58.63c0.53,0.03,1.4-0.54,1.63-0.66l0.1-0.22c-0.43,0.24-1,0.64-1.51,0.75l0.05-0.08
		C25.85,58.56,25.67,58.62,25.65,58.63z"/>
	<polygon style="fill:#231815;" points="27.74,60.88 28.25,60.7 28.62,60.38 	"/>
	<polygon style="fill:#231815;" points="12.28,35.87 11.86,36.11 11.89,36.14 12.3,35.9 	"/>
	<polygon style="fill:#231815;" points="8.02,31.59 8.01,31.64 8.53,31.45 8.54,31.4 	"/>
	<polygon style="fill:#231815;" points="11.28,36.41 10.81,36.63 10.84,36.67 11.27,36.46 	"/>
	<path style="fill:#231815;" d="M23.92,57.96c-0.83,0.36-1.66,0.75-2.5,0.97C22.25,58.89,23.08,58.37,23.92,57.96z"/>
	<path style="fill:#231815;" d="M23.92,57.96c0.36-0.16,0.73-0.31,1.08-0.43C24.64,57.61,24.28,57.78,23.92,57.96z"/>
	
		<rect x="21.9" y="53.84" transform="matrix(0.86 -0.5103 0.5103 0.86 -24.3945 18.8072)" style="fill:#231815;" width="0.36" height="0.04"/>
	<polygon style="fill:#231815;" points="10.04,36.25 10.05,36.2 7.49,37.49 7.52,37.52 8.43,37.07 	"/>
	<polygon style="fill:#231815;" points="20.23,51.85 19.96,51.94 19.96,52 20.25,51.88 	"/>
	<polygon style="fill:#231815;" points="20.96,54.46 21.03,54.46 21.52,54.17 	"/>
	<polygon style="fill:#231815;" points="23.73,57.51 23.08,57.79 23.1,57.82 23.76,57.54 	"/>
	
		<rect x="16.91" y="48.2" transform="matrix(0.8546 -0.5193 0.5193 0.8546 -22.5576 15.8707)" style="fill:#231815;" width="0.32" height="0.04"/>
	<polygon style="fill:#231815;" points="24.39,59.03 24.4,58.98 24.18,59.07 24.2,59.1 	"/>
	<polygon style="fill:#231815;" points="21.73,55.66 22,55.54 21.98,55.51 21.72,55.59 	"/>
	<path style="fill:#231815;" d="M7.82,38.24c-0.03,0.07-0.14,0.16-0.06,0.2C8.22,38.23,8.53,38,8.92,37.8
		c-0.21,0.02-0.4-0.07-0.52,0.25c-0.43,0.05-0.98,0.35-1.45,0.51L7.82,38.24z"/>
	<path style="fill:#231815;" d="M9.22,37.65c-0.11,0.04-0.2,0.09-0.3,0.14C9.02,37.79,9.12,37.75,9.22,37.65z"/>
	<polygon style="fill:#231815;" points="6.2,34.7 6.21,34.76 6.68,34.52 6.65,34.49 	"/>
	<path style="fill:#231815;" d="M17.02,49.22l-0.24,0.03c0,0.05-0.07,0.08-0.13,0.1l0.07-0.01l0.03,0.05L17.02,49.22z"/>
	<polygon style="fill:#231815;" points="4.81,35.13 6.03,34.76 5.97,34.56 	"/>
	<polygon style="fill:#231815;" points="15.83,48.72 14.94,49.15 14.97,49.2 15.85,48.75 	"/>
	<path style="fill:#231815;" d="M9.64,43.21c0.52-0.42,1.08-0.21,1.39-0.52l-0.34,0.1l0.59-0.44C10.74,42.4,9.95,43.02,9.64,43.21z"
		/>
	<polygon style="fill:#231815;" points="20.48,55.68 20.17,55.87 20.21,55.91 20.51,55.73 	"/>
	<path style="fill:#231815;" d="M19.53,54.93c-2.65,1.56-5.49,2.94-8.01,4.86l0.02,0.03c2.41-1.76,4.67-2.91,7.16-4.39
		C18.91,55.2,19.47,55.27,19.53,54.93z"/>
	<polygon style="fill:#231815;" points="24.09,64.54 25.49,63.72 25.47,63.68 24.06,64.49 	"/>
	<path style="fill:#231815;" d="M20.75,57.86c-1.43,0.77-3.27,1.66-4.48,2.5c0.18-0.1,0.5-0.36,0.51-0.15l-0.01-0.11
		c0.13-0.07,0.25-0.21,0.39-0.21l-0.04,0.1C17.79,59.34,19.67,58.62,20.75,57.86z"/>
	<polygon style="fill:#231815;" points="4.24,35.77 3.64,36.21 3.85,36.07 	"/>
	<polygon style="fill:#231815;" points="8.43,41.85 7.63,42.24 7.64,42.31 8.45,41.88 	"/>
	<path style="fill:#231815;" d="M14.11,49.95c-0.36,0.21-0.81,0.4-1.12,0.39c0.01,0.14-0.06,0.16-0.11,0.15l0.04,0.02
		C13.31,50.42,13.87,50.16,14.11,49.95z"/>
	
		<rect x="11.89" y="48.1" transform="matrix(0.8413 -0.5406 0.5406 0.8413 -24.0964 14.1678)" style="fill:#231815;" width="0.38" height="0.04"/>
	<path style="fill:#231815;" d="M1.2,34.18H1.02c-0.09,0.18-0.25,0.45-0.09,0.46C1.05,34.56,1.14,34.27,1.2,34.18z"/>
	<path style="fill:#231815;" d="M6.03,41.46C6,41.53,5.96,41.58,6.01,41.6c0.21-0.07,0.41-0.25,0.6-0.28l-0.43,0.11l0.05-0.1
		L6.03,41.46z"/>
	<polygon style="fill:#231815;" points="7.15,42.15 7.13,42.12 6.84,42.31 6.86,42.34 	"/>
	<polygon style="fill:#231815;" points="6.67,42.18 6.86,42.05 6.92,41.97 	"/>
	<polygon style="fill:#231815;" points="12.24,49.58 12.05,49.82 12.19,49.73 	"/>
	<path style="fill:#231815;" d="M5.42,41.77l0.59-0.46c-1.13,0.6-2.33,1.39-3.41,2.01c1.01-0.49,2.1-1.2,3.01-1.58L5.42,41.77z"/>
	<polygon style="fill:#231815;" points="6.08,42.48 6.5,42.25 6.14,42.44 	"/>
	<path style="fill:#231815;" d="M5.4,43.31l1.41-0.65C6.34,42.87,5.71,43,5.4,43.31z"/>
	<path style="fill:#231815;" d="M0.29,35.11c0.05-0.11,0.15-0.22,0.04-0.24l-0.27,0.18l0.11,0.14L0.29,35.11z"/>
	
		<rect x="21.45" y="64.21" transform="matrix(0.8399 -0.5427 0.5427 0.8399 -31.4027 21.9964)" style="fill:#231815;" width="0.28" height="0.04"/>
	<polygon style="fill:#231815;" points="3.98,41.75 4.18,41.74 4.4,41.52 	"/>
	<path style="fill:#231815;" d="M14.27,75.13L14.27,75.13l0.02,0C14.28,75.13,14.27,75.13,14.27,75.13z"/>
	<path style="fill:#231815;" d="M14.6,75.24c-0.09,0.04-0.19,0.05-0.28,0.15C14.42,75.37,14.51,75.3,14.6,75.24z"/>
	<polygon style="fill:#231815;" points="14.25,75.22 14.31,75.17 14.27,75.13 14.21,75.18 	"/>
	<path style="fill:#231815;" d="M14.75,75.12c-0.02,0.02-0.04,0.04-0.05,0.05c0.11-0.07,0.21-0.11,0.31-0.03
		c2.92-2.14,6.33-3.98,9.65-6c-3.62,1.96-7.11,3.88-10.37,5.98C14.47,75.15,14.75,74.85,14.75,75.12z"/>
	
		<rect x="16.17" y="58" transform="matrix(0.835 -0.5502 0.5502 0.835 -29.2306 18.5475)" style="fill:#231815;" width="0.3" height="0.04"/>
	
		<rect x="15.62" y="58.29" transform="matrix(0.8321 -0.5547 0.5547 0.8321 -29.6781 18.6011)" style="fill:#231815;" width="0.51" height="0.04"/>
	<path style="fill:#231815;" d="M1.7,40.47l0.49-0.33C2.02,40.25,1.68,40.22,1.7,40.47z"/>
	
		<rect x="20.31" y="64.83" transform="matrix(0.8329 -0.5534 0.5534 0.8329 -32.4688 22.1652)" style="fill:#231815;" width="0.34" height="0.06"/>
	
		<rect x="15.77" y="60.54" transform="matrix(-0.8265 0.563 -0.563 -0.8265 63.2137 101.6338)" style="fill:#231815;" width="0.35" height="0.04"/>
	<polygon style="fill:#231815;" points="19.25,65.52 18.44,65.98 18.25,66.11 	"/>
	
		<rect x="15.19" y="61.03" transform="matrix(0.825 -0.5651 0.5651 0.825 -31.8052 19.3814)" style="fill:#231815;" width="0.41" height="0.04"/>
	<polygon style="fill:#231815;" points="3.8,46.78 3.76,46.74 3.44,46.97 3.47,47.01 	"/>
	
		<rect x="15" y="61.83" transform="matrix(-0.822 0.5695 -0.5695 -0.822 63.0097 104.0105)" style="fill:#231815;" width="0.5" height="0.04"/>
	<polygon style="fill:#231815;" points="21.55,70.29 20.95,70.66 20.98,70.69 21.59,70.33 	"/>
	<polygon style="fill:#231815;" points="14.61,61.91 13.75,62.52 13.78,62.57 14.65,61.96 	"/>
	<polygon style="fill:#231815;" points="13.32,63.12 14.51,62.35 14.47,62.3 13.3,63.08 	"/>
	<polygon style="fill:#231815;" points="18.52,67.76 18.33,67.97 18.49,67.86 	"/>
	<polygon style="fill:#231815;" points="16.38,67.31 17.5,66.57 17.48,66.53 16.34,67.27 	"/>
	<polygon style="fill:#231815;" points="14.76,63.67 14.76,63.72 15.08,63.57 15.07,63.5 	"/>
	<polygon style="fill:#231815;" points="7.6,54.63 7.22,54.91 7.25,54.96 7.64,54.68 	"/>
	<polygon style="fill:#231815;" points="11.38,59.95 11.4,59.88 11.21,60.07 	"/>
	
		<rect x="13.33" y="62.68" transform="matrix(-0.8115 0.5844 -0.5844 -0.8115 61.0248 105.7129)" style="fill:#231815;" width="0.26" height="0.04"/>
	<polygon style="fill:#231815;" points="19.95,71.24 19.29,71.67 19.31,71.7 19.96,71.31 	"/>
	<polygon style="fill:#231815;" points="13.08,63 13.18,62.8 12.45,63.33 	"/>
	<polygon style="fill:#231815;" points="12.23,63.86 13.13,63.2 13.1,63.16 12.2,63.81 	"/>
	<polygon style="fill:#231815;" points="5.43,54.03 4.99,54.35 5.03,54.4 5.47,54.07 	"/>
	
		<rect x="18.75" y="71.83" transform="matrix(0.8091 -0.5877 0.5877 0.8091 -38.6049 24.8683)" style="fill:#231815;" width="0.46" height="0.06"/>
	<path style="fill:#231815;" d="M10.79,64.53l1.58-1.06C11.87,63.75,11.33,64.13,10.79,64.53z"/>
	<path style="fill:#231815;" d="M10.79,64.53c-1.12,0.77-2.22,1.58-3.18,2.43C8.6,66.25,9.71,65.32,10.79,64.53z"/>
	<path style="fill:#231815;" d="M17.01,71.4c0.16,0.08,0.12-0.24,0.25-0.08l0.89-0.58l-0.74,0.42l0.02-0.06
		C17.13,71.16,17.24,71.3,17.01,71.4z"/>
	<polygon style="fill:#231815;" points="11.5,64.75 12.21,64.29 11.06,64.96 	"/>
	
		<rect x="7.56" y="60.57" transform="matrix(0.7986 -0.6019 0.6019 0.7986 -34.8436 17.0556)" style="fill:#231815;" width="1" height="0.04"/>
	<polygon style="fill:#231815;" points="16.86,71.51 16.12,71.98 16.16,72.03 16.86,71.56 	"/>
	<path style="fill:#231815;" d="M21.94,78.99l0.14-0.1l-0.1-0.13C21.88,78.79,21.84,78.94,21.94,78.99z"/>
	<polygon style="fill:#231815;" points="10.41,65.4 10.5,65.38 10.78,65.17 	"/>
	
		<rect x="10.74" y="66.02" transform="matrix(-0.7946 0.6071 -0.6071 -0.7946 59.7387 111.8687)" style="fill:#231815;" width="0.4" height="0.04"/>
	<polygon style="fill:#231815;" points="15.72,72.17 15.48,72.3 15.48,72.35 15.73,72.23 	"/>
	<path style="fill:#231815;" d="M13.17,73.87c-0.92,0.57-1.7,1.3-2.65,1.92c-0.27,0.29-0.62,0.25-0.7,0.62
		c1.03-0.77,2.11-1.54,3.21-2.29L13.17,73.87z"/>
	<path style="fill:#231815;" d="M13.21,75.64c0.31-0.05,0.58-0.25,0.89-0.42l-0.17,0.01l0.01-0.06L13.21,75.64z"/>
	<polygon style="fill:#231815;" points="6.93,67.25 6.53,67.53 6.58,67.59 	"/>
	
		<rect x="7.4" y="68.47" transform="matrix(0.6743 0.7385 -0.7385 0.6743 53.541 17.0649)" style="fill:#231815;" width="0.06" height="1.51"/>
	
		<rect x="13.74" y="75.69" transform="matrix(-0.7726 0.6348 -0.6348 -0.7726 72.7041 125.3784)" style="fill:#231815;" width="0.32" height="0.04"/>
	<polygon style="fill:#231815;" points="13.4,75.97 13.03,76.22 13.06,76.25 13.44,76.01 	"/>
	<path style="fill:#231815;" d="M9.8,72.15l-0.03-0.03l-0.15,0.12l0.03,0.03c-0.57-0.01-1.26,1.05-2.1,1.18
		C8.45,73.73,9.13,72.77,9.8,72.15z"/>
	<path style="fill:#231815;" d="M13.04,78.59c-0.06-0.18,0.18-0.21,0.29-0.31l-0.29,0.13C13.03,78.47,12.98,78.56,13.04,78.59z"/>
	<path style="fill:#231815;" d="M15.06,80.43l0.01-0.14l-0.15,0.26c0.11-0.02,0.25-0.01,0.34-0.06
		C15.07,80.55,15.27,80.3,15.06,80.43z"/>
	<polygon style="fill:#231815;" points="11.99,78.7 11.95,78.65 11.7,78.82 11.72,78.85 	"/>
	
		<rect x="9.33" y="76.3" transform="matrix(0.6823 0.7311 -0.7311 0.6823 58.8465 17.4465)" style="fill:#231815;" width="0.04" height="0.26"/>
	
		<rect x="9.48" y="76.6" transform="matrix(0.6757 0.7372 -0.7372 0.6757 59.6981 17.9064)" style="fill:#231815;" width="0.04" height="0.41"/>
	<polygon style="fill:#231815;" points="13.84,86.33 13.92,86.39 14.12,86.2 14.04,86.14 	"/>
	<path style="fill:#231815;" d="M181.74,41.84c-0.34-1.54-2.47-2.5-3.46-3.71c1.96,0.58,3.88,1.38,5.72,2.2L183.63,40
		c0.32-0.71,1.77,0.36,2.62,0.32c-0.34-0.19-0.41-0.29-0.73-0.47c-0.32-0.73-1.72-0.7-2.18-1.35c0.06-0.45-0.4-1.03-0.03-1.37
		c-0.96-0.82-0.06-1.42-0.79-2.24c-0.38-0.42,0.13-0.59,0.52-0.6c0.38,0.01,0.41,0.32,0.73,0.31l0.03-0.09
		c-0.58-0.46-1.58-0.4-1.9-0.98l0.08-0.03c-1.68-0.63-3.96-1.64-5.78-2.6c-1.37-0.95-3.02-1.38-4.68-2.1
		c-3.12-0.83-6.76-2.44-9.62-3.7c-1.6-0.5-3.49-1.24-4.9-1.72c3.01,1.16,6.08,2.26,8.85,3.67l-0.26,0.06
		c-8.83-3.2-18.28-6.65-27.39-8.83c9,2.54,17.11,4.9,25.47,8.55c-0.82-0.14-1.84-0.46-2.62-0.64c-3.1-1.19-6.47-2.22-9.45-3.36
		c-6.48-2.15-13.09-4.03-19.83-5.56c-6.57-1.66-13.25-3-20.21-3.79c-6.18-0.68-12.37-0.53-18.53-0.89l-0.03-0.27
		c0.24,0.14,0.47,0.22,0.64,0.19c1.57-0.41,0.75-1.74-0.49-1.99c10.06-0.13,20.42,1.16,30.22,2.89c-0.02,0.03-0.11,0.03-0.19,0.02
		l0.02,0c0.13,0.12,0.62-0.08,0.99,0.12c-0.18,0.08-0.41-0.01-0.58-0.01c0.72,0.15,1.6,0.24,2.21,0.42
		c16.54,3.5,33.36,9.16,49.11,16.01l-0.11,0.02c1.43,0.33,2.89,1.12,4.43,1.65c-0.09-0.06-0.26-0.06-0.3-0.16l0.29-0.03
		c0.5,0.19,1.14,0.46,1.45,0.37c-0.08-0.27-0.3-0.14-0.48-0.34c0.24-0.09,0.67,0.21,0.87,0.24l-0.04-0.42
		c0.91-0.49,2.41,0.6,3.49,0.92c1.1-0.1,2.62,0.91,3.85,1.13c0.35,0.11,0.46,0.48,0.85,0.48c0.12-0.03,0.12-0.14-0.01-0.26
		c-1.81-0.39-3.56-1.83-5.08-2.91c-0.29-0.92-1.93-1.22-2.25-1.95l0.56,0.12c-1.14-0.53-2.53-1.06-3.5-1.79
		c-0.15-0.31,0.4-0.14,0.58-0.28c1.42,0.56,2.74,0.87,4.16,1.45l0.03-0.08c-0.73-0.37-1.61-0.53-2.21-1.07
		c0.27-0.39,1.16,0.25,1.55-0.04c2.3,0.83,4.52,1.89,6.7,2.71c0.68-0.18,1.12,0.6,1.84,0.5c-1.97-0.83-4.15-1.47-6.2-2.51
		c-1.15-0.52-2.42-1.01-3-1.85c-0.88-0.16-0.81-0.81-1.54-1.12c-0.04-0.12,0.14-0.12,0.23-0.17c1.21,0.37,2.54,1.03,3.68,1.39
		c0.42-0.08,0.91,0.2,1.37,0.31l-1.34-0.62l0.01-0.04c0.08-0.01,0.16-0.06,0.25,0c-0.81-0.27-1.84-1.07-2.98-1.46
		c-0.1-0.04-0.2-0.16-0.18-0.22c0.11-0.02,0.2-0.07,0.32,0.02l-0.05-0.06c0.07-0.12,0.22-0.23,0.49-0.17
		c1.64,0.29,3.49,1.47,5.07,1.71c-1.98-0.66-3.62-1.82-5.66-2.57c-0.37-0.32-1.04-0.47-1.22-0.84l0.51,0.09
		c-1.37-0.83-2.36-1.13-3.7-1.86c0.46-0.1,1.07,0.29,1.6,0.45c-2.58-1.17-4.88-1.94-7.36-3.03c-1.4-0.3-3.39-0.92-4.92-1.29
		c0.2,0.48-0.57,0.13-0.79,0.29c-5.25-1.46-10.48-3.73-15.78-5.07c5.58,1.74,11.15,3.87,16.8,5.6c0.52,0.34,1.44,0.53,1.61,0.97
		c-1.18,0.13-2.43-0.57-3.74-0.75l0.23,0.07c0.2,0.19,0.59,0.35,0.54,0.57l-1.66-0.48l0.96,0.3c0.92,0.75,3.33,0.93,3.89,2.19
		c0.49,0.18,1.07,0.39,1.34,0.71c-11.2-3.63-21.55-7.64-32.55-10.44c-13.51-3.8-28.13-5.65-42.09-6.1c1.65,0.1,3.29,0.23,4.93,0.38
		l-8.4-0.26l-0.28-0.08c0.43,0.05,0.87,0,1.27-0.21c0.74-0.46-0.39-0.72-1.36-0.83l-0.05-0.58c0.64,0.08,1.24,0.02,1.39-0.37
		c0.13-0.39-0.63-0.51-1.46-0.52L91.8,1.62c10.08,0.37,20.57,1.02,30,2.72l0,0.04c9.22,1.63,18.49,4.01,26.93,6.63
		c-3.93-1.23-7.25-2.28-11.28-3.3c-15.03-4.04-30.06-5.83-45.93-6.25l0.04,0.3c-0.32,0-0.64,0.02-0.91,0.04
		c-1.21,0.06-0.1,0.63,1.02,0.82l0.07,0.59c-0.3-0.03-0.57-0.04-0.74-0.04l-0.55,0.03c0.06,0.49,0.68,0.92,1.4,1.06l0.02,0.14
		c-0.06-0.01-0.12-0.02-0.18-0.02l0-0.03c-7.05-0.03-14.63,1.15-21.65,1.9c-0.78,0.24-1.72,0.32-2.55,0.44l0.18,0.06
		c0.55-0.04,1.23-0.15,1.65-0.1c-0.38,0.26-1.1,0.23-1.47,0.21l0.49,0.16c0.69,0.24,1.19-0.28,1.89-0.32l-0.72-0.08
		c0.32-0.19,1.15-0.33,1.64-0.26l-0.41,0.16c0.08,0.01,0.6-0.13,1.02-0.1l-0.17-0.07c0.06-0.05,0.08-0.13,0.23-0.14
		c0.04,0.01,0.12,0.04,0.09,0.09c0.29-0.18,0.65-0.08,0.98-0.11c-0.03,0.05-0.07,0.07-0.11,0.09c0.35-0.08,0.7-0.15,1.13-0.14
		c-0.03,0.02-0.06,0.07-0.13,0.06c0.82-0.12,1.72-0.4,2.46-0.37c-0.03,0.02-0.1,0.07-0.05,0.11l0.68-0.08
		c-0.11,0.01-0.21,0.03-0.26-0.03l0.07-0.05c0.66,0.17,1.71-0.47,2.37-0.08c0.18-0.04,0.47-0.01,0.49-0.11
		c0.31-0.29,1.13-0.22,1.7-0.32c1.04,0.49,2.02-0.36,3.15-0.19c0.77,0.03,1.82-0.23,2.69-0.03c-2.72,0.51-5.36,0.43-8.25,0.86
		c-1.03,0.14-2.24,0.01-3.1,0.44l0.18-0.02c0.04,0.02,0.12,0.02,0.12,0.06c-0.3,0.14-0.81,0.15-1.04,0.1
		c-0.55,0.35-1.27,0.08-1.83,0.22L73.1,6.87c-1.42,0.23-3.03,0.44-4.48,0.57L68.4,7.58c-3.18,0.45-6.52,0.96-9.59,1.86l0.06-0.05
		c-2.42,0.67-5.15,1.03-7.65,1.82c-0.14,0.04-0.37,0.02-0.3-0.1l-10.17,2.93l0.27-0.2c-1.56,0.48-3.34,1.07-4.94,1.39
		c0.25-0.24,0.93-0.3,1.26-0.54c-0.31,0.09-0.63,0.27-0.9,0.27c0.31-0.26,0.69-0.4,1.12-0.41l-0.04,0.08
		c4.97-1.89,10.65-3.04,15.54-4.4c1.38-0.42,2.62-0.57,3.73-0.88c-0.14-0.09-0.52,0.17-0.54-0.03l-1.98,0.45l0.9-0.37
		c-0.44-0.06-1.5,0.28-2.25,0.43c-0.23,0.22-0.95,0.35-1.39,0.41c0.01-0.08,0.19-0.09,0.3-0.12c-0.26-0.09-0.96,0.32-1.43,0.39
		c0.05-0.08,0.15-0.1,0.26-0.13c-4.54,1.16-8.39,2.13-12.81,3.51c-1.75,0.69-3.68,1.01-5.15,1.87l0.32,0.09
		c-0.29,0.15-0.18,0.2-0.23,0.35c-0.25-0.03-0.92,0.43-0.81,0.06c-0.76,0.5-1.89,0.59-2.47,1.11c0.1-0.04,0.19-0.1,0.25-0.06
		c-0.3,0.28-0.76,0.25-1.15,0.37c-0.16,0.48-1.13,0.39-1.36,0.58l0.09,0.02l-0.17,0.22c-0.23,0.03-0.58,0.21-0.74,0.06l0.06,0.12
		c-0.26,0.27-0.7,0.29-1.04,0.42l0.05-0.28l-0.18,0.28c-0.37-0.01-1.02,0.76-1.79,0.87c-0.84,0.56-1.91,0.29-2.65,1.09
		c-0.62,0.01-0.89,0.56-1.5,0.51c0.03,0.05,0.06,0.1-0.03,0.17c-0.56,0.34-0.97,0.21-1.4,0.69c-0.46-0.13-1.05,0.71-1.46,0.58
		c-0.04,0.07-0.07,0.17-0.17,0.2l2.06-0.92c3.8-1.42,7.49-3.47,11.4-4.61c2.76-0.76,5.72-1.81,8.44-2.34
		c-0.07,0.11-0.19,0.2-0.37,0.24l0.04,0.09c-1.13,0.55-2.31,0.55-3.49,1.08c-1.38-0.07-2.85,1.03-4.36,1.29l0.04,0.24
		c-1.97,0.64-3.93,1.38-5.87,2.03c-0.66,0.74-1.86,0.42-2.61,1.15c-1.84,0.54-3.72,1.56-5.55,2.48c-0.43,0.27-0.74,0.79-1.32,0.8
		c-0.37,0.42-1.13,0.37-1.55,0.45c-0.02-0.03,0.05-0.07,0.1-0.1l-0.09-0.02c0.05-0.19,0.36-0.37,0.57-0.58l-0.19-0.1
		c-0.77,0.48-2.04,0.65-2.23,1.48C9.69,27.05,7.72,28,5.97,29.1c-0.86,0.22-1.89,0.96-2.32,1.54c0.16,0.34-0.02,0.88,0.45,1.05
		c1.58,0.34,3.77-1.2,5.7-1.92c3.99-1.27,8.55-3.85,12.35-5.11c0.61-0.07,0.87-0.39,1.35-0.71l0.13,0.09l0.96-0.6
		c0.32-0.15,0.79,0.12,0.97-0.29c0.49-0.2,0.95-0.69,1.37-0.51l0.11-0.16c0.1-0.04,0.2-0.09,0.26-0.05
		c-0.02,0.03-0.08,0.08-0.02,0.12c0.12-0.14,0.4-0.37,0.61-0.27l-0.01-0.17c0.14-0.04,0.31-0.18,0.42-0.12l-0.05,0.06L29,21.81
		l0.02,0.04c0.5-0.19,1.23-0.54,1.76-0.59c-0.31,0.17-1.01,0.34-1.26,0.64c-2.97,1-6.37,2.67-9.48,4.06
		c-0.06-0.04-0.23,0.03-0.24-0.06c-0.74,0.55-1.6,0.69-2.46,1.32c2.34-0.97,4.98-2.11,7.38-3.15l0.66-0.04l-0.11,0.16
		c-1.3,0.55-2.6,1.11-3.89,1.69c0.08,0.27-0.39,0.24-0.58,0.33c0.02-0.1,0.24-0.14,0.36-0.22l-1.14,0.53
		c0.04-0.02,0.09-0.04,0.12-0.03c0,0.07,0.04,0.13-0.03,0.23c-1.33,0.58-2.66,1.17-3.98,1.78l-0.03-0.05
		c-0.95,0.28-1.46,0.78-2.21,0.92c-0.26,0.19-0.99,0.23-0.98,0.5c-0.58,0.14-1.54,0.55-2.01,0.8l-0.02-0.03
		c-0.61,0.23-1.98,0.67-1.83,0.95c0.55-0.07,1.1-0.46,1.64-0.61c0.79-0.28,1.98-0.85,2.38-1.19c1.21-0.2,2.97-1.24,4.22-1.69
		c0.84-0.04,1.76-0.75,2.64-0.86c0.07,0.05-0.02,0.17-0.07,0.23c-4.64,2.26-9.92,4.44-14.35,6.78c0.29-0.09-0.02,0.15,0.14,0.19
		c2.96-1.52,6.21-2.85,9.25-4.41c1.55-0.82,2.96-1.07,4.38-2.04c1.32-0.45,2.69-1.08,3.78-1.71c3.79-1.75,7.49-2.97,11.45-4.32
		l0.21,0.02c8.67-2.55,16.98-4.4,25.66-5.56l0.08-0.1c0.8-0.1,1.38-0.11,2.17-0.2c0.52,0.07,0.97-0.39,1.42-0.16
		c-0.78,0.26-1.95,0.45-2.89,0.68c-11.58,1.51-23.31,4.21-34.1,8.71c-0.1,0.54-1.19,0.71-1.76,0.98c0.31-0.3,1.11-0.43,1.2-0.77
		c-0.23,0.3-0.74,0.17-0.9,0.46c-0.04,0-0.12,0.01-0.1-0.04c-1.27,0.5-2.73,0.98-3.75,1.57l0.77-0.33c0.47-0.08,1.43-0.8,1.42-0.24
		l-1.38,0.6l0.05,0.08c-0.4,0.07-0.83,0.45-1.2,0.43l0.01-0.02c-1.8,0.81-4.47,2-6.5,2.76l0.17,0.07c-0.47,0.24-0.71,0.45-1.16,0.52
		l0.02-0.03c-0.24,0.18-0.56,0.24-0.79,0.37c0.01-0.05,0.02-0.1,0.12-0.14c-0.03-0.05-0.61,0.28-0.79,0.33
		C11,32.56,9.4,33.32,8.01,34.09l1.16-0.54l-0.04,0.07c1.76-0.7,3.53-1.37,5.3-2c-0.21,0.25-0.6,0.29-0.87,0.44
		c-1.26,0.68-2.55,1.27-3.7,1.86c0.29-0.2,0.56-0.05,0.52,0.13c-2.27,1.11-4.52,2.3-6.76,3.52l-0.15,0.38
		c-0.8,0.29-0.32,0.9-1.18,1.11l0.23,0.13c1.81-0.69,3.66-1.63,5.49-2.41c-0.03,0.14-0.21,0.18-0.32,0.27
		c-0.96,0.74-1.58,0.71-2.17,1.26c3.44-1.88,6.99-3.42,10.43-4.99c1.96-0.9,4.01-1.88,5.88-2.55l-0.07,0.08
		c1.07-0.47,2.33-1.11,3.45-1.42c-0.46,0.3-1.09,0.65-1.56,0.86c-0.23,0.02-0.32,0.07-0.46,0.23c-4,2-8.8,3.76-12.8,5.61l0.41-0.13
		c0.85-0.35,1.94-0.82,2.58-1.03c1.61-0.86,3.57-1.49,5.36-2.3c-0.29,0.31-0.72,0.34-1.09,0.58l0.03,0.05
		c1.12-0.53,2.24-1.05,3.37-1.56l3.15-1.3c0.02,0.03-0.02,0.1-0.04,0.13c0.57-0.3,1.15-0.53,1.7-0.66c-0.65,0.5-1.53,0.62-2.2,0.95
		c0.02-0.04,0.05-0.07,0.09-0.09c-0.17,0.11-0.16,0.29-0.46,0.27l0.07-0.08c-1.03,0.6-1.92,0.89-3,1.36l2.61-1.01
		c-1.24,0.77-2.63,1.24-3.75,2.14c-2.41,1.02-4.98,2.12-7.19,3.2l0.15,0.03c1.15-0.49,2.31-0.97,3.46-1.44
		c-1.77,0.9-3.67,1.85-5.5,2.7l0.06,0.08l-0.15,0.09c1.56-0.88,3.29-1.48,4.94-2.19l-0.15,0.2l0.41-0.23
		c0.56-0.2,1.27-0.73,1.67-0.61c0.1-0.03,0.22-0.17,0.3-0.1l-0.04,0.07c-0.19,0.15-0.38,0.16-0.56,0.2l0.07-0.08l-0.48,0.31
		l0.32-0.06c-0.41,0.3-1,0.69-1.5,0.8c0.2-0.18,0.36-0.38,0.62-0.53l-0.9,0.42c0.14-0.03-0.14,0.22-0.31,0.27l0.2,0.12
		c-0.47,0.22-1.11,0.78-1.64,0.79c0.18-0.22,0.52-0.33,0.76-0.45l-0.08-0.12c-0.1-0.21,0.26-0.1,0.41-0.3l-0.11,0.02
		c-0.3,0.1-0.98,0.43-0.89,0.57c-0.16,0.12-0.32,0.14-0.47,0.16c-0.02-0.08,0.16-0.12,0.24-0.19c-0.49,0.24-1,0.46-1.19,0.54
		l0.7-0.25c-0.4,0.19-0.75,0.58-1.25,0.58c-0.01-0.06,0.08-0.12,0.17-0.17c-1.77,0.67-3.26,1.69-5.03,2.41l1.01-0.42
		c-0.18,0.28-0.85,0.46-0.84,0.54l1.58-0.61c-0.44,0.37-1.36,0.68-1.59,0.83l2.62-0.98c-0.48,0.32-1.2,0.73-1.67,1.06
		c1.42-0.49,3.28-1.72,4.84-2.32c-0.34,0.22-0.92,0.76-1.29,0.82l0.09,0.01c-0.93,0.56-1.78,0.93-2.8,1.39l1.64-0.51
		c-0.18-0.03,0.23-0.26,0.43-0.38c0.71-0.11,1.24-0.94,2.11-1.05c0.05-0.1-0.14-0.15,0.12-0.24c0.07-0.02,0.14-0.04,0.13,0.01
		l1.08-0.54c-0.03,0.01-0.06,0.03-0.08,0.02l0.05-0.1c-0.4,0.14-0.85,0.5-1.18,0.42c0.64-0.5,1.72-0.78,2.61-1.33
		c1.56-0.34,3.29-1.38,4.9-1.78c1-0.62,2.14-0.87,3.24-1.4c0.39-0.13,0.61-0.28,0.89-0.33c-1.88,0.95-3.47,1.77-5.34,2.59
		c0.01,0,0.03-0.01,0.04-0.01c-2.85,1.63-5.72,2.42-8.38,3.89c1.11-0.5,2.23-0.98,3.34-1.45c-0.75,0.58-1.71,0.78-2.43,1.34
		c-0.51,0.26-1.38,0.5-1.52,0.77c-0.99,0.64-1.45,0.98-2.54,1.5l0.06,0.08c1.68-0.74,3.35-1.64,5.06-2.25
		c-1.1,0.94-2.69,1.36-3.81,2.17c0.33,0,0.75-0.4,0.94-0.25c0.13-0.06,0.44-0.37,0.66-0.29l-0.46,0.74
		c0.27-0.08,0.14,0.08,0.14,0.19c-0.51,0.32-1.34,0.6-1.55,0.99c1.23-0.59,2.99-1.97,3.97-1.61c-0.15,0.19-0.59,0.2-0.74,0.45
		c0.41-0.23,0.82-0.34,1.22-0.46c-1.48,0.9-3.13,1.73-4.42,2.61c1.68-0.63,3.34-1.9,5.03-2.54l0.06,0.08
		c-0.44,0.36-1.06,0.74-1.61,0.98c-0.12,0.3-0.49,0.48-0.83,0.64c0.17-0.07,0.33-0.13,0.49-0.15l-0.02,0.08l-3.8,2.09
		c0.46-0.16,1-0.66,1.53-0.72c-0.72,0.46-2.09,1.4-2.4,1.54l0.2-0.01C5.42,47.59,3.48,48.62,2,50c-0.42,0.89-1.7,1.54-2,2.45
		c0.16,0.28-0.06,0.83,0.47,0.79c1.35-0.36,2.7-0.22,4.04-1.19c2.37-1.92,4.83-3.08,7.31-4.51l0.33-0.04l-0.03,0.07
		c0.22,0.03,0.69-0.53,0.63-0.17c-0.04,0-0.09-0.01-0.17,0.04c-0.55,0.33-1.21,0.63-1.71,0.94l1.12-0.32
		c0.08-0.33,0.73-0.63,1.11-0.83l-0.31,0.07l0.03-0.07c0.26-0.35,0.8-0.43,1.1-0.46l-0.03,0.07c0.4-0.16-0.08-0.11,0.25-0.32
		c3.34-1.9,6.79-3.6,10.23-4.46c-2.98,1.46-4.83,3-7.77,4.4l-0.02-0.03c-2.17,1.07-4.71,2.7-6.9,3.94l-0.61,0.58
		c0.9-0.51,1.91-1.03,3.02-1.72c0.19-0.12,0.63-0.17,0.58,0.03c-0.13,0.04-0.14,0.14-0.22,0.19l0.65-0.13
		c-0.24,0.27-0.74,0.29-0.96,0.62c0.49-0.2,0.83-0.42,1.26-0.7c0.9,0.16,1.54-0.58,2.49-0.71c0.95-0.58,2.07-0.84,3.11-1.38
		c-0.11,0.29,0.53-0.06,0.36,0.25l-2.3,1.09c-0.9,0.36-2.18,1.13-2.75,1.35l0,0.11c1.38-0.73,2.76-1.35,4.15-1.87
		c0,0.03-0.05,0.07-0.12,0.11c1.31-0.48,2.81-1.34,4.22-1.8c-1.34,0.93-2.8,1.44-4.17,2.28c-2.36,1.44-5.29,2.95-7.62,4.5
		c0.51-0.21,1.37-0.68,1.52-0.95c0.06-0.02,0.13-0.04,0.14,0.03c2.72-1.49,5.33-3.12,7.82-4.18l-0.26,0.06
		c0.62-0.43,1.46-0.79,2.11-0.77c-1.06,0.71-2.96,1.13-3.11,2.19c-2.67,1.17-5.2,2.95-7.65,4.01c2.01-0.5,3.97-1.77,5.99-2.57
		c-1.13,0.75-2.58,1.56-3.79,2.08c0.04-0.01,0.08-0.03,0.13-0.04c-0.9,0.92-2.47,1.72-3.37,2.5c0.02,0.08-0.13,0.28-0.3,0.21
		l0.05-0.08l-0.41,0.33l0.06,0.08l0.36-0.25l0.04,0.05c0.01,0.06-0.08,0.1-0.15,0.16l0.82-0.41c0.79-0.24,1.64-0.91,2.4-0.99
		l-2.53,1.78l2.62-1.55l0.05,0.06l-2.39,1.63c1.92-1.34,3.96-2.21,5.85-3.41c1.53-0.58,2.74-1.4,4.17-1.86c-0.03,0-0.05,0-0.08,0.01
		c0.27-0.2,0.69-0.34,1.04-0.42c-0.37,0.44-0.94,0.69-1.43,0.89l0.16,0.02l-0.05,0.15c-0.14,0.18-0.71,0.15-0.35,0.14
		c0.02,0.03-0.01,0.1-0.02,0.13c-0.95,0.61-2.07,0.93-2.87,1.65h-0.19c-0.02-0.03,0.02-0.08,0.03-0.12l-0.37,0.12l0.14,0.2
		c-1.82,1.13-3.74,2.03-5.45,3.27c-0.48,0.67-1.47,0.89-2.19,1.56c0.09,0.55-0.73,0.6-0.96,0.95c0.26-0.07,0.46-0.34,0.72-0.41
		c-0.53,0.84,0.27,0.52,0.8,0.64c0.34-0.1,0.68-0.55,1.02-0.57c0.04,0.09-0.12,0.14-0.18,0.21c0.21-0.17,0.43-0.19,0.66-0.18
		c2.87-1.86,5.84-3.69,8.83-5.09l-0.38,0.46c0.28-0.08,0.54-0.33,0.79-0.39l-0.17,0.01c0.02-0.13,0.11-0.21,0.25-0.27
		c0.07-0.06,0.18-0.06,0.19,0c-0.02-0.24,0.36-0.22,0.57-0.34c1.94-0.72,4-1.86,5.9-2.37c0.09,0.04,0.02,0.15-0.01,0.21
		c-0.38,0.18-0.97,0.3-1.16,0.63c0.12,0.19,0.34-0.19,0.5-0.05c-1.6,0.83-2.96,1.54-4.52,2.42c1.5-0.61,3.02-0.89,4.52-1.56
		c-0.99,0.88-2.62,1.58-3.64,1.98l0.35-0.11l-0.07,0.16c0,0.05-0.13,0.19,0.08,0.12c0.06,0.03,0.02,0.08,0,0.11l0.33-0.03
		c0.75-0.64,1.39-0.25,2.16-0.58l-0.49,0.44c-1.37,0.49-2.66,1.27-4.1,1.78l0.07-0.16l-0.96,0.59c0.59,0.07,1.62-0.77,2.46-0.9
		c-0.58,0.51-1.32,0.73-1.99,1.21c1.45-0.6,2.59-1.76,4.11-1.95c-0.83,0.62-1.65,0.92-2.47,1.39c-0.77,0.54-1.62,0.71-2.11,1.3
		c-1.51,0.67-2.99,1.77-4.47,2.59c0.13,0.03-0.18,0.29-0.29,0.44c2.05-1.38,3.92-2.24,6.02-3.58c0.88-0.38,2.14-0.49,2.63-1.02
		c-0.35,0.11-0.91,0.38-1.02,0.16l1.93-0.81c0.16,0.36-0.54,0.36-0.71,0.57c0.93-0.23,2.16-0.97,3.36-1.25c-0.99,0.62-2.3,1-3.2,1.5
		c1.04-0.41,2.09-0.81,3.15-1.2l0.03,0.05c-0.72,0.49-1.51,0.62-2.11,1.24c0.43-0.09,1.28-0.64,1.32-0.25
		c0.36,0.25,0.75-0.17,1.13-0.16c1.08-0.51,2.23-0.95,3.24-1.47c0.52-0.14,1.05-0.1,1.57-0.47c0.25-0.08,0.38,0.03,0.44,0.2
		l-0.85,0.48c-1.51,1.12-3.16,1.28-4.71,2.33c1.29-0.27,2.69-1.01,4.03-1.45l-0.05,0.14l-2.1,1.08c0.07,0.01,0.18-0.03,0.2,0.05
		c-0.72,0.3-1.58,0.66-2.36,0.93l0.09-0.01c-0.43,0.13-0.74,0.7-1.24,0.62c0.13,0.15-0.35,0.3-0.33,0.39l0.93-0.2l-0.23,0.02
		c0.75-0.48,1.66-0.47,2.49-0.82c-0.19,0.4-0.74,0.32-0.99,0.62l2.52-1.12c-0.01,0.03-0.04,0.09-0.1,0.1l2.19-1
		c2.16-0.05,4.17-1.51,6.39-2.11l0.37-0.02c-0.58,0.42-1.43,0.57-1.9,0.89l2.35-0.87l0.47-0.02c-0.63,0.45-1.59,0.62-2,0.99
		l0.27-0.04l-0.23,0.28l0.19,0.06l-0.01-0.15l0.24-0.03L39,56.31c1.31-0.47,2.63-0.93,3.95-1.36l0.02,0.04
		c-0.83,0.68-2.02,0.73-3.03,1.35l0.18-0.08c0.15-0.13,0.33,0.03,0.27,0.09c-0.56,0.32-1.09,0.39-1.65,0.72l1.16-0.39l0.02,0.04
		c-1.22,0.56-2.56,1.4-3.83,1.99l0.08,0.14l0.85-0.42c0.28,0.11,0.45,0.13,0.88,0.1c-2.12,1.05-4.43,1.95-6.48,3.17l-0.24,0.36
		c-1.69,0.85-3.48,1.96-5.21,2.76c-0.57,0.24-1.19,0.76-1.7,0.9c-3.55,2.1-6.85,3.78-10.13,6.08l-1.19,1.04l0.13,0.15
		c-0.21,0.3-0.44,0.36-0.62,0.68c2.93-1.74,5.85-3.87,9.04-5.57c2.32-1.23,4.54-2.73,7.1-3.75l0-0.16c0.72-0.36,1.48-0.81,2.11-0.83
		c-0.01,0.09-0.13,0.1-0.19,0.16c-1.1,0.78-2.31,1.29-3.53,2.08l-0.22,0.02c0.01-0.03,0.05-0.08-0.01-0.11l-0.64,0.58
		c-3.53,1.98-6.8,4.14-10.21,6.44l0.2-0.05c-0.43,0.37-0.99,0.74-1.51,1c0.09-0.09,0.16-0.24,0.27-0.33
		c-0.31,0.13-0.67,0.4-0.93,0.63c-0.02-0.06,0.04-0.11,0.11-0.16c-0.12,0.15-0.27,0.14-0.38,0.26l0.07,0.08
		c-0.44,0.27-1.14,0.72-1.12,1.14c0.71,0.36,1.45-0.43,2.13-0.86c0.42,0.04,0.85-0.44,1.29-0.66l-1.39,0.66
		c4.82-3.86,10.04-6.37,15.59-9.4c1-0.51,1.81-1.03,2.9-1.28l-0.05-0.09c0.46-0.29,1.08-0.76,1.62-0.75l0.14,0.24l0.12-0.06
		c0.09-0.01,0.1,0.06,0.12,0.09c1.17-0.37,2.38-1.29,3.49-1.29c-0.86,0.64-2.26,1.04-3.13,1.75l-0.02,0.12
		c0.62-0.34,1.2-0.63,1.91-0.76c2.54-1.02,5.1-1.96,7.69-2.82c0.49-0.1,0.82-0.42,1.32-0.37l-0.02,0.07
		c1.02-0.36,2.05-0.72,3.08-1.06c3.16-1.07,6.64-1.83,10.01-2.49l0.32-0.24c1.54-0.32,2.78-0.53,4.18-0.74
		c2.2-0.47,4.84-0.52,7.26-1.12c7.84-0.88,16.69-2.02,25.02-1.46l-0.01-0.15c0.11-0.01,0.22-0.03,0.32-0.06l0.01,0.15
		c3.15,0.13,6.28,0.45,9.26,0.71c8.27,0.55,16.51,2.82,24.57,4.88c4.41,1.28,8.78,2.74,13.11,4.36l0.72,0.2
		c-0.31-0.13-0.15-0.33-0.22-0.51l-2.72-0.98c-1.13-0.93-3.01-0.83-4.09-1.76c-7.07-2.73-15.3-4.34-22.63-5.96
		c-6-0.97-12.03-1.59-18.06-1.83l0,0.05c-0.1,0.01-0.21,0.03-0.32,0.05l-0.01-0.15l-0.04-0.61l-0.01-0.09
		c0.09,0,0.17-0.01,0.24-0.03l0.01,0.07l0.08,0c0.41,0.05,0.77,0.04,1.12-0.03c8.45,0.21,16.89,1.43,25.03,3.57l0.56,0
		c3.8,0.94,7.87,1.65,11.48,3.08c1.32,0.17,2.72,1.27,3.88,0.98c1.51,0.65,3.16,1.22,4.72,1.87l-0.34-0.89
		c1.33-0.44,3.03,0.46,4.51,0.78c2.53,0.56,5.45,2.04,8.04,2.66c1.38,0.93,3.18,1.49,4.86,2.19l0.3,0c2.33,1.01,4.65,2.07,6.96,3.17
		l-0.19-0.23l-3.17-1.53c0.25-0.12-0.18-0.28-0.37-0.33c-0.2-0.46-1.02-0.52-1.36-0.95c0.56-0.06,1.08,0.35,1.6,0.42l-1.23-0.47
		c-0.83-0.02-1.67-0.66-2.37-1.1c-1.92-0.82-4.05-1.61-6.02-2.47l-0.26-0.34l0.24-0.11c2.3,1.06,4.95,1.93,7.19,2.98
		c0.35-0.16,0.88,0.33,1.28,0.23c1.56,0.66,3.33,1.33,4.66,2.26l0.32-0.04c-1.02-0.72-2.58-1.21-3.49-2.09
		c-2.24-1.17-4.25-2.29-6.67-3.12c-0.55-0.66-1.2-0.58-1.88-1.11c-1.99-0.65-3.65-1.6-5.49-2.37c-0.68-0.57-2.45-0.9-2.2-1.94
		c1.13,0.12,2.22,1.05,3.29,1.03c-1.52-0.64-3.04-1.26-4.57-1.86l-0.15-0.23c0.37-0.45-0.9-0.71-0.53-1.14
		c0.14-0.33,0.51-0.56,1.01-0.62c0.49-0.05,0.91,0.45,1.33,0.19c-0.14-0.18-0.18-0.36-0.11-0.53c0.44-0.35,1.14-0.25,1.75-0.29
		c0.41-0.81,1.74-0.18,2.67-0.26c0.64,0.11,1.41,0.34,1.84,0.77c0.75,0.05,1.39,0.85,2.13,0.59c1.65,0.55,3.09,1.3,4.56,1.74
		l0.02-0.06c-1.49-0.58-2.98-1.36-4.6-1.94l-0.22-0.22c-2.25-0.96-4.67-1.62-6.76-2.75c0.01-0.29-0.67-0.24-0.68-0.59
		c0.07-0.04,0.16-0.02,0.24,0.01l0.01-0.04l-0.23-0.07l-0.01,0.04c-0.08-0.04-0.04-0.09-0.03-0.15c0.08-0.06,0.22-0.02,0.32-0.05
		c-0.15,0-0.19-0.1-0.26-0.18l1.01,0.11c2.16,0.78,4.34,1.97,6.67,2.87c0.78,0.09,1.41,0.8,2.18,0.69l-0.31-0.21l0.17-0.05
		c1.1,0.48,2.45,0.85,3.45,1.32c2.15,0.69,4.34,1.96,6.53,2.66c-3.92-1.89-7.65-3.44-11.54-5c0.02-0.06,0-0.12,0.09-0.11
		c-4.11-1.32-7.56-3.18-11.44-4.57l-0.2-0.22l0.84,0.19c-0.28-0.12-0.74-0.08-0.87-0.38l0.07-0.04c-0.98-0.43-2.79-0.48-3.23-1.36
		c1.36,0.07,3.07,0.68,4.29,0.97c-1.98-0.76-4.08-1.38-5.95-2.21c2.13,0.54,4.38,1.39,6.22,1.93c-3.08-1.1-6.18-2.12-9.31-3.07
		l-0.19-0.14c2.4,0.55,4.76,1.21,7.03,1.96c0.6-0.23,1.32,0.28,1.97,0.42l0.03-0.13c2.15,0.76,4.48,1.47,6.82,2.31
		c-0.92-0.3-1.91-0.7-2.8-1.12l0.05-0.19c2.11,0.28,4.53,1.56,6.91,2.24c0.62,0.6,1.73,0.78,2.54,1.25c0.56,0.89,1.5,1.52,2.61,2.13
		c-0.8,0.47,0.82,0.9,0.51,1.49c0.18,0.32,0.76,0.38,1.03,0.52c2.35,0.93,4.73,2.04,7.08,3.2c-0.98-0.74-2.72-1.17-3.33-2.14
		c0.1-0.01,0.22,0.03,0.33,0.08c-0.36-0.26-1.17-0.35-1.02-0.79c0.01-0.13,0.11-0.12,0.22-0.08c-0.16-0.09-0.15-0.24-0.09-0.34
		c0.16-0.07,0.37-0.02,0.57,0.05c-0.15-0.33-0.47-0.83-0.02-1.05c0.28-0.36,1.42,0.33,1.9,0.53l-0.08-0.24
		c0.39-0.1,0.86,0.21,1.25,0.2c0.36,0.25,0.6,0.6,1.13,0.71l0.03-0.09l-1.85-1.36c0.04-0.2-0.63-0.61-0.26-0.76
		c-0.03-0.2-0.61-0.2-0.55-0.47c-0.78-0.17-1.67-0.77-2.04-1.33c0.15-0.07,0.34-0.06,0.53,0.05c0.6-0.26,1.81,0.57,2.44,0.62
		c0.02-0.07-0.01-0.17-0.01-0.26c0.49-0.11,1.14,0.17,1.63,0.45c0.92,0.07,1.74,0.59,2.59,0.88c0.94,0.3,1.57,0.82,2.4,1.22
		c0.27-0.03-0.03-0.27-0.11-0.41c-0.2-0.08-0.4-0.15-0.57-0.13c-1.28-0.71-2.49-1.36-3.82-1.83c-0.48-0.3-0.79-0.74-1.48-0.89
		c-0.23-0.28-0.39-0.6-0.29-0.79c-0.18-0.24-0.73-0.35-1.05-0.56c-0.22-0.13-0.82-0.38-0.53-0.56c0.17,0.07,0.36,0.18,0.5,0.15
		c0.07-0.4-0.98-0.37-0.79-0.66c-1.87-0.95-4.13-1.93-5.93-2.2l-0.12-0.15c-0.28,0.07-0.73-0.15-0.98-0.29l0.23,0.04
		c-0.18-0.09-0.37-0.24-0.54-0.08c-0.52-0.53-1.54-0.46-2.21-0.95c0.7,0.15,1.18,0.37,1.92,0.6l-7.7-2.85l-0.32-0.26l0.08-0.06
		l-1.29-0.34c-3.84-1.41-7.93-2.79-11.91-3.85l0.64,0.29c-1.8-0.52-3.77-0.98-5.54-1.73l0.08-0.02l-0.95-0.33
		c3.14,0.71,6.18,1.62,9.2,2.54c0.31-0.11,0.46,0.05,0.83,0.1l-0.5-0.21c0.14-0.09,0.63,0.2,0.54-0.03
		c2.46,0.91,5.42,1.47,7.61,2.25l0.02-0.1c0.27,0.35,1.31,0.3,1.92,0.67l-0.01,0.04c-0.03,0.01-0.05,0.01-0.07,0.01l0.22,0.08
		c-0.04-0.02-0.07-0.04-0.09-0.08c0.08-0.06,0.21,0.04,0.31,0.05c0.03,0.03,0.08,0.08,0.04,0.11c3.61,1.23,7.17,2.72,10.57,4.17
		c0.74,0.23,0.46,0.86,1.24,1.06c1.42,0.66,3.07,1.08,4.39,1.65l0.19-0.07c1.41,0.47,2.7,1.14,3.74,1.66
		c-0.65-0.44-0.74-1.2-1.71-1.48c-0.36-0.29-1.21-0.6-1-0.95l0.06,0.02l-0.26-0.21l0.99,0.18l-0.29-0.11
		c-0.39-0.5-1.29-0.78-1.89-1.25c0.06,0,0.11-0.02,0.16,0.02l-0.47-0.28c0.83,0.17,1.9,0.62,2.73,0.91l0.07-0.01
		c-0.22-0.13-0.39-0.32-0.57-0.48c0.77-0.04,1.64,0.22,2.4,0.44c-0.55-0.24-1.3-0.48-1.48-0.84c0.18-0.04,0.37,0.1,0.52,0.14
		c-0.54-0.36-1-0.48-1.54-0.86c0.23-0.19,0.67,0.09,0.91,0.16l-0.1,0c0.14-0.03,0.31,0.08,0.45,0.14l-0.51-0.37
		c0.04-0.03,0.17,0,0.16-0.09l-1.43-0.71c-0.33-0.21-0.85-0.34-0.99-0.63c0.76,0.2,1.19,0.41,2.08,0.76
		c0.33-0.11,0.77,0.09,1.18,0.25l-0.41-0.67c0.44-0.42,1.48,0.07,2.23,0.23c0.65-0.34,1.73,0.73,2.06,0.37
		c1.36-0.15,2.82-0.24,3.46-1.07c0.96,0.28,1.84,0.38,2.83,0.85c0.48,0.19,0.94,0.7,1.43,0.57c0.04-0.09,0.04-0.18-0.06-0.29
		C184.31,43.05,183.11,42.01,181.74,41.84z"/>
</g>
</svg>
