<?xml version="1.0" encoding="utf-8"?>
<!-- Generator: Adobe Illustrator 16.0.0, SVG Export Plug-In . SVG Version: 6.00 Build 0)  -->
<!DOCTYPE svg PUBLIC "-//W3C//DTD SVG 1.1//EN" "http://www.w3.org/Graphics/SVG/1.1/DTD/svg11.dtd">
<svg version="1.1" id="图层_1" xmlns="http://www.w3.org/2000/svg" xmlns:xlink="http://www.w3.org/1999/xlink" x="0px" y="0px"
	 width="77.74px" height="77.72px" viewBox="0 0 77.74 77.72" style="enable-background:new 0 0 77.74 77.72;" xml:space="preserve"
	>
<g>
	<path style="fill:#231815;stroke:#231815;stroke-width:0.0322;stroke-miterlimit:3.8636;" d="M69.25,16.26
		c1.91,2.48,3.71,5.91,4.84,8.81c-0.09-0.3-0.48-1.32-1.01-2.45c-0.52-1.13-1.19-2.36-1.67-3.17c0.14,0.2-0.23-0.44-0.09-0.24
		l0.44,0.76c0.56,0.97,1.07,1.97,1.15,2.07c-0.5-1.07-1.37-2.67-2.26-4.02c-0.88-1.36-1.76-2.5-2-2.86
		c0.31,0.39,0.63,0.77,0.92,1.17c-1.83-2.62-4.41-5.4-7.47-7.77c-0.43-0.39-0.97-0.85-1.63-1.35c5.92,4.01,10.71,9.71,13.62,16.3
		c-0.76-1.8-2.02-4.2-3.26-6.04c-1.22-1.85-2.36-3.16-2.41-3.11c-0.63-0.78-1.16-1.32-1.57-1.81c-0.99-1.05-2.33-2.35-3.55-3.36
		C62.09,8.17,61,7.41,60.66,7.24c-0.67-0.47-1.35-0.91-2.01-1.32c-2.63-1.73-6.46-3.69-11.36-4.86c-4.88-1.17-10.8-1.51-16.99-0.16
		c-6.17,1.32-12.5,4.4-17.69,9.14c-5.2,4.71-9.2,11.05-11.13,17.94c-1.91,6.75-1.76,12.95-0.68,18.3c1.11,5.37,3.21,9.93,5.88,13.83
		c2.68,3.89,5.94,7.17,9.84,9.87c3.9,2.68,8.48,4.82,13.88,5.94c-1.02-0.2-2.03-0.43-3.03-0.71c1.61,0.46,2.74,0.68,3.42,0.79
		c7.38,1.58,15.23,0.92,22.25-1.93c0.32-0.18,1.74-0.82,3.3-1.72c-0.54,0.21-0.93,0.3-1.07,0.33c1.22-0.61,2.4-1.27,3.54-2.01
		c-1.04,0.67-2.45,1.44-3.34,1.87c0.66-0.35,2.16-1.19,2.36-1.35c-1.44,0.84-3.42,1.86-5.59,2.69c-2.17,0.85-4.53,1.5-6.59,1.87
		c1.75-0.34,3.93-0.91,6.03-1.69c2.1-0.77,4.09-1.76,5.57-2.63l-0.01-0.01l-1.51,0.83c-4.05,2.07-9.08,3.6-13.88,3.94
		c2.69-0.25,6.46-0.98,9.45-2.11l-0.82,0.26c0.8-0.3,1.85-0.65,2.76-1.04c5.28-2.32,9.71-5.43,13.54-9.75
		c-1.1,1.16,0.19-0.32,0.31-0.54c-0.53,0.62-1.08,1.22-1.65,1.8c-2.09,2.06-1.93,1.7-2.59,2.24c-0.56,0.46-0.48,0.37-0.49,0.35
		c-0.31,0.2,0.42-0.4,1.16-1.07c0.75-0.67,1.5-1.42,1.41-1.34c-1.13,1.09-2.59,2.39-3.77,3.26l1.13-0.91
		c1.11-0.95,1.78-1.65,1.49-1.43c1.19-1.04,2.96-3.03,3.57-3.79c1.42-1.81-0.5,0.53,0.08-0.25l0.23-0.29l-0.04-0.03
		c-1.43,1.8-2.7,3.1-4.22,4.48c-0.95,0.75-0.26,0.16,0.73-0.78c1-0.94,2.23-2.31,2.63-2.83c0.79-0.92,1.78-2.28,2.27-2.96
		c0.32-0.51-1.19,1.67-1.54,2c-0.01-0.01-0.09,0.09,0.13-0.2c0.55-0.79-0.27,0.24-1.13,1.24c-0.74,0.86-1.73,1.91-2.7,2.82
		c-0.97,0.92-1.92,1.7-2.49,2.13c-1.06,0.78,0.18-0.17,0.33-0.34c-0.68,0.48-0.02-0.03,0.85-0.77c0.87-0.73,1.89-1.73,2.12-2.01
		l-0.59,0.59c-2.05,2.01-4.45,3.61-4.48,3.55l-0.48,0.35c-0.4,0.26-1.7,1.09-1.42,0.88c-0.02-0.04,1.1-0.71,1.87-1.27
		c-0.2,0.13-0.97,0.64-1.74,1.11c-0.77,0.47-1.56,0.89-1.72,0.96l0.71-0.43c1.84-1.08,3.33-2.16,4.74-3.35
		c1.41-1.19,2.76-2.49,4.19-4.13c-0.32,0.35-0.64,0.7-0.98,1.03c0.57-0.6,1.03-1.14,1.63-1.86c-1.68,1.98-3.22,3.44-4.9,4.83
		c-1.69,1.37-3.52,2.68-6.02,4.02c-0.62,0.32-0.54,0.24-0.44,0.18c-0.32,0.15-0.78,0.36-0.54,0.22l0.74-0.36l0.2-0.13
		c1.57-0.82,2.32-1.34,3.06-1.84c0.73-0.51,1.46-1.01,2.79-2.06l0.25-0.25c0.83-0.66,2.19-1.95,2.69-2.45
		c2.27-2.22,4.66-5.46,6-8.08l-0.44,0.7c-2.47,4.31-5.84,8.08-9.84,11.03l1-0.79c-0.27,0.21-0.67,0.49-0.85,0.61l0.27-0.22
		c1.64-1.23,2.51-2.07,3.35-2.88c0.82-0.83,1.62-1.66,2.84-3.15l-0.15,0.18c1.24-1.56,0.31-0.5,0.8-1.15
		c-0.42,0.56-1.77,2.17-1.66,1.96c1.18-1.44,3.57-4.61,4.92-7.46c-0.15,0.18-0.58,1.04-1.12,1.99c-0.54,0.95-1.19,1.98-1.64,2.58
		c0.1-0.21,1.32-2.05,2-3.4c-0.27,0.47-0.56,0.93-0.85,1.38c-0.55,0.89-0.93,1.47-1.39,2.13c0.05-0.1-0.84,1.11-0.38,0.44l0.48-0.65
		c0.92-1.32,1.28-2.06,1.44-2.37c-0.38,0.59-1.05,1.66-1.8,2.68c-0.89,1.21-2.51,3.16-3.61,4.19c0.15-0.18,1.42-1.51,2.13-2.41
		c-0.35,0.41-0.7,0.81-1.07,1.2c0.29-0.36,1.06-1.21,1.63-1.94c0.56-0.73,0.53-0.75,0.93-1.31c-0.4,0.56-0.96,1.29-1.33,1.73
		c0.7-0.91,2.53-3.42,3.74-5.76c0.8-1.53,1.58-3.56,1.18-2.74c-1.02,2.36-2.41,4.84-4.1,7.1c-1.68,2.27-3.65,4.32-5.62,5.96
		c-0.35,0.29-0.71,0.57-1.08,0.84l0.86-0.75l-0.9,0.7c4.68-3.63,8.21-8.29,10.31-12.96l-0.39,0.82c-1.25,2.55-3.07,5.33-5.22,7.73
		c-2.13,2.41-4.57,4.41-6.66,5.78c-0.68,0.41,1-0.76,0.6-0.53c-0.38,0.24-0.83,0.59-0.94,0.63l-0.67,0.44
		c-0.48,0.29-1.27,0.76-0.99,0.55c-0.48,0.29-1,0.53-1.18,0.66c-0.8,0.42-0.52,0.23-0.92,0.42l-0.71,0.36
		c-0.41,0.19-0.52,0.22-0.83,0.36c-0.51,0.24-0.53,0.19-1.25,0.53l-0.98,0.29c0.67-0.25,1.34-0.51,1.99-0.8l0.37-0.15
		c-0.08,0.02-0.1,0.03,0.66-0.32c-1.03,0.46-1.56,0.66-1.77,0.71l1.23-0.54c0.74-0.29,1.72-0.84,1.74-0.79l-0.01-0.02
		c1.3-0.66,2.75-1.54,3.86-2.31c3.24-2.24,6.37-5.25,8.63-8.5c0.42-0.67,1.29-1.98,2.04-3.36c0.76-1.38,1.39-2.83,1.64-3.57
		c-0.02-0.01,0.4-1.17-0.07-0.03c-0.4,1.05-1.18,2.54-1.46,3.15c-1.38,2.63-3.29,5.37-5.53,7.71c-2.23,2.35-4.78,4.29-7.12,5.62
		c2.78-1.67,6.15-4.36,8.56-7.32l0.46-0.64l-0.51,0.6c0.33-0.46-0.13,0.03,0.88-1.3c-1.19,1.48,0.4-0.53-1.15,1.36
		c-0.31,0.32,1.25-1.58,1.41-1.86l0.43-0.66l-0.47,0.62c0.51-0.73-0.91,1.12-0.4,0.39c-0.47,0.61-0.98,1.2-1.48,1.79
		c-1.29,1.52-3.61,3.6-4.27,4.01c1.55-1.24,3.29-2.95,4.35-4.23c-0.58,0.67-1.19,1.31-1.82,1.92c-0.09,0.07-0.03-0.03-0.58,0.51
		c-0.09,0.06-0.67,0.57-0.44,0.34c-0.99,0.88-2.89,2.38-2.5,1.97l0.26-0.19c0.32-0.3,2.3-1.87,2.71-2.4
		c-0.18,0.13-1.46,1.33-2.6,2.19c-2.73,2.02,1.6-1.33-0.07-0.09c0.44-0.33,0.94-0.75,1.26-1.04c-0.18,0.11-0.75,0.63-1.46,1.14
		c-0.62,0.45,0.42-0.35-0.28,0.17c1.6-1.31-0.98,0.69-2.22,1.39c-0.57,0.32,1.08-0.73,1.05-0.77c1.33-0.94,2.68-2.02,3.5-2.74
		c0.28-0.26,1.01-0.94,1.8-1.78c0.8-0.83,1.63-1.83,2.22-2.61c1.11-1.48,2.29-3.43,2.9-4.69c-0.78,1.36-1.32,2.26-1.96,3.25
		c-0.65,0.98-1.38,2.06-2.79,3.57c-0.29,0.32-0.75,0.78-0.54,0.53c0.94-1,1.81-2.06,2.61-3.17l-0.01-0.01
		c-0.07,0.08,0.04-0.1,0.3-0.45c0.75-1.05,0.87-1.36,1.08-1.73c-0.46,0.73-0.67,0.98-1.28,1.86c-0.78,1.03-0.04-0.03,0.07-0.21
		c-0.21,0.25-0.38,0.52-0.64,0.87c-0.72,0.93-1.82,2.23-2.9,3.29c-1.07,1.08-2.11,1.93-2.52,2.19c-1.2,0.9-0.76,0.54-0.05-0.05
		c0.71-0.59,1.65-1.47,1.58-1.46c0.08-0.07,0.17-0.13,0.32-0.29l-0.02-0.02c-0.77,0.74-0.88,0.78-1.7,1.46l0.39-0.35
		c1.39-1.18,2.26-2.12,3.59-3.64c-1.05,1.2-0.74,0.76-0.61,0.59c1.85-2.19-0.13,0.03,0.94-1.29c-1.67,1.91,0.84-1.22,0.17-0.54
		c-0.74,0.89-0.96,1.12-2.03,2.28c-1.23,1.28-2.76,2.58-3.36,3l1.51-1.29c0.74-0.67,1.66-1.6,2.42-2.47
		c0.76-0.86,1.36-1.66,1.55-1.97c0.46-0.57,1.64-2.29,1.58-2.33c-0.38,0.5-1.27,1.91-2.09,2.86c0.28-0.31,0.54-0.64,0.8-0.96
		c-0.73,1.01-1.92,2.34-2.46,2.84c-3.72,3.95-8.39,6.78-12.64,8.14c0.19-0.09-2.48,0.76-0.51,0.09l0.48-0.18l0.2-0.06
		c-0.09,0.04,0.2-0.04-0.19,0.1c1.07-0.37,2.32-0.9,3.61-1.54l-0.02-0.04c-1.01,0.52-2.07,0.92-2.93,1.28
		c-0.97,0.33-2.24,0.8-3.36,1.02c-0.86,0.25-0.85,0.2-0.78,0.17l-0.13,0.03c-0.91,0.2-0.71,0.12-0.31,0.02
		c0.34-0.07,0.67-0.14,1.01-0.22l0-0.01c0.6-0.17,0.31-0.05,1-0.26l-0.01-0.03l-0.5,0.14c-0.2,0.05-0.6,0.14-0.51,0.11l-0.49,0.14
		l-0.21,0.01c1.4-0.33,2.89-0.74,4.72-1.44c0.27-0.14,1.51-0.65,2.24-1.04c-2.42,1.15-5.65,2.23-8.9,2.73v-0.01
		c-0.91,0.14-1.83,0.24-2.75,0.3c0.1-0.01,1.02-0.04,0,0.05l-0.21,0.01c-0.1,0.02-0.71,0.09-1.54,0.08v0.02c0,0-2.16-0.02-1.44-0.04
		c-7.9-0.25-15.31-3.34-21.04-8.96c0.03,0.11-0.66-0.66-0.89-0.86c-0.21-0.23-0.13-0.17-0.13-0.17c-0.52-0.55-1.02-1.11-1.5-1.7
		c-0.06-0.09,0.08,0.07,0.14,0.15c-0.48-0.54-1.62-2.13-2.03-2.72c-0.17-0.26-0.15-0.27-0.15-0.27c-0.77-1.22-1.41-2.28-1.91-3.41
		l0.09,0.18c-1.73-3.55-2.77-7.42-3.06-11.37c0.15,2.68,0.87,5.93,1.71,8.26c-0.32-0.76-0.82-2.26-1.19-4.02
		c-0.37-1.76-0.6-3.77-0.66-5.47l0.06,1.24c-0.14-1.85-0.14-3.22,0.04-5.17c-0.04,0.61-0.15,2.37-0.11,3.41
		c-0.03-1.45,0.07-3,0.23-4.44c0.04-0.41,0.06-0.72,0.19-1.43c0.08-0.83,0.79-3.42,0.47-2.43c0.7-2.81,1.89-5.8,3.55-8.55
		c1.65-2.75,3.75-5.23,5.95-7.22l0.38-0.36c0.11-0.09,0.15-0.12,0.16-0.13c0,0-0.01,0-0.01,0c0.63-0.55-0.25,0.18-0.18,0.1
		c2.01-1.8,4.49-3.38,6.62-4.47c-1.6,0.76-3.33,1.93-4.11,2.45c-4.12,2.92-7.79,7.05-10.22,12C7.62,29.67,6.5,35.38,6.91,41
		l0.04,0.72c0,0.11-0.02-0.1-0.03-0.2c0.08,0.9,0.19,1.79,0.34,2.68c-0.46-2.13-0.67-5.81-0.35-8.72l0.03,0
		c0.33-3.36,1.23-6.86,2.78-10.17c1.53-3.31,3.7-6.42,6.31-9.05c0.16-0.2,0.84-0.89,1.62-1.56c0.77-0.67,1.62-1.32,1.99-1.61
		c-4.71,3.48-8.21,8.04-10.45,13.21l-0.29,0.67C7.77,29.84,7,33.1,6.77,36.4c-0.24,3.3,0.06,6.62,0.75,9.57
		c-0.15-0.5-0.44-2.15-0.42-1.94c-0.83-4.95-0.48-10.11,1.03-14.89c1.5-4.79,4.17-9.21,7.69-12.8c-0.48,0.46-0.94,0.94-1.4,1.42
		c1.15-1.37,2.74-2.91,4.15-4.02c0.23-0.21-0.43,0.31-0.6,0.44c1.64-1.48,4.56-3.42,7.14-4.59c-0.01-0.02-0.03-0.05,0.74-0.4
		c2.54-1.12,5.23-1.89,7.98-2.32c-6.14,0.94-11.96,3.58-16.9,8.05c-1.05,0.89-3.04,2.95-4.29,4.66l0.12-0.17
		c2.4-3.29,5.72-6.39,9.69-8.69C26.41,8.41,31,6.93,35.59,6.5c-1.85,0.14-4.05,0.55-6.09,1.16c-2.04,0.6-3.9,1.38-5.21,1.96
		c-3.31,1.67-6.27,3.66-9.22,6.75c-0.22,0.23-1.15,1.26-1.03,1.08c-1.17,1.32-2.31,2.87-3.28,4.48c-0.98,1.62-1.78,3.3-2.41,4.83
		l-0.33,0.79l0.17-0.5c3.3-8.8,10.64-16,19.54-19.13c1.58-0.67,4.51-1.37,6.21-1.62l-0.21,0.02c-3.34,0.54-6.8,1.63-10.13,3.36
		c-3.32,1.73-6.5,4.11-9.2,7.08c-0.72,0.79-1.16,1.26-0.75,0.77c-1.38,1.51-3.05,4.02-4.08,5.91c0.8-1.52,1.73-2.97,2.75-4.35
		c0.03-0.08,0.55-0.78,1.06-1.38l-0.29,0.34c1.07-1.35,2.27-2.59,3.15-3.39c-0.08,0.07-0.25,0.22-0.17,0.14
		c2-1.96,4.57-3.85,7.39-5.3c2.81-1.47,5.86-2.49,8.66-3.07c-4.87,0.99-9.14,2.95-12.87,5.66c-3.72,2.72-6.94,6.22-9.42,10.64
		c-0.22,0.37-0.43,0.75-0.63,1.14c1.87-3.77,4.73-7.48,8.26-10.43c3.52-2.96,7.68-5.11,11.71-6.33c0.41-0.13,0.29-0.17,1.66-0.5
		l0-0.01c-2.95,0.72-6.71,2.19-9.54,4.01c-0.67,0.37-2.34,1.56-1.75,1.1c1.75-1.28,4.15-2.57,5.63-3.24
		c-2.63,1.15-5.53,2.89-8.13,5.12c-2.61,2.22-4.89,4.93-6.59,7.64c0.05-0.09,0.22-0.37,0.4-0.64c-0.37,0.54-0.87,1.37-1,1.55
		c0.7-1.23,1.65-2.69,2.81-4.13c-0.38,0.46-1.18,1.5-1.92,2.64c-0.75,1.13-1.43,2.38-1.81,3.1c0.07-0.17,0.18-0.36,0.29-0.57
		c-2.01,3.69-3.6,8.61-3.88,13.49c0.18-3.92,1.37-8.77,3.41-12.76c-0.15,0.29-0.11,0.19-0.12,0.19c0.12-0.3,0.53-1.08,0.8-1.56
		c0.76-1.45,1.95-3.26,3.32-4.92c1.36-1.67,2.89-3.16,4.08-4.21c-0.88,0.73-1.96,1.76-2.9,2.78c-0.95,1.02-1.77,2.06-2.29,2.7
		c2.27-3.1,4.94-5.64,8.09-7.83l0.6-0.47c-1.31,0.81-3.29,2.39-3.97,2.96l0.73-0.68c-1.56,1.29-2.99,2.73-4.29,4.28
		c-2.86,3.37-4.52,6.56-5.88,10.04c0.84-2.52,2.54-5.78,4.32-8.18c0.05-0.16,0.71-1.09,1.56-2.08c0.83-1,1.87-2.04,2.46-2.63l0,0
		l-0.4,0.38l0.54-0.55c3.97-3.79,9.05-6.66,14.42-8.08c5.36-1.45,10.96-1.49,15.91-0.48c-4.14-0.87-8.61-0.96-12.88-0.21
		c-4.27,0.74-8.32,2.32-11.74,4.39c0-0.01-0.1,0.04,0.19-0.14c-0.76,0.46-1.51,0.95-2.23,1.47c-0.38,0.23-1.51,1.13-1.27,0.9
		c0.95-0.78,2.41-1.81,3.95-2.69l-0.2,0.11c-2.01,1.18-4.1,2.69-6,4.46c-1.91,1.76-3.63,3.79-5.05,5.85l-0.46,0.62
		c0.83-1.31,2.06-2.91,2.85-3.84c-1.27,1.48-2.54,3.22-3.59,5.02c-1.06,1.8-1.92,3.65-2.54,5.26l-0.01,0
		c2.02-5.38,5.48-10.28,9.86-13.99c4.36-3.73,9.59-6.25,14.83-7.4c-4.15,0.93-7.42,2.26-10.74,4.32c-0.6,0.31-1.79,1.16-2.27,1.45
		c3.12-2.39,7.43-4.47,11.35-5.5c1.29-0.38,3-0.75,4.74-0.98c1.74-0.23,3.52-0.3,4.93-0.3C35.51,4.28,31.42,4.9,27.5,6.27
		c-3.93,1.37-7.67,3.49-10.93,6.24c0.08-0.08-0.19,0.13,0.15-0.17c-0.26,0.21-0.53,0.42-0.79,0.64c0.99-0.92,2.03-1.78,3.13-2.57
		c3.55-2.5,7.86-4.43,12.33-5.39c4.47-0.98,9.07-1,13.14-0.34c-1.9-0.31-3.93-0.48-5.97-0.5c-2.83,0.01-6.09,0.4-9.25,1.31
		c-3.17,0.89-6.23,2.29-8.78,3.86c-3.56,2.19-6.84,5.17-9.4,8.59c-2.58,3.42-4.45,7.25-5.57,10.98c0.32-1.33,1.31-3.85,2.05-5.37
		c-1.89,3.92-2.85,7.61-3.27,11.28c-0.39,3.69-0.28,7.41,0.62,11.49l-0.01,0C3.24,39.01,4.04,30.7,7.53,23.6
		c3.43-7.13,9.41-12.88,16.09-16.12c-3.03,1.47-5.84,3.38-8.32,5.66c-0.92,0.85,0.04-0.11-0.44,0.36c-0.28,0.26-0.54,0.53-0.81,0.79
		c0.3-0.35-0.72,0.57,0.73-0.88c2.85-2.7,5.93-4.75,9.19-6.3c3.26-1.54,6.73-2.58,10.48-3.06c-0.1-0.03,1.29-0.21,2.48-0.27
		C32.9,3.98,28.86,4.91,25.1,6.53s-7.23,3.89-10.21,6.66c1.56-1.51,3.59-3.13,5.84-4.48c2.25-1.37,4.72-2.49,7-3.26l-0.45,0.13
		c-2.81,0.98-5.49,2.35-7.88,3.92c1.49-1.06,3.91-2.42,6.26-3.35l0-0.01c-1.7,0.69-3.35,1.51-4.92,2.46c-1,0.58-2.58,1.71-3.59,2.47
		c0.35-0.3,1.26-0.99,2.22-1.62c1.92-1.35,4.63-2.86,7.78-3.96c3.13-1.11,6.68-1.78,10.02-1.94c0-0.03-1.27,0.05-0.81,0
		c3.34-0.24,6.9-0.01,10.38,0.79c3.48,0.79,6.88,2.16,9.92,3.96c-1.19-0.72-2.53-1.41-4.02-2.07c-1.36-0.65-3.19-1.33-5.21-1.85
		c-2.03-0.52-4.25-0.86-6.33-0.99c-3.01-0.21-6.26,0.05-9.11,0.55c0.45-0.11,1.13-0.23,1.94-0.35c2-0.33,4.66-0.48,7.31-0.3
		C43.9,3.48,46.54,4,48.56,4.55c4.38,1.23,8.63,3.38,12.27,6.24c3.65,2.85,6.69,6.41,8.91,10.2l0.02-0.01
		C65.93,14.4,59.47,8.48,51.46,5.45c-0.65-0.26-1.42-0.55-0.75-0.33l0.77,0.29l0-0.01c-0.51-0.2-1.02-0.38-1.54-0.55l0,0.01
		c-1.44-0.51-3.61-1.03-3.82-1.1c-0.8-0.2-2.31-0.42-3.01-0.53c-3.14-0.38-6.78-0.36-10.37,0.26c-3.6,0.6-7.12,1.82-10.08,3.34
		c1.43-0.81,4.26-1.95,6.52-2.56c-5.75,1.61-10.89,4.55-15.41,8.94l-0.43,0.4c1.78-1.85,4.17-3.86,6.95-5.53
		c2.76-1.69,5.89-3.01,8.88-3.85c1.34-0.45,3.81-1.03,6.61-1.25c2.8-0.23,5.89-0.09,8.4,0.28c-4.78-0.74-9.31-0.46-13.45,0.42
		c-0.35,0.06-0.58,0.08,0.34-0.13c3.77-0.82,7.23-0.98,10.57-0.74c3.35,0.25,6.61,0.94,9.98,2.2l-0.96-0.4
		c2.41,0.82,4.84,1.96,7.04,3.31c2.21,1.34,4.19,2.88,5.82,4.36c-3.76-3.47-8.13-6.1-13.19-7.81c-1.34-0.5-3.41-1.03-4.69-1.3
		c1,0.16,2.39,0.47,3.83,0.91c1.44,0.44,2.91,1,4.11,1.53c-0.32-0.14-0.65-0.28-0.76-0.34c2.26,0.94,4.54,2.19,6.58,3.59
		c2.04,1.4,3.83,2.94,5.24,4.31c-2.79-2.79-6.03-5.12-9.54-6.88c-1.74-0.91-3.77-1.72-5.81-2.33c-2.04-0.62-4.09-1.02-5.86-1.29
		c3.09,0.28,7.16,1.42,10.43,2.9c-0.37-0.21-1.51-0.73-2.78-1.18c-1.27-0.46-2.65-0.85-3.39-1.06c-6.52-1.61-13.19-1.4-19.49,0.48
		c-2.18,0.65-5.06,1.85-6.64,2.69c2.08-1.17,5.18-2.51,8.46-3.28c1.15-0.34,3.09-0.74,5.21-0.94c2.12-0.21,4.4-0.19,6.2-0.08
		c1.44,0.03,4.43,0.46,6.64,1.05c-0.46-0.13-0.94-0.23-1.17-0.3c0-0.01,0.35,0.08,0.57,0.13l-0.33-0.09c0.67,0.14,1.34,0.29,2,0.46
		c2.09,0.59,4.25,1.38,6.71,2.69l0.01-0.02c-0.5-0.35-2.92-1.46-3.95-1.82c-3.48-1.42-7.44-2.22-11.54-2.48
		c0.48,0.02,0.13-0.02,0.24-0.03c-1.93-0.12-4.21-0.06-6.48,0.23c-2.27,0.29-4.52,0.8-6.44,1.36c0.27-0.13,1.89-0.66,3.7-1.02
		c1.8-0.38,3.77-0.58,4.62-0.64c-0.69,0.05-1.38,0.12-2.06,0.2c-0.49-0.01,1.92-0.34,3.51-0.4c1.28-0.06,2.96-0.04,4.49,0.09
		c1.54,0.12,2.93,0.35,3.64,0.5l0.24,0.04l-0.34-0.07c1.01,0.15,2.92,0.6,4.37,1.06c3.17,0.91,6.88,2.6,10.15,4.88
		c1.84,1.28,3.29,2.52,4.37,3.5l0.35,0.33l-0.1-0.1L65,12.08l0.25,0.3c2.15,2.09,2.35,2.47,2.74,2.93l0.86,1.15
		c0.45,0.62,1.15,1.57,2.15,3.23c-0.23-0.44-0.48-0.86-0.73-1.29c-1.48-2.26-2.66-3.69-4.09-5.23l0.08,0.07
		c2.23,2.38,4.02,5.06,5.14,6.93c-1-1.93-2.94-4.82-5.25-7.27c-0.09-0.12-0.2-0.26-0.33-0.41c1.33,1.38,2.59,2.95,3.63,4.39
		c-0.08-0.25-1.66-2.31-2.4-3.15c1.19,1.38,2.27,2.84,3.25,4.37l-0.02,0.01c0.53,0.84,0.9,1.48,1.62,2.78
		c0.66,1.05,1.79,3.66,2.33,5.18c0.02-0.01-0.19-0.59-0.31-0.94c0.07,0.17,0.52,1.36,0.85,2.43c0.33,1.06,0.57,1.99,0.51,1.56
		c-0.49-2.05-1.34-4.53-2.45-6.84C71.73,19.96,70.39,17.82,69.25,16.26z"/>
	<path style="fill:#231815;stroke:#231815;stroke-width:0.0322;stroke-miterlimit:3.8636;" d="M60.32,69.81
		c-1.1,0.8-2.58,1.77-3.97,2.54c0.41-0.16,0.91-0.38,1.47-0.7C57.82,71.65,59.35,70.59,60.32,69.81z"/>
	<path style="fill:#231815;stroke:#231815;stroke-width:0.0322;stroke-miterlimit:3.8636;" d="M61.18,66.54l-0.27,0.23
		C61.07,66.64,61.19,66.55,61.18,66.54z"/>
	<polygon style="fill:#231815;stroke:#231815;stroke-width:0.0322;stroke-miterlimit:3.8636;" points="61.11,69.19 60.32,69.81 
		60.93,69.37 	"/>
	<path style="fill:#231815;stroke:#231815;stroke-width:0.0322;stroke-miterlimit:3.8636;" d="M45.67,69.52l0.07-0.02
		C45.74,69.49,45.7,69.5,45.67,69.52z"/>
	<path style="fill:#231815;stroke:#231815;stroke-width:0.0322;stroke-miterlimit:3.8636;" d="M52.09,70.54l0.21-0.09
		c0.24-0.11,0.25-0.13,0.21-0.12C52.27,70.45,51.55,70.74,52.09,70.54z"/>
	<path style="fill:#231815;stroke:#231815;stroke-width:0.0322;stroke-miterlimit:3.8636;" d="M61.25,63.66
		c0.4-0.38,0.8-0.76,1.19-1.15C62.06,62.9,61.57,63.34,61.25,63.66z"/>
	<polygon style="fill:#231815;stroke:#231815;stroke-width:0.0322;stroke-miterlimit:3.8636;" points="49.03,68.64 48.84,68.7 
		48.65,68.77 48.85,68.71 	"/>
	<path style="fill:#231815;stroke:#231815;stroke-width:0.0322;stroke-miterlimit:3.8636;" d="M52.44,70.35l0.06-0.02
		C52.59,70.29,52.61,70.28,52.44,70.35z"/>
	<path style="fill:#231815;stroke:#231815;stroke-width:0.0322;stroke-miterlimit:3.8636;" d="M13.49,17.59l0.3-0.36L13.49,17.59z"
		/>
	<path style="fill:#231815;stroke:#231815;stroke-width:0.0322;stroke-miterlimit:3.8636;" d="M9.23,23.14
		c0.31-0.59,0.63-1.14,0.95-1.67C9.85,22.02,9.5,22.63,9.23,23.14z"/>
	<polygon style="fill:#231815;stroke:#231815;stroke-width:0.0322;stroke-miterlimit:3.8636;" points="55.21,70.67 55,70.78 
		55,70.78 	"/>
	<polygon style="fill:#231815;stroke:#231815;stroke-width:0.0322;stroke-miterlimit:3.8636;" points="52.41,5.31 51.62,5 
		52.18,5.22 	"/>
	<path style="fill:#231815;stroke:#231815;stroke-width:0.0322;stroke-miterlimit:3.8636;" d="M47.47,3.07l0.01,0
		C47.75,3.14,47.65,3.12,47.47,3.07z"/>
	<path style="fill:#231815;stroke:#231815;stroke-width:0.0322;stroke-miterlimit:3.8636;" d="M74.1,23.52l0.65,1.57
		C74.55,24.56,74.33,24.03,74.1,23.52z"/>
	<path style="fill:#231815;stroke:#231815;stroke-width:0.0322;stroke-miterlimit:3.8636;" d="M54.11,74.74l-0.68,0.29L54.11,74.74z
		"/>
	<path style="fill:#231815;stroke:#231815;stroke-width:0.0322;stroke-miterlimit:3.8636;" d="M55.67,74.04
		c0.56-0.31,1.82-0.92,1.91-1.03c-1.13,0.63-2.29,1.21-3.47,1.73C54.62,74.51,55.19,74.26,55.67,74.04z"/>
	<path style="fill:#231815;stroke:#231815;stroke-width:0.0322;stroke-miterlimit:3.8636;" d="M49.32,76.45
		c0.41-0.12,0.82-0.24,1.22-0.37l0-0.01C50.13,76.21,49.72,76.32,49.32,76.45L49.32,76.45z"/>
	<path style="fill:#231815;stroke:#231815;stroke-width:0.0322;stroke-miterlimit:3.8636;" d="M47.2,76.98
		c0.42-0.09,0.83-0.2,1.25-0.3l0-0.01C48.03,76.78,47.62,76.89,47.2,76.98L47.2,76.98z"/>
	<path style="fill:#231815;stroke:#231815;stroke-width:0.0322;stroke-miterlimit:3.8636;" d="M77.72,38.03l-0.03,0.39l0.01,0.26
		C77.72,38.68,77.73,38.42,77.72,38.03z"/>
	<path style="fill:#231815;stroke:#231815;stroke-width:0.0322;stroke-miterlimit:3.8636;" d="M39.57,77.69
		c0.9,0.06,3.44-0.19,5.2-0.45l0-0.02C42.89,77.54,41.6,77.59,39.57,77.69z"/>
	<path style="fill:#231815;stroke:#231815;stroke-width:0.0322;stroke-miterlimit:3.8636;" d="M53.57,74.68
		c0.7-0.3,1.28-0.57,2.19-1.04c-1.37,0.67-2.79,1.26-4.23,1.77C51.78,75.36,53.34,74.79,53.57,74.68z"/>
	<path style="fill:#231815;stroke:#231815;stroke-width:0.0322;stroke-miterlimit:3.8636;" d="M57.71,72.2
		c0.44-0.24,0.67-0.35,1.31-0.75C59.01,71.43,58.36,71.82,57.71,72.2z"/>
	<path style="fill:#231815;stroke:#231815;stroke-width:0.0322;stroke-miterlimit:3.8636;" d="M33.29,76.85l-0.38-0.03
		c1.25,0.19,1.01,0.12,2.13,0.24C34.41,77,33.67,76.92,33.29,76.85z"/>
	
		<rect x="40.19" y="77.15" style="fill:#231815;stroke:#231815;stroke-width:0.0322;stroke-miterlimit:3.8636;" width="0.88" height="0.01"/>
	<path style="fill:#231815;stroke:#231815;stroke-width:0.0322;stroke-miterlimit:3.8636;" d="M51.92,74.62l-0.23,0.11l0.47-0.17
		C52.03,74.58,52.38,74.43,51.92,74.62z"/>
	<path style="fill:#231815;stroke:#231815;stroke-width:0.0322;stroke-miterlimit:3.8636;" d="M38.44,76.97
		c2.99,0.02,6-0.31,8.92-0.99C44.43,76.67,41.31,76.99,38.44,76.97z"/>
	<path style="fill:#231815;stroke:#231815;stroke-width:0.0322;stroke-miterlimit:3.8636;" d="M65.67,11.61
		c1.9,1.83,3.89,4.59,4.5,5.38c-2.11-3.12-5.19-6.31-7.57-8.14C63.67,9.72,64.69,10.64,65.67,11.61z"/>
	<path style="fill:#231815;stroke:#231815;stroke-width:0.0322;stroke-miterlimit:3.8636;" d="M60.57,69.49l-1.21,0.85
		C59.77,70.08,60.47,69.58,60.57,69.49z"/>
	<path style="fill:#231815;stroke:#231815;stroke-width:0.0322;stroke-miterlimit:3.8636;" d="M59.61,70.08l0.01,0.02l0.71-0.5
		C60.03,69.81,59.73,70.01,59.61,70.08z"/>
	<path style="fill:#231815;stroke:#231815;stroke-width:0.0322;stroke-miterlimit:3.8636;" d="M61.91,68.2l-0.72,0.57L61.91,68.2z"
		/>
	<path style="fill:#231815;stroke:#231815;stroke-width:0.0322;stroke-miterlimit:3.8636;" d="M57.03,71.5
		c0.87-0.46,1.81-1.05,2.72-1.68l0.19-0.14C58.84,70.46,57.68,71.14,57.03,71.5z"/>
	<path style="fill:#231815;stroke:#231815;stroke-width:0.0322;stroke-miterlimit:3.8636;" d="M61.19,68.77l-1.25,0.91
		C60.38,69.39,60.8,69.08,61.19,68.77z"/>
	<path style="fill:#231815;stroke:#231815;stroke-width:0.0322;stroke-miterlimit:3.8636;" d="M53.27,5.68
		c0.79,0.35,1.58,0.72,2.35,1.13l-0.1-0.06C54.79,6.36,54.03,6.01,53.27,5.68L53.27,5.68z"/>
	<path style="fill:#231815;stroke:#231815;stroke-width:0.0322;stroke-miterlimit:3.8636;" d="M59.51,68.02L59.51,68.02
		c-0.45,0.31-0.9,0.62-1.37,0.92l0.01,0.01C58.61,68.65,59.07,68.34,59.51,68.02z"/>
	<path style="fill:#231815;stroke:#231815;stroke-width:0.0322;stroke-miterlimit:3.8636;" d="M70.56,52.54l0.6-1.47
		c-0.24,0.6-0.49,1.19-0.76,1.77L70.56,52.54z"/>
	<path style="fill:#231815;stroke:#231815;stroke-width:0.0322;stroke-miterlimit:3.8636;" d="M47.52,5.3L47.14,5.2L47.52,5.3z"/>
	<path style="fill:#231815;stroke:#231815;stroke-width:0.0322;stroke-miterlimit:3.8636;" d="M46.64,5.09l0.5,0.11
		C46.6,5.07,45.81,4.9,46.64,5.09z"/>
	<polygon style="fill:#231815;stroke:#231815;stroke-width:0.0322;stroke-miterlimit:3.8636;" points="56.71,68.18 56.43,68.36 
		56.43,68.36 	"/>
	<path style="fill:#231815;stroke:#231815;stroke-width:0.0322;stroke-miterlimit:3.8636;" d="M70.79,50.99l-0.27,0.68
		C70.6,51.49,70.69,51.25,70.79,50.99z"/>
	<path style="fill:#231815;stroke:#231815;stroke-width:0.0322;stroke-miterlimit:3.8636;" d="M70.79,50.99l0.29-0.79l-0.04,0.22
		c0.55-1.6,0.11-0.44,0.54-1.84C71.34,49.29,71.06,50.25,70.79,50.99z"/>
	<path style="fill:#231815;stroke:#231815;stroke-width:0.0322;stroke-miterlimit:3.8636;" d="M23.62,8.25L23.62,8.25
		c-0.3,0.14-0.6,0.29-0.89,0.45l0,0.01C23.03,8.54,23.32,8.4,23.62,8.25z"/>
	<path style="fill:#231815;stroke:#231815;stroke-width:0.0322;stroke-miterlimit:3.8636;" d="M47.56,6c0.5,0.13,1,0.28,1.49,0.44
		l0-0.01C48.56,6.28,48.07,6.13,47.56,6L47.56,6z"/>
	<path style="fill:#231815;stroke:#231815;stroke-width:0.0322;stroke-miterlimit:3.8636;" d="M69.91,51.19l0.34-0.81
		c-0.34,0.93-0.47,1.35-0.88,2.26c0.39-0.79,0.66-1.63,0.93-2.24c-0.2,0.69-0.78,2.16-1.54,3.65c-0.76,1.49-1.7,2.99-2.33,3.9
		c1.37-2.01,2.35-3.76,3.31-5.99c0.49-1.17,0.58-1.55,0.69-1.91c0.1-0.36,0.2-0.7,0.55-1.87l-0.34,0.94L69.91,51.19z"/>
	<path style="fill:#231815;stroke:#231815;stroke-width:0.0322;stroke-miterlimit:3.8636;" d="M68.67,54.01l0.34-0.7
		c-0.27,0.56-0.55,1.12-0.85,1.67L68.67,54.01z"/>
	<path style="fill:#231815;stroke:#231815;stroke-width:0.0322;stroke-miterlimit:3.8636;" d="M69.19,52.8
		c0.42-0.9-0.11,0.31,0.22-0.38l0.33-0.82c-0.14,0.29-0.55,1.2-0.95,1.99c0.01,0,0.06-0.09-0.08,0.21
		C68.88,53.46,69.04,53.13,69.19,52.8z"/>
	<path style="fill:#231815;stroke:#231815;stroke-width:0.0322;stroke-miterlimit:3.8636;" d="M65.04,59.52
		c0.32-0.4,0.63-0.81,0.94-1.22c0.04-0.1-0.74,0.96-0.96,1.2c0.07-0.08,0.34-0.43,0.28-0.33C65.24,59.26,65.18,59.35,65.04,59.52z"
		/>
	<polygon style="fill:#231815;stroke:#231815;stroke-width:0.0322;stroke-miterlimit:3.8636;" points="21.29,9.98 20.65,10.4 
		21.3,9.99 	"/>
	<path style="fill:#231815;stroke:#231815;stroke-width:0.0322;stroke-miterlimit:3.8636;" d="M17.87,12.54
		c0.69-0.54,1.39-1.06,2.11-1.56c-0.63,0.43-1.26,0.87-1.86,1.35L17.87,12.54z"/>
	<path style="fill:#231815;stroke:#231815;stroke-width:0.0322;stroke-miterlimit:3.8636;" d="M13.15,17.38
		c0.56-0.67,1.15-1.31,1.76-1.93l0,0C14.29,16.06,13.71,16.71,13.15,17.38L13.15,17.38z"/>
	<polygon style="fill:#231815;stroke:#231815;stroke-width:0.0322;stroke-miterlimit:3.8636;" points="67.73,54.75 67.99,54.28 
		67.97,54.27 	"/>
	<path style="fill:#231815;stroke:#231815;stroke-width:0.0322;stroke-miterlimit:3.8636;" d="M65.97,56.72
		c1.14-1.81,0.54-0.93,1.16-2.05c-0.42,0.75-0.86,1.48-1.33,2.19l0.43-0.61c-0.54,0.88-1.13,1.74-1.75,2.56
		C65.02,58.14,65.44,57.51,65.97,56.72z"/>
	<path style="fill:#231815;stroke:#231815;stroke-width:0.0322;stroke-miterlimit:3.8636;" d="M67.14,54.43
		c-0.39,0.76-1.01,1.82-1.69,2.81c-0.68,0.99-1.41,1.91-1.88,2.49c1.14-1.28,2.6-3.39,3.53-5.07
		C67.44,53.99,67.42,53.97,67.14,54.43z"/>
	<path style="fill:#231815;stroke:#231815;stroke-width:0.0322;stroke-miterlimit:3.8636;" d="M69.9,47.87
		c0.23-0.82,0.43-1.65,0.59-2.49c-0.21,1.02-0.34,1.34-0.72,2.67C69.57,48.88,70.31,46.33,69.9,47.87z"/>
	<path style="fill:#231815;stroke:#231815;stroke-width:0.0322;stroke-miterlimit:3.8636;" d="M68.37,51.95l-0.43,0.85l-0.12,0.3
		C67.97,52.82,68.16,52.43,68.37,51.95z"/>
	<path style="fill:#231815;stroke:#231815;stroke-width:0.0322;stroke-miterlimit:3.8636;" d="M67.64,53.25l-0.09,0.19
		c-0.2,0.38-0.25,0.47-0.41,0.74l-0.07,0.2c0.24-0.43,0.47-0.87,0.69-1.32C68.08,52.4,67.67,53.14,67.64,53.25z"/>
	<path style="fill:#231815;stroke:#231815;stroke-width:0.0322;stroke-miterlimit:3.8636;" d="M68.87,49.65
		c0.42-1.42-0.49,1.28-1.1,2.49l0.03,0.01c0.1-0.19,0.04,0.02,0.32-0.66c0.1-0.19,0.41-0.96,0.31-0.66
		c-0.26,0.69-0.43,0.96-0.74,1.63c-0.16,0.39-0.65,1.32-0.63,1.33l0.59-1.12C68.24,51.31,68.61,50.55,68.87,49.65z"/>
	<path style="fill:#231815;stroke:#231815;stroke-width:0.0322;stroke-miterlimit:3.8636;" d="M67.83,51.94
		c0.23-0.55,0.45-1.1,0.65-1.66l-0.21,0.48c-0.23,0.58-0.55,1.24-0.71,1.63C67.58,52.4,67.55,52.5,67.83,51.94z"/>
	<path style="fill:#231815;stroke:#231815;stroke-width:0.0322;stroke-miterlimit:3.8636;" d="M68.69,49.58
		c-0.34,0.87-0.6,1.45-1.07,2.49l0.02,0.01C67.57,52.4,68.56,50.1,68.69,49.58z"/>
	<path style="fill:#231815;stroke:#231815;stroke-width:0.0322;stroke-miterlimit:3.8636;" d="M65.19,56.2
		c-0.43,0.63-0.88,1.24-1.36,1.84C63.87,58.07,64.86,56.73,65.19,56.2z"/>
	<polygon style="fill:#231815;stroke:#231815;stroke-width:0.0322;stroke-miterlimit:3.8636;" points="68.22,50.18 68.42,49.71 
		68.49,49.51 68.29,49.99 	"/>
	<g>
		<path style="fill:#231815;" d="M68.25,49.64c0.28-0.67,0.67-1.87,0.94-2.84c0.27-0.97,0.43-1.71,0.4-1.39
			c0.4-1.93,0.17-1.13,0.25-1.75c-0.47,2.97-1.34,5.53-2.38,7.89C67.76,50.89,67.97,50.42,68.25,49.64z"/>
		<path style="fill:#231815;" d="M67.48,51.55l-0.03-0.01l0,0c1.2-2.73,1.96-5.23,2.38-7.88l0,0c0,0,0,0,0,0l0.03,0
			c-0.03,0.2-0.02,0.25-0.01,0.29c0.02,0.09,0.03,0.17-0.24,1.45l-0.03,0c-0.03,0.09-0.08,0.27-0.13,0.49
			c-0.07,0.25-0.15,0.56-0.24,0.91c-0.26,0.97-0.66,2.16-0.94,2.84C67.98,50.43,67.77,50.91,67.48,51.55z M69.81,43.94
			c-0.11,0.65-0.24,1.28-0.39,1.92c0.14-0.53,0.15-0.55,0.17-0.55h0c0.24-1.2,0.23-1.27,0.22-1.36
			C69.81,43.96,69.81,43.95,69.81,43.94z"/>
	</g>
	<g>
		<path style="fill:#231815;" d="M59.25,62.52c2.88-2.48,5.23-5.32,7.13-8.75C64.8,56.67,62.14,60.03,59.25,62.52z"/>
		<path style="fill:#231815;" d="M59.26,62.53l-0.02-0.03l0,0l0,0c0,0,0,0,0,0c0.05-0.05,0.11-0.09,0.16-0.14c0,0,0,0,0,0
			c2.46-2.15,4.83-4.98,6.49-7.78l0,0c0.16-0.27,0.32-0.55,0.47-0.83v0h0l0,0l0.03,0.02c-0.15,0.27-0.31,0.55-0.47,0.83c0,0,0,0,0,0
			c-1.73,2.94-3.86,5.49-6.5,7.78c0,0,0,0,0,0C59.37,62.44,59.31,62.49,59.26,62.53z"/>
	</g>
	<g>
		<path style="fill:#231815;" d="M56.72,64.47l0.16-0.13c-0.01-0.01-1.89,1.24-2.7,1.7C55.25,65.42,56.37,64.69,56.72,64.47z"/>
		<path style="fill:#231815;" d="M54.19,66.05l-0.02-0.03c0.13-0.08,0.27-0.16,0.4-0.24l0,0c0.55-0.33,1.29-0.81,1.77-1.12
			c0.49-0.32,0.52-0.34,0.54-0.34h0.01l0.02,0.02l-0.01,0.01l-0.16,0.13c-0.05,0.03-0.12,0.08-0.21,0.13
			c-0.4,0.26-1.15,0.74-1.93,1.2l0,0C54.44,65.91,54.3,65.99,54.19,66.05z"/>
	</g>
</g>
</svg>
