<?xml version="1.0" encoding="utf-8"?>
<!-- Generator: Adobe Illustrator 16.0.0, SVG Export Plug-In . SVG Version: 6.00 Build 0)  -->
<!DOCTYPE svg PUBLIC "-//W3C//DTD SVG 1.1//EN" "http://www.w3.org/Graphics/SVG/1.1/DTD/svg11.dtd">
<svg version="1.1" id="图层_1" xmlns="http://www.w3.org/2000/svg" xmlns:xlink="http://www.w3.org/1999/xlink" x="0px" y="0px"
	 width="174px" height="133.44px" viewBox="0 0 174 133.44" style="enable-background:new 0 0 174 133.44;" xml:space="preserve">
<path style="fill-rule:evenodd;clip-rule:evenodd;fill:#040000;" d="M44.64,0c0.19,0.25,0.09,0.07,0.24,0.48c-0.08,0-0.16,0-0.24,0
	C44.64,0.32,44.64,0.16,44.64,0z"/>
<path style="fill-rule:evenodd;clip-rule:evenodd;fill:#040000;" d="M44.88,0.48c1.31,1.32,3.37,5.6,3.84,7.68
	c-0.08,0-0.16,0-0.24,0c0-0.08,0-0.16,0-0.24c-0.08,0-0.16,0-0.24,0C47.02,5.77,45.3,3.29,44.88,0.48z"/>
<path style="fill-rule:evenodd;clip-rule:evenodd;fill:#040000;" d="M126,6.48c0.76,0.67,2.33,3.12,1.92,4.08c0,0.08,0,0.16,0,0.24
	c-0.16,0-0.32,0-0.48,0c-0.15-0.26-0.48-1.26-0.72-1.44c-0.81-0.6-1,0.08-1.44-0.96c-0.29-0.49-0.14-0.98,0.24-1.44
	C125.7,6.75,125.82,6.69,126,6.48z"/>
<path style="fill-rule:evenodd;clip-rule:evenodd;fill:#040000;" d="M130.56,9.36c0.24,0,0.48,0,0.72,0
	c0.33,0.61,0.46,0.84,0.48,1.92c-0.21,0.54,0.53,1.51,0.24,1.92c0,0.08,0,0.16,0,0.24c-0.43-0.38-0.31-0.47-0.96-0.72
	c0,0.32,0,0.64,0,0.96c0.39,0.32,0.27,0.15,0.48,0.72c-0.08,0-0.16,0-0.24,0c-0.57-0.63-1.13-1.01-1.44-1.92
	c0.26-0.22,0.02,0.02,0.24-0.24c0.68,0.08,0.5,0.25,0.96,0C130.08,11.5,130.04,10.33,130.56,9.36z"/>
<path style="fill-rule:evenodd;clip-rule:evenodd;fill:#040000;" d="M124.08,14.64c-0.02-1.14-0.08-1.42,0-2.16
	c0.47-0.39,0.88-1.17,1.2-1.68c0.65,0.33,0.87,0.13,1.2,0.72c0.32,0.42,0.56,1.15,0.72,1.68c0.16,0,0.32,0,0.48,0
	c-0.14-0.59-0.2-0.88,0.24-1.44c0.07,2.18,1.05,2.55,1.2,4.56c-0.16,0-0.32,0-0.48,0C128.08,15.43,125.4,14.7,124.08,14.64z"/>
<path style="fill-rule:evenodd;clip-rule:evenodd;fill:#040000;" d="M114.96,12.24c0.24,0,0.48,0,0.72,0c0,0.16,0,0.32,0,0.48
	c0.06,0.23,0.19,0.09,0,0.24c-0.26,0.18-0.23,0.14-0.72,0.24C114.87,12.62,114.81,12.83,114.96,12.24z"/>
<path style="fill-rule:evenodd;clip-rule:evenodd;fill:#040000;" d="M51.12,15.84c-0.24,0-0.48,0-0.72,0c0-0.16,0-0.32,0-0.48
	c-0.58-0.63-0.84-1.8-0.96-2.88c0.08,0,0.16,0,0.24,0c0,0.08,0,0.16,0,0.24C50.39,13.41,50.95,14.65,51.12,15.84z"/>
<path style="fill-rule:evenodd;clip-rule:evenodd;fill:#040000;" d="M120.72,13.68c0.24,0,0.48,0,0.72,0
	c0.71,1.09,1.61,2.54,2.88,3.12c-0.3,1.16-0.35,0.6,0,1.68c-0.24-0.08-0.48-0.16-0.72-0.24c-0.07,1.55-0.69,1.77-0.96,2.64
	c-0.36-0.13-0.41-0.16-0.96-0.24c-0.16,0.6-0.57,0.45-0.24,0.72c0.31,0.22,0.3-0.08,0.72,0.24c-0.45,0.24-0.92,0.49-1.44,0.72
	c0.16,0.48,0.32,0.96,0.48,1.44c-0.57,0.46-0.98,1.37-1.44,1.92c-1.51-0.28-1.98-0.74-1.92-2.64c0.6-0.61,0.38-0.97,0.96-1.2
	c0.45-0.77,1.21-0.5,1.92-0.96c-1.04-0.33-1.87-0.98-1.92-2.4c0.56-0.39,0.56-0.35,0.72-1.2c0.32,0,0.64,0,0.96,0
	c0.08-0.24,0.16-0.48,0.24-0.72C120.18,15.72,120.72,14.53,120.72,13.68z"/>
<path style="fill-rule:evenodd;clip-rule:evenodd;fill:#040000;" d="M154.32,13.68c0.16,0,0.32,0,0.48,0c0,0.08,0,0.16,0,0.24
	C154.38,13.77,154.57,13.87,154.32,13.68z"/>
<path style="fill-rule:evenodd;clip-rule:evenodd;fill:#040000;" d="M119.04,14.16c0.16,0,0.32,0,0.48,0c0,0.08,0,0.16,0,0.24
	C119.1,14.25,119.29,14.35,119.04,14.16z"/>
<path style="fill-rule:evenodd;clip-rule:evenodd;fill:#040000;" d="M130.56,14.4c0.78,0.2,0.37-0.12,0.72,0.48
	C130.71,14.68,130.89,14.78,130.56,14.4z"/>
<path style="fill-rule:evenodd;clip-rule:evenodd;fill:#040000;" d="M131.28,15.12c0.18,0.26,0.14,0.23,0.24,0.72
	c-0.08,0-0.16,0-0.24,0C131.28,15.6,131.28,15.36,131.28,15.12z"/>
<path style="fill-rule:evenodd;clip-rule:evenodd;fill:#040000;" d="M151.68,15.12c0.59,0.31,0.16-0.1,0.48,0.48
	c-0.5,0.31-0.55,0.5-1.2,0.72C151.17,15.67,151.37,15.61,151.68,15.12z"/>
<path style="fill-rule:evenodd;clip-rule:evenodd;fill:#040000;" d="M47.76,15.84c0.61,0.35,0.27-0.05,0.48,0.72
	c-0.16,0-0.32,0-0.48,0C47.76,16.32,47.76,16.08,47.76,15.84z"/>
<path style="fill-rule:evenodd;clip-rule:evenodd;fill:#040000;" d="M129.12,16.32c0.16,0,0.32,0,0.48,0c0,0.08,0,0.16,0,0.24
	C129.18,16.41,129.37,16.51,129.12,16.32z"/>
<path style="fill-rule:evenodd;clip-rule:evenodd;fill:#040000;" d="M109.68,17.04c0.61,0.35,0.27-0.05,0.48,0.72
	c-0.08,0-0.16,0-0.24,0c0-0.08,0-0.16,0-0.24C109.73,17.27,109.84,17.45,109.68,17.04z"/>
<path style="fill-rule:evenodd;clip-rule:evenodd;fill:#040000;" d="M128.4,17.04c0.16,0,0.32,0,0.48,0
	C128.6,17.43,128.78,17.33,128.4,17.04z"/>
<path style="fill-rule:evenodd;clip-rule:evenodd;fill:#040000;" d="M48.72,17.52c0.86,0.59,1.56,1.81,1.68,3.12
	c-0.08,0-0.16,0-0.24,0c0-0.08,0-0.16,0-0.24c-0.08,0-0.16,0-0.24,0C49.38,19.47,48.85,18.93,48.72,17.52z"/>
<path style="fill-rule:evenodd;clip-rule:evenodd;fill:#040000;" d="M150.48,17.52c0.59,0.31,0.16-0.1,0.48,0.48
	c-0.08,0-0.16,0-0.24,0c-0.22,0.22-0.42,0.32-0.72,0.48C150.17,17.92,150.25,17.94,150.48,17.52z"/>
<path style="fill-rule:evenodd;clip-rule:evenodd;fill:#040000;" d="M134.88,18.24c0.61,0.35,0.27-0.05,0.48,0.72
	C134.58,18.6,134.89,18.91,134.88,18.24z"/>
<path style="fill-rule:evenodd;clip-rule:evenodd;fill:#040000;" d="M61.92,18.48c0.56,0.07,0.59,0.11,0.96,0.24
	c-0.15,0.42-0.05,0.23-0.24,0.48c-0.26,0.18-0.23,0.14-0.72,0.24C61.83,18.86,61.77,19.07,61.92,18.48z"/>
<path style="fill-rule:evenodd;clip-rule:evenodd;fill:#040000;" d="M112.56,27.84c0.16-0.82,0.57-0.77,0.72-1.2
	c0.33-0.97-0.66-1.6-0.48-2.88c0.85-0.57,0.86-0.93,2.4-0.96c0.46-0.25,1.07,0.02,1.92,0c0.36,1.38,0.25,1.47,0,2.88
	c1.1,0.58,1.71,2.58,2.16,3.84c0.84-0.4,1.58-0.67,2.4,0c0.82,1.13,0.53,2.15,0.24,3.36c-0.4,0-0.8,0-1.2,0
	c-0.53-0.81-1.17-1.5-1.68-2.4c-0.08,0-0.16,0-0.24,0c0,0.16,0,0.32,0,0.48c-0.18,0.26-0.14,0.23-0.24,0.72
	c0.87,0.51,1.23,0.98,1.68,1.92c-0.16,0-0.32,0-0.48,0c0,0.08,0,0.16,0,0.24c-0.08,0-0.16,0-0.24,0c-0.31-1.2-0.91-1.46-1.92-1.92
	c0,0.16,0,0.32,0,0.48c2.23,1.48,6.25,6.92,6.96,9.84c0.16,0,0.32,0,0.48,0c0-0.96,0-1.92,0-2.88c-0.19-0.25-0.08-0.07-0.24-0.48
	c0.94-0.04,0.82-1.38,1.44-2.4c1.13-1.85,3.76-3.56,4.56-5.28c-0.48,0-0.96,0-1.44,0c-0.96,0.96-2.74,2.7-4.32,2.88
	c-0.08-0.24-0.16-0.48-0.24-0.72c3.72-2.98,3.7-3.25,9.12-1.92c0.8,1.19,1.88,1.57,2.16,3.36c-1.3,1.47-1.88,4.56-3.12,6.24
	c-1.04,1.42-3.79,2.36-4.56,3.6c1.09,0.62,1.42,2.2,1.44,3.84c-0.55,0.29-0.54,0.39-1.44,0.48c-0.31-0.21-0.59-0.21-1.2-0.24
	c0.08,0.83,1.4,9.2,1.68,9.6c0.28,0.19,0.4,0.19,0.96,0.24c1.35-0.82,3.54-0.29,5.28-0.72c2.1-0.52,4.49-1.07,6.48-1.92
	c3.19-1.36,5.78-3.93,8.64-5.52c1.33-0.73,3.62-1.15,4.8-1.92c1.23-0.8,0.94-2.33,2.88-2.88c0,0.08,0,0.16,0,0.24
	c-0.4,0.49-0.76,1.28-0.96,1.92c0.24,0,0.48,0,0.72,0c0.69-0.47,2-0.49,3.12-0.48c0.97,2.83,2.43,0.72,2.4,5.52
	c-0.27,0.33-0.36,0.69-0.48,1.2c-0.8,0.5-1.58,1.17-2.64,1.44c-1.31,0.33-3.05-0.1-4.08,0.24c0,0.08,0,0.16,0,0.24
	c1.18,0.13,2.06,0.69,2.4,1.68c-0.4,0-0.8,0-1.2,0c-1.78-1.76-5.58,0-7.44,0.48c-0.38,0.92-0.44,1.53-1.68,1.68
	c-0.1-0.28-0.28-1.13-0.48-0.48c-7.5,3.59-12.73,11.65-15.84,19.68c-0.6,1.54-2.76,6.79-1.92,8.64c0.75,2.04,3.12,2.59,3.6,5.04
	c-2.55-0.14-4.38-1.4-6.72-0.48c0,0.08,0,0.16,0,0.24c0.08,0,0.16,0,0.24,0c0.24,0.19,0.66,0.35,0.96,0.48
	c-0.15,0.42-0.05,0.23-0.24,0.48c-1.24,1.09-3.25,1.42-4.56,2.4c-2.51,1.88-3.59,6.41-4.08,9.6c2.14,1.28,4.72,1.72,7.2,2.88
	c1.77,0.83,3.63,2.44,5.76,3.36c0,0.24,0,0.48,0,0.72c-0.97-0.16-1.23-0.83-2.16-0.72c-0.15,0.02-1.68,0.72-1.68,0.72
	c-0.64-0.4,0.19-0.58-1.2-0.72c-0.21,0.29-0.2,0.27-0.48,0.48c-0.13-0.75-0.05-0.58-0.48-0.96c-0.53-0.43-1.31-0.62-2.16-0.72
	c0.02,0.61,0.03,0.89,0.24,1.2c0.58,1.74,5.34,6.35,6.96,7.2c1.35,0.72,2.92,0.55,3.6,1.92c0.18,0.26,0.14,0.23,0.24,0.72
	c-1.3-0.04-3.23-0.44-3.84-1.2c-0.08-0.4-0.16-0.8-0.24-1.2c-0.46-0.52-1.59-0.77-2.16-1.2c-1.2-0.9-4.58-4.32-5.52-5.52
	c-1.31-1.67-1.78-3.63-3.84-4.56c0,0.4,0,0.8,0,1.2c0.49,0.67,0.36,1.52,0.72,2.4c1.17,2.83,2.67,4.79,5.04,6.48
	c-0.78,0.2-0.37-0.12-0.72,0.48c1.1,0.78,1.29,2.08,2.88,2.4c0.26-0.18,0.23-0.14,0.72-0.24c-0.16,0.79-0.24,0.56-0.48,1.2
	c1.03,0.73,1.75,1.99,2.64,2.88c2.06,2.06,4.39,3.98,6.24,6.24c0.53,0.65,0.61,1.36,1.2,1.92c-0.15,0.42-0.05,0.23-0.24,0.48
	c-0.37,0.25-0.98,0.25-1.68,0.24c-0.57-0.58-3.62-2.53-3.84-2.88c-0.67-1.03-0.41-2.32-0.96-3.36c-1.15-2.17-7.31-8.91-9.36-10.08
	c-1.36-0.24-2.72-0.48-4.08-0.72c-0.94-0.35-1.69-1.13-2.88-1.44c-0.09,0.14-0.36,0.87-0.48,0.96c-0.91,0.68-2.88,0.74-4.08,1.2
	c-0.86,0.33-1.47,1.51-2.4,1.68c-0.71,0.13-1.91-0.63-2.88-0.72c0,0.16,0,0.32,0,0.48c0.6,0.38,0.94,0.69,1.2,1.44
	c-0.08,0-0.16,0-0.24,0c-2.56-3.17-10.86-8.02-16.08-6.72c-0.03,0.9,0.11,0.84-0.48,1.2c-0.44,0.02-0.21-0.23-0.48,0.24
	c-0.81,0.89-0.69,2.62-1.44,3.6c-0.26,0.18-0.23,0.14-0.72,0.24c0-0.08,0-0.16,0-0.24c-0.08,0-0.16,0-0.24,0
	c-0.05-2.53-1.13-4.41-2.4-5.76c-0.98,0.26-0.73,0.31-1.68,0.48c-1.4,3.18-2.05,8.27-2.88,11.76c-1.07,0.37-1.11,0.87-2.64,0.96
	c0-0.16,0-0.32,0-0.48c-0.36-0.57-0.36-2.44-0.48-3.12c-0.16,0-0.32,0-0.48,0c0.05,1.62-0.2,2.23-0.72,3.12
	c-0.26-0.22-0.02,0.02-0.24-0.24c-0.48-0.33-0.5-0.32-0.72-0.96c-1.56-1.94,0.29-5.92,0.72-7.68c0.4,0,0.8,0,1.2,0
	c0.4,0.43,2.29,1.86,2.4,1.68c0.65-1.01,0.91-3.19,0.96-4.56c-0.08,0-0.16,0-0.24,0c-0.6,0.9-1.35,1.2-2.88,1.2
	c-1.87-2.9-4.89-3.78-6.96-6c-0.64,0-1.28,0-1.92,0c-0.29,0.49-0.4,0.7-0.96,0.96c-0.19-0.16-0.54-0.31-0.72-0.48
	c-0.19-0.28-0.19-0.4-0.24-0.96c0.8-0.43,0.51-0.45,0.96-1.2c-0.24,0-0.48,0-0.72,0c-0.4,0.58-0.89,0.77-1.2,1.44
	c0.77,0.34,0.89,0.63,0.96,1.68c-0.68,0.79-0.37,1.42-1.68,1.68c-0.45-0.91-0.46-1.9-1.2-2.16c-0.94,1.14-3.97,3.47-5.28,2.88
	c-0.19-0.28-0.19-0.4-0.24-0.96c0.62-0.55,1.05-1.12,1.44-1.92c-0.16,0-0.32,0-0.48,0c-1.25,1.77-3.5,3.02-5.04,4.56
	c-2,2-3.1,4.36-5.76,5.76c0-0.16,0-0.32,0-0.48c0.88-0.62,0.7-1.74,1.44-2.4c3.8-3.41,7.31-7.07,11.04-10.56c0-0.16,0-0.32,0-0.48
	c-0.24,0-0.48,0-0.72,0c-2.75,1.83-6.83,1.08-7.92,4.56c0.32,0,0.64,0,0.96,0c0.83-0.69,2.17-1.16,3.36-1.44c0,0.16,0,0.32,0,0.48
	c-0.08,0-0.16,0-0.24,0c-0.64,0.73-1.4,0.53-2.4,0.96c-1.22,0.52-3.07,1.85-3.84,2.88c-3.35,4.45-5.09,12.44-11.28,13.92
	c0-0.24,0-0.48,0-0.72c1.29-1.36,1.8-3.48,2.88-5.04c0.61-0.88,2.3-2.14,2.64-3.12c-0.08-0.4-0.16-0.8-0.24-1.2
	c1.82-0.03,3.01-2.99,4.08-4.56c1.35-1.98,3.15-4.4,3.84-6.96c0.42-1.58-0.65-3.58-0.96-4.8c-0.59-2.35-0.49-5.12-2.4-6
	c-2,0-4,0-6,0c0-0.48,0-0.96,0-1.44c0.36-0.13,0.41-0.16,0.96-0.24c0.78,0.63,1.91,0.74,3.36,0.72c0.08-0.24,0.16-0.48,0.24-0.72
	c-1.04,0.01-1.9-0.09-2.64-0.24c0-0.24,0-0.48,0-0.72c0.44-0.41,0.74-0.79,0.96-1.44c0.25-0.6-0.37-1.1-0.72-1.68
	c-0.61-1-0.98-2.25-1.92-2.88c-1.27-0.85-3.33-0.56-4.08-1.92c0.51-0.69,0.4-1.35,0.24-2.16c-1.54-0.46-2.58-1.85-3.84-2.64
	c-2.4-1.51-5.45-2.82-8.16-3.84C16.92,72.54-0.19,77.13,0,64.56c10.3-0.24,15.89,5.52,22.8,8.88c4.31,2.1,9.48,1.9,15.36,1.92
	c0.53-0.87,1.18-0.77,1.44-1.92c-0.24-0.72-0.48-1.44-0.72-2.16c-0.16,0-0.32,0-0.48,0c-0.84,1.32-2.23,2.56-4.32,2.64
	c-1.89-3-5.6-1.05-7.68,0.24c0-0.16,0-0.32,0-0.48c-0.67-0.72-0.74-1.94-0.72-3.36c0.08,0,0.16,0,0.24,0c0-0.08,0-0.16,0-0.24
	c2.01-0.31,2.42-0.12,4.56,0c0.04-1.54-0.08-2.78-0.48-3.84c1.79-0.24,3.16-0.6,4.8,0c0-0.16,0-0.32,0-0.48
	c-0.82-0.61-1.34-1.54-1.44-2.88c0.36-0.13,0.41-0.16,0.96-0.24c0.26,0.18,0.23,0.14,0.72,0.24c0-0.08,0-0.16,0-0.24
	c-0.64-0.78-0.86-1.81-1.44-2.64c-1.48-2.11-3.28-3.43-2.88-6.24c0.32,0,0.64,0,0.96,0c0.35,0.36,1.24,0.96,1.44,0.72
	c0.99-0.66,1.85-1.77,1.92-3.36c-0.72-1-0.09-2.24-0.24-3.36c-0.07-0.56-0.81-1.54-0.96-2.16c-0.48-1.93,0.39-3.78,0.72-5.04
	c0.45-0.16,0.94-0.23,1.68-0.24c0.81,0.54,1.45-0.01,2.16-0.24c0.78,2.68,2.72,1.72,5.28,2.64c1.15,0.41,2.16,1.31,3.12,1.92
	c-1.56-2.95-5.93-3.24-7.2-6.24c-0.71-0.87-0.5-2.9-0.24-4.08c0.8,0,1.6,0,2.4,0c0.68,0.54,1.96,0.69,3.12,0.72
	c0.89-1.64,2.15-3.99,4.32-4.32c0.54,0.56,1.36,1.17,2.16,1.44c0.93-1.36,3.07-2.21,3.36-4.08c-0.22-0.22-0.32-0.42-0.48-0.72
	c0.16,0,0.32,0,0.48,0c0.29,0.49,0.4,0.7,0.96,0.96c0.72-0.7,1.69-0.95,3.12-0.96c0,0.08,0,0.16,0,0.24c-0.08,0-0.16,0-0.24,0
	c-0.46,0.48-0.91,0.72-0.96,0.96c0.38,0.39,1.11,0.53,1.44,0.96c1.45,1.89,1.34,4.4,4.32,4.8c0.33-0.3,0.42-0.33,0.96-0.48
	c0.09-1.08,0.39-2.01,1.2-2.4c0.36-0.17,0.43,0.24,0.96,0c0.25-0.33,1.84-4.14,1.92-4.56c-1.91-1.21-3.04-4.32-1.68-6.72
	c0.08,0,0.16,0,0.24,0c0.96,3.78,4.51,6.57,6.48,9.6c1.98-0.38,4.67-0.45,6.72-1.2c1.2-0.44,1.46-1.6,2.88-1.92
	c0.51,0.51,1.05,0.52,1.68,0.96c0.21,0.15,0.31,0.85,0.48,0.96c0.79,0.51,2.75,0.15,3.6,0.72c-1.2-0.08-2.4-0.16-3.6-0.24
	c-0.41,0.62-0.95,0.92-1.44,1.44c0.08,0,0.16,0,0.24,0c0.6,0.63,1.92,0.45,2.4,1.2c0.18,0.26,0.14,0.23,0.24,0.72
	c-0.24,0.08-0.48,0.16-0.72,0.24c-0.87,0.57-2.96,0.51-4.08,0.72c0,0.32,0,0.64,0,0.96c-0.3,0.38-0.15,0.12,0,0.48
	c0.54,0.49,1.61,0.45,2.16,0.96c0.23,0.21,0.25,0.74,0.48,0.96c0.56-0.82,1.87-1.61,2.88-1.92c1.5-0.46,5.22,0.58,5.28,0.48
	c0.51-0.43,0.48-0.7,0.48-1.68c-0.89-1.21-0.97-3-1.92-4.08c1.82-0.5,1.12-2.11,1.92-3.6c1.22-2.28,3.3-5.76,5.76-6.72
	c1.51-0.59,3.94-0.78,4.8,0.24c0.82,1.2,0.75,3.45,1.2,4.32c0.54,0.69,4.37,2.69,4.8,2.4c0.32-0.24,0.64-0.48,0.96-0.72
	c-0.05,0.82-0.22,1.04,0,1.44C111.16,27.43,111.6,27.7,112.56,27.84z"/>
<path style="fill-rule:evenodd;clip-rule:evenodd;fill:#040000;" d="M50.64,18.96c0.24,0.08,0.48,0.16,0.72,0.24
	c0,0.08,0,0.16,0,0.24c-0.24,0-0.48,0-0.72,0C50.64,19.28,50.64,19.12,50.64,18.96z"/>
<path style="fill-rule:evenodd;clip-rule:evenodd;fill:#040000;" d="M108.48,23.04c-0.25-1.21-1.88-2.36,0-2.88
	c0.54,0.57,0.76,0.42,0.96,1.44c-0.3,0.16-0.5,0.26-0.72,0.48c0.78,0.2,0.37-0.12,0.72,0.48c0.06,0.23,0.19,0.09,0,0.24
	C109.16,22.99,109.04,22.99,108.48,23.04z"/>
<path style="fill-rule:evenodd;clip-rule:evenodd;fill:#040000;" d="M24.72,22.08c0.16,0,0.32,0,0.48,0
	c-0.08,0.24-0.16,0.48-0.24,0.72c-0.16,0-0.32,0-0.48,0C24.56,22.56,24.64,22.32,24.72,22.08z"/>
<path style="fill-rule:evenodd;clip-rule:evenodd;fill:#040000;" d="M131.04,22.08c0,0.56,0,1.12,0,1.68c-0.08,0-0.16,0-0.24,0
	c0-0.08,0-0.16,0-0.24c-0.38-0.37-0.53-0.61-0.72-1.2c0.26-0.22,0.02,0.02,0.24-0.24C130.56,22.08,130.8,22.08,131.04,22.08z"/>
<path style="fill-rule:evenodd;clip-rule:evenodd;fill:#040000;" d="M141.12,22.56c0.19,0.25,0.09,0.07,0.24,0.48
	c-0.08,0-0.16,0-0.24,0C141.12,22.88,141.12,22.72,141.12,22.56z"/>
<path style="fill-rule:evenodd;clip-rule:evenodd;fill:#040000;" d="M132.48,22.8c-0.09,0.5-0.06,0.46-0.24,0.72
	c0,0.08,0,0.16,0,0.24c-0.24,0-0.48,0-0.72,0c0.09-0.5,0.06-0.46,0.24-0.72c0-0.08,0-0.16,0-0.24C132,22.8,132.24,22.8,132.48,22.8z
	"/>
<path style="fill-rule:evenodd;clip-rule:evenodd;fill:#040000;" d="M118.56,23.52c0,0.08,0,0.16,0,0.24c-0.08,0-0.16,0-0.24,0
	c-0.46,0.19,0.48,0.24,0.48,0.24C118.65,23.58,118.75,23.77,118.56,23.52z"/>
<path style="fill-rule:evenodd;clip-rule:evenodd;fill:#040000;" d="M140.64,23.52c0.3,0.38,0.15,0.12,0,0.48
	c-0.35,0.55-0.5,0.72-1.2,0.96c0-0.08,0-0.16,0-0.24c0.08,0,0.16,0,0.24,0C139.98,24.14,140.25,23.96,140.64,23.52z"/>
<path style="fill-rule:evenodd;clip-rule:evenodd;fill:#040000;" d="M111.12,23.76c0.61,0.35,0.27-0.05,0.48,0.72
	c-0.08,0-0.16,0-0.24,0c0-0.08,0-0.16,0-0.24C111.17,24,111.28,24.17,111.12,23.76z"/>
<path style="fill-rule:evenodd;clip-rule:evenodd;fill:#040000;" d="M142.8,23.76c0.3,0.38,0.15,0.12,0,0.48
	c-0.42,1.29-1.71,2.54-2.88,3.12c0-0.24,0-0.48,0-0.72C140.91,26.01,142.22,24.79,142.8,23.76z"/>
<path style="fill-rule:evenodd;clip-rule:evenodd;fill:#040000;" d="M105.6,24.72c-0.24,0-0.48,0-0.72,0
	c-0.38,1.13-1.18,1.6-1.44,2.88c0.24,0.08,0.48,0.16,0.72,0.24c0.4,0.32,0.75,0.39,1.44,0.48c0-0.16,0-0.32,0-0.48
	c-0.55-0.55-0.69-1.04-0.72-2.16C105.48,25.33,105.4,25.54,105.6,24.72z"/>
<path style="fill-rule:evenodd;clip-rule:evenodd;fill:#040000;" d="M139.2,24.96c0.3,0.38,0.15,0.12,0,0.48
	c-0.33,0.51-0.69,0.87-1.2,1.2C138.28,25.81,138.77,25.61,139.2,24.96z"/>
<path style="fill-rule:evenodd;clip-rule:evenodd;fill:#040000;" d="M37.92,25.44c0.16,0,0.32,0,0.48,0c0,0.08,0,0.16,0,0.24
	C37.98,25.53,38.17,25.63,37.92,25.44z"/>
<path style="fill-rule:evenodd;clip-rule:evenodd;fill:#040000;" d="M117.84,50.4c0.9-0.13,1.49-0.8,2.64-0.48
	c0.53,0.15,1.7,1.33,1.92,0.96c0.48-0.34,0.5-0.32,0.72-0.96c-0.78-0.17-1.12-0.3-1.44-0.96c0.13-0.26,0.01-2.45,0-3.6
	c0.48-0.16,0.96-0.32,1.44-0.48c-0.57-1.26-1.32-2.41-1.68-3.84c-0.32,0-0.64,0-0.96,0c0.06-0.77,0.24-0.77,0-1.2
	c-0.45-1.56-1.87-3.74-3.12-4.56c-0.03,0.9,0.11,0.84-0.48,1.2c0.06-2.72-2.81-6.11-4.8-6.48c-0.56,0.78-1.26,0.98-2.4,1.2
	c0-0.4,0-0.8,0-1.2c0.32,0,0.64,0,0.96,0c0.31-0.5,0.5-0.55,0.72-1.2c-0.58-0.33-1.07-0.66-1.44-1.2c-0.51,0.26-1.38,1.1-1.44,0.96
	c-0.19-0.28-0.19-0.4-0.24-0.96c0.32,0,0.64,0,0.96,0c0-0.08,0-0.16,0-0.24c-0.71-0.47-0.95-0.92-1.92-1.2
	c0.05,1.3-0.03,2.26-0.96,2.64c-0.73,0.5-1.95,0.05-2.64-0.24c0,0.24,0,0.48,0,0.72c0.6,0.35,0.44,0.3,0.48,1.2
	c-1.12,0.54-1.43,1.23-1.44,2.88c5.87,3.66,10.49,7.78,13.44,14.4C116.62,48.78,117.57,49.22,117.84,50.4z"/>
<path style="fill-rule:evenodd;clip-rule:evenodd;fill:#040000;" d="M114,27.36c0.09,0.5,0.06,0.46,0.24,0.72c0-0.24,0-0.48,0-0.72
	C114.16,27.36,114.08,27.36,114,27.36z"/>
<path style="fill-rule:evenodd;clip-rule:evenodd;fill:#040000;" d="M139.2,27.36c0.5,0.09,0.46,0.06,0.72,0.24
	c-0.64,0.56-1.28,1.12-1.92,1.68c0-0.24,0-0.48,0-0.72C138.52,28.24,138.93,27.95,139.2,27.36z"/>
<path style="fill-rule:evenodd;clip-rule:evenodd;fill:#040000;" d="M29.28,27.6c0.16,0,0.32,0,0.48,0c0,0.08,0,0.16,0,0.24
	C29.34,27.69,29.53,27.79,29.28,27.6z"/>
<path style="fill-rule:evenodd;clip-rule:evenodd;fill:#040000;" d="M121.68,27.84c0.18,0.26,0.14,0.23,0.24,0.72
	c-0.08,0-0.16,0-0.24,0C121.68,28.32,121.68,28.08,121.68,27.84z"/>
<path style="fill-rule:evenodd;clip-rule:evenodd;fill:#040000;" d="M36.72,28.08c0.16,0,0.32,0,0.48,0c0,0.08,0,0.16,0,0.24
	C36.78,28.17,36.97,28.27,36.72,28.08z"/>
<path style="fill-rule:evenodd;clip-rule:evenodd;fill:#040000;" d="M114,28.32c-0.08,0.24-0.16,0.48-0.24,0.72
	c0.16,0,0.32,0,0.48,0C114.15,28.54,114.18,28.58,114,28.32z"/>
<path style="fill-rule:evenodd;clip-rule:evenodd;fill:#040000;" d="M140.16,29.28c0.78,0.2,0.37-0.12,0.72,0.48
	c-1.09,0.73-1.64,1.76-2.88,2.4C138.28,30.71,139.46,30.31,140.16,29.28z"/>
<path style="fill-rule:evenodd;clip-rule:evenodd;fill:#040000;" d="M51.84,29.52c0.16,0,0.32,0,0.48,0c0,0.08,0,0.16,0,0.24
	C51.9,29.61,52.09,29.71,51.84,29.52z"/>
<path style="fill-rule:evenodd;clip-rule:evenodd;fill:#040000;" d="M57.84,36.72c-0.02-2.67-0.94-4.87-2.64-6.48
	c-0.88,0.9-2.11,1.39-2.4,2.88C54.16,34.88,54.75,36.67,57.84,36.72z"/>
<path style="fill-rule:evenodd;clip-rule:evenodd;fill:#040000;" d="M74.4,30.24c-0.5,0.09-0.46,0.06-0.72,0.24
	C73.9,30.7,74,30.9,74.16,31.2c0.08,0,0.16,0,0.24,0C74.4,30.88,74.4,30.56,74.4,30.24z"/>
<path style="fill-rule:evenodd;clip-rule:evenodd;fill:#040000;" d="M136.08,30.48c0.19,0.25,0.09,0.07,0.24,0.48
	c-0.08,0-0.16,0-0.24,0C136.08,30.8,136.08,30.64,136.08,30.48z"/>
<path style="fill-rule:evenodd;clip-rule:evenodd;fill:#040000;" d="M135.6,30.96c0.16,0,0.32,0,0.48,0c0,0.08,0,0.16,0,0.24
	C135.66,31.05,135.85,31.15,135.6,30.96z"/>
<path style="fill-rule:evenodd;clip-rule:evenodd;fill:#040000;" d="M56.88,34.08c-0.24,0-0.48,0-0.72,0c0-0.16,0-0.32,0-0.48
	c-0.27-0.33-0.36-0.69-0.48-1.2c0.26-0.22,0.02,0.02,0.24-0.24c0.16,0.08,0.32,0.16,0.48,0.24C56.67,32.99,56.81,33.18,56.88,34.08z
	"/>
<path style="fill-rule:evenodd;clip-rule:evenodd;fill:#040000;" d="M120.72,34.08c0.27,0.4,0.42,0.26,0,0.48
	C120.72,34.4,120.72,34.24,120.72,34.08z"/>
<path style="fill-rule:evenodd;clip-rule:evenodd;fill:#040000;" d="M136.8,34.56c0.16,0,0.32,0,0.48,0c0,0.08,0,0.16,0,0.24
	c-0.08,0-0.16,0-0.24,0c0,0.08,0,0.16,0,0.24C136.85,34.79,136.96,34.97,136.8,34.56z"/>
<path style="fill-rule:evenodd;clip-rule:evenodd;fill:#040000;" d="M94.8,36.96c-0.08,0.48-0.16,0.96-0.24,1.44
	c0.16,0,0.32,0,0.48,0c0-0.08,0-0.16,0-0.24c0.19-0.25,0.09-0.07,0.24-0.48c0.08,0,0.16,0,0.24,0c0-0.08,0-0.16,0-0.24
	c-0.08,0-0.16,0-0.24,0C94.97,36.85,95.38,37.28,94.8,36.96z"/>
<path style="fill-rule:evenodd;clip-rule:evenodd;fill:#040000;" d="M102,39.6c-0.9,0.05-1.09,0.21-1.68,0.48c0,0.16,0,0.32,0,0.48
	c1.57,0.96,4.17,3.26,4.56,5.28c1.36-0.24,2.72-0.48,4.08-0.72c0.09-0.63-0.18-0.31,0.48-0.48c0.59,0.9,1.69,1.47,2.16,2.4
	c0,0-0.9,1.61-0.72,1.92c0.72,1.48,2.42,0.58,3.12,2.4c-0.16,0-0.32,0-0.48,0c-0.33-0.32-0.76-0.51-1.2-0.72
	c0.1,0.74,0.17,0.57,0,1.2c-0.61-0.61-0.65-1.18-1.68-1.44c-0.25,0.19-0.07,0.09-0.48,0.24c0,0.32,0,0.64,0,0.96
	c0.59,0.31,0.16-0.1,0.48,0.48c-0.24,0-0.48,0-0.72,0c0,0.24,0,0.48,0,0.72c1.63-0.17,2.87-0.24,4.08-0.24
	c0.29-3.45-1.62-5.71-3.36-8.4c-0.57,0.34-0.14,0.41-0.72,0.24l-2.16-3.12c0.08-0.24,0.16-0.48,0.24-0.72
	c-0.64-1.47-2.65-2.36-3.6-3.6c-0.67,0.53-1.88,0.64-2.4,1.2C101.93,38.33,101.98,38.85,102,39.6z"/>
<path style="fill-rule:evenodd;clip-rule:evenodd;fill:#040000;" d="M123.12,36.96c0.24,0.08,0.48,0.16,0.72,0.24
	c0,0.16,0,0.32,0,0.48c-0.16,0-0.32,0-0.48,0C123.28,37.44,123.2,37.2,123.12,36.96z"/>
<path style="fill-rule:evenodd;clip-rule:evenodd;fill:#040000;" d="M102,41.28c0.2-0.78-0.12-0.37,0.48-0.72
	c0.08,0.24,0.16,0.48,0.24,0.72C102.48,41.28,102.24,41.28,102,41.28z"/>
<path style="fill-rule:evenodd;clip-rule:evenodd;fill:#040000;" d="M157.68,40.8c0.27,0.4,0.42,0.26,0,0.48
	C157.68,41.12,157.68,40.96,157.68,40.8z"/>
<path style="fill-rule:evenodd;clip-rule:evenodd;fill:#040000;" d="M105.6,41.76c0.19,0.25,0.09,0.07,0.24,0.48
	c-0.08,0-0.16,0-0.24,0C105.6,42.08,105.6,41.92,105.6,41.76z"/>
<path style="fill-rule:evenodd;clip-rule:evenodd;fill:#040000;" d="M118.32,45.36c0.16,0,0.32,0,0.48,0c0,0.16,0,0.32,0,0.48
	c-0.16,0-0.32,0-0.48,0C118.32,45.68,118.32,45.52,118.32,45.36z"/>
<path style="fill-rule:evenodd;clip-rule:evenodd;fill:#040000;" d="M116.88,46.08c0.4,0,0.8,0,1.2,0c0,0.16,0,0.32,0,0.48
	c-0.63,0.04-0.81,0.1-1.2,0.24C116.88,46.56,116.88,46.32,116.88,46.08z"/>
<path style="fill-rule:evenodd;clip-rule:evenodd;fill:#040000;" d="M24.72,47.28c0.16,0,0.32,0,0.48,0c0,0.08,0,0.16,0,0.24
	C24.78,47.37,24.97,47.47,24.72,47.28z"/>
<path style="fill-rule:evenodd;clip-rule:evenodd;fill:#040000;" d="M123.84,48.48c0,0.08,0,0.16,0,0.24c-0.08,0-0.16,0-0.24,0
	c-0.46,0.19,0.48,0.24,0.48,0.24c0-0.08,0-0.16,0-0.24c0.08,0,0.16,0,0.24,0C124.08,48.53,124.26,48.63,123.84,48.48z"/>
<path style="fill-rule:evenodd;clip-rule:evenodd;fill:#040000;" d="M126,58.56c0.07-2.46-0.6-8.04-1.68-9.36c0,0.08,0,0.16,0,0.24
	c-0.08,0-0.16,0-0.24,0c-0.79,1.34-1.81,2.06-1.92,4.08c1.14,1.25,0.08,3.33,0.48,4.32C123.06,58.86,124.59,58.64,126,58.56z"/>
<path style="fill-rule:evenodd;clip-rule:evenodd;fill:#040000;" d="M114.48,52.32c0.24,0.19,0.07,0.08,0.48,0.24
	C114.72,52.37,114.9,52.48,114.48,52.32z"/>
<path style="fill-rule:evenodd;clip-rule:evenodd;fill:#040000;" d="M24.96,60.96c0.16,0,0.32,0,0.48,0c0,0.08,0,0.16,0,0.24
	C25.02,61.05,25.21,61.15,24.96,60.96z"/>
<path style="fill-rule:evenodd;clip-rule:evenodd;fill:#040000;" d="M140.16,66.96c0.16,0,0.32,0,0.48,0c0,0.08,0,0.16,0,0.24
	C140.22,67.05,140.41,67.15,140.16,66.96z"/>
<path style="fill-rule:evenodd;clip-rule:evenodd;fill:#040000;" d="M149.04,70.32c0.39,0.32,0.27,0.15,0.48,0.72
	c-0.16,0-0.32,0-0.48,0C149.04,70.8,149.04,70.56,149.04,70.32z"/>
<path style="fill-rule:evenodd;clip-rule:evenodd;fill:#040000;" d="M40.56,71.76c0,0.48,0,0.96,0,1.44c0.16,0,0.32,0,0.48,0
	c0-0.48,0-0.96,0-1.44C40.88,71.76,40.72,71.76,40.56,71.76z"/>
<path style="fill-rule:evenodd;clip-rule:evenodd;fill:#040000;" d="M36.96,75.6c-1.46,0.94-4.24,0.23-5.76,1.2
	c1.66,0.23,5.36,1.57,6.72,0.96c0.28-0.42,0.38-1.62,0.48-2.16C37.92,75.6,37.44,75.6,36.96,75.6z"/>
<path style="fill-rule:evenodd;clip-rule:evenodd;fill:#040000;" d="M134.16,77.04c0.16,0,0.32,0,0.48,0c0,0.16,0,0.32,0,0.48
	c-0.16,0-0.32,0-0.48,0C134.16,77.36,134.16,77.2,134.16,77.04z"/>
<path style="fill-rule:evenodd;clip-rule:evenodd;fill:#040000;" d="M33.6,80.64c0.43,0.56,0.45,0.41-0.24,0.72
	C33.44,81.12,33.52,80.88,33.6,80.64z"/>
<path style="fill-rule:evenodd;clip-rule:evenodd;fill:#040000;" d="M169.2,80.88c0.18,0.26,0.14,0.23,0.24,0.72
	c-0.16,0-0.32,0-0.48,0C169.04,81.36,169.12,81.12,169.2,80.88z"/>
<path style="fill-rule:evenodd;clip-rule:evenodd;fill:#040000;" d="M50.64,84.48c0,1.13,0.18,1.67,0.48,2.4
	c0.26-0.22,0.02,0.02,0.24-0.24c0.35-0.5,0.44-1.36,0.48-2.16C51.44,84.48,51.04,84.48,50.64,84.48z"/>
<path style="fill-rule:evenodd;clip-rule:evenodd;fill:#040000;" d="M159.36,85.68c0.8,0.02,1.09,0.12,1.68,0.24
	c0,0.24,0,0.48,0,0.72c-0.64,0-1.28,0-1.92,0c-0.16-0.45-0.23-0.94-0.24-1.68c0.16,0,0.32,0,0.48,0
	C159.36,85.2,159.36,85.44,159.36,85.68z"/>
<path style="fill-rule:evenodd;clip-rule:evenodd;fill:#040000;" d="M161.76,86.64c1.21,0.01,1.54,0.25,2.4,0.48
	c0.23,0.42,0.3,0.4,0.48,0.96c-0.48,0-0.96,0-1.44,0c-0.33-0.3-0.42-0.33-0.96-0.48C162.01,87.18,161.94,87.2,161.76,86.64z"/>
<path style="fill-rule:evenodd;clip-rule:evenodd;fill:#040000;" d="M27.12,87.12c0.5,0.38,0.75,0.76,0.96,1.44
	c-0.48,0-0.96,0-1.44,0C26.49,87.71,26.67,87.86,27.12,87.12z"/>
<path style="fill-rule:evenodd;clip-rule:evenodd;fill:#040000;" d="M166.08,88.32c0.69,0.02,1.03,0.09,1.44,0.24
	c-0.16,0.24-0.32,0.48-0.48,0.72c-0.24-0.08-0.48-0.16-0.72-0.24C166.24,88.8,166.16,88.56,166.08,88.32z"/>
<path style="fill-rule:evenodd;clip-rule:evenodd;fill:#040000;" d="M171.36,89.04c-0.24,0.88-0.48,1.76-0.72,2.64
	c-0.26-0.22-0.02,0.02-0.24-0.24c-0.77-0.38-0.86-0.32-0.96-1.44c0.44-0.31,0.41-0.47,0.96-0.72
	C170.68,89.09,170.8,89.09,171.36,89.04z"/>
<path style="fill-rule:evenodd;clip-rule:evenodd;fill:#040000;" d="M24.48,89.76c0.16,0,0.32,0,0.48,0
	c-0.22,0.26,0.02,0.02-0.24,0.24c0,0.08,0,0.16,0,0.24C24.53,90,24.64,90.17,24.48,89.76z"/>
<path style="fill-rule:evenodd;clip-rule:evenodd;fill:#040000;" d="M42.24,90.24c0.56,0.07,0.59,0.11,0.96,0.24
	c0,0.08,0,0.16,0,0.24c-0.08,0-0.16,0-0.24,0C42.39,91.37,42.26,90.47,42.24,90.24z"/>
<path style="fill-rule:evenodd;clip-rule:evenodd;fill:#040000;" d="M23.28,90.48c0.7,0.25,0.56,0.44,1.2,0.72
	c0.45-0.43,0.19-0.44,0.72-0.24c0.59,0.31,0.16-0.1,0.48,0.48c-1.28,0.03-1.22,0.35-1.68,0.48c-0.57,0.16-2.6-0.24-3.6-0.24
	c-0.08-0.24-0.16-0.48-0.24-0.72c0.16,0,0.32,0,0.48,0C21.65,90.38,22.57,91.19,23.28,90.48z"/>
<path style="fill-rule:evenodd;clip-rule:evenodd;fill:#040000;" d="M167.76,90.72c0.24,0.08,0.48,0.16,0.72,0.24
	c-0.15,0.42-0.05,0.23-0.24,0.48c-0.27,0.37-0.26,0.2-0.48,0.72c-0.08,0-0.16,0-0.24,0C167.54,91.47,167.62,91.13,167.76,90.72z"/>
<path style="fill-rule:evenodd;clip-rule:evenodd;fill:#040000;" d="M40.32,91.2c0.73,0.02,0.66,0.18,0.96,0
	c0.18,0.26,0.14,0.23,0.24,0.72c0.18,0.26,0.14,0.23,0.24,0.72c-0.57-0.07-0.86,0.05-1.68,0.24c-0.27-0.5-0.34-0.44-0.48-1.2
	C39.9,91.52,40.1,91.42,40.32,91.2z"/>
<path style="fill-rule:evenodd;clip-rule:evenodd;fill:#040000;" d="M169.44,91.92c0.19,0.28,0.19,0.4,0.24,0.96
	c-0.7,0.25-0.56,0.44-1.2,0.72c0,0.08,0,0.16,0,0.24c-0.08,0-0.16,0-0.24,0c0-0.08,0-0.16,0-0.24c-0.45-0.62-0.33-0.71-0.24-1.44
	C168.65,92.16,169.1,92.15,169.44,91.92z"/>
<path style="fill-rule:evenodd;clip-rule:evenodd;fill:#040000;" d="M171.36,91.92c0.64,0,1.28,0,1.92,0
	c0.24,0.64,0.48,1.28,0.72,1.92c-0.9,0.16-0.99,0.41-1.44,0.96c-0.16,0-0.32,0-0.48,0c-0.47-0.97-1.03-0.74-1.2-2.16
	C171.1,92.42,171.2,92.22,171.36,91.92z"/>
<path style="fill-rule:evenodd;clip-rule:evenodd;fill:#040000;" d="M42.48,92.16c0.5,0.09,0.46,0.06,0.72,0.24
	c-0.08,0-0.16,0-0.24,0c-0.25,0.19-0.07,0.09-0.48,0.24C42.48,92.48,42.48,92.32,42.48,92.16z"/>
<path style="fill-rule:evenodd;clip-rule:evenodd;fill:#040000;" d="M59.28,92.88c-0.13,0.36-0.16,0.41-0.24,0.96
	c0.16,0,0.32,0,0.48,0c0.16-0.24,0.32-0.48,0.48-0.72c-0.08,0-0.16,0-0.24,0C59.52,92.93,59.7,93.04,59.28,92.88z"/>
<path style="fill-rule:evenodd;clip-rule:evenodd;fill:#040000;" d="M149.52,93.84c0.78,0.2,0.37-0.12,0.72,0.48
	c-0.24,0.08-0.48,0.16-0.72,0.24C149.52,94.32,149.52,94.08,149.52,93.84z"/>
<path style="fill-rule:evenodd;clip-rule:evenodd;fill:#040000;" d="M59.04,94.08c0.42,0.26,0.55,0.25,0.96,0
	C59.68,94.08,59.36,94.08,59.04,94.08z"/>
<path style="fill-rule:evenodd;clip-rule:evenodd;fill:#040000;" d="M59.52,94.8c0,0.16,0,0.32,0,0.48
	c0.24,0.08,0.48,0.16,0.72,0.24c0-0.16,0-0.32,0-0.48c-0.08,0-0.16,0-0.24,0C59.76,94.85,59.94,94.96,59.52,94.8z"/>
<path style="fill-rule:evenodd;clip-rule:evenodd;fill:#040000;" d="M134.4,95.28c0.07,0.09,0.48,0.33,0.24,0.72
	C134.04,95.54,134.62,95.65,134.4,95.28z"/>
<path style="fill-rule:evenodd;clip-rule:evenodd;fill:#040000;" d="M170.64,95.28c0.19,0.25,0.09,0.07,0.24,0.48
	c-0.08,0-0.16,0-0.24,0C170.64,95.6,170.64,95.44,170.64,95.28z"/>
<path style="fill-rule:evenodd;clip-rule:evenodd;fill:#040000;" d="M149.52,105.12c-3.35-0.44-9.63-4.7-9.6-8.64
	c0.08,0,0.16,0,0.24,0c0,0.16,0,0.32,0,0.48c1.05,0.68,1.98,1.81,3.12,2.4c1.52,0.79,3.01,0.97,4.32,1.92
	c0.56,0.72,1.12,1.44,1.68,2.16C149.36,104,149.44,104.56,149.52,105.12z"/>
<path style="fill-rule:evenodd;clip-rule:evenodd;fill:#040000;" d="M35.04,97.92c0.5,0.09,0.46,0.06,0.72,0.24
	c-2.35,1.59-3.04,4.51-6.96,4.56c-0.33-0.3-0.42-0.33-0.96-0.48c0.22-0.26-0.02-0.02,0.24-0.24
	C30.28,100.37,33.38,100.05,35.04,97.92z"/>
<path style="fill-rule:evenodd;clip-rule:evenodd;fill:#040000;" d="M37.2,98.64c0.5,0.09,0.46,0.06,0.72,0.24
	C37.42,98.79,37.46,98.82,37.2,98.64z"/>
<path style="fill-rule:evenodd;clip-rule:evenodd;fill:#040000;" d="M32.88,101.52c0.16,0,0.32,0,0.48,0
	C33.08,101.91,33.26,101.81,32.88,101.52z"/>
<path style="fill-rule:evenodd;clip-rule:evenodd;fill:#040000;" d="M90.48,105.84c0.32,0.39,0.15,0.27,0.72,0.48
	c0-0.16,0-0.32,0-0.48C90.96,105.84,90.72,105.84,90.48,105.84z"/>
<path style="fill-rule:evenodd;clip-rule:evenodd;fill:#040000;" d="M94.56,108c-0.15,0.83-0.49,1.19-0.96,1.68
	c-0.23-0.42-0.3-0.4-0.48-0.96c0.42-0.15,0.23-0.05,0.48-0.24c-1.21,0.02-3.36,0.11-3.84,0.96c0.3,0.33,0.33,0.42,0.48,0.96
	c3.09,0.48,4.1,2.83,8.4,2.88c-0.22,1.34,4.56,3.62,6.72,3.6c0.38-0.5,0.76-0.75,1.44-0.96c-0.04,1.01-0.16,1.3,0,1.92
	c0.72-0.34,1.35-0.71,1.68-1.44c-0.49-0.29-0.7-0.4-0.96-0.96c0.16,0,0.32,0,0.48,0c0.57,0.89,2.32,1.07,2.88,0
	c-0.61-0.35-0.37-0.11-0.48-0.96c0.74,0.02,0.97,0.14,1.2,0c0.36,0.37,0.19,0.44,0.72,0.72c0-0.08,0-0.16,0-0.24
	c0.82-1.01,0.19-1.66,2.16-1.68c0.16-0.96,0.47-1.05,0.72-1.92c-0.94-0.31-1.67-1.16-2.16-1.92c-1.18,0.59-1.95,1.22-3.6,1.44
	c-0.08-0.16-0.16-0.32-0.24-0.48c0.94-0.46,2.01-0.6,2.4-1.68c-2.96,0.57-3.31-1.69-6-1.92c-1.19-0.37-5.3,2.14-6,2.88
	c-1.72-0.56-2.12-1.77-3.84-1.92C95.45,107.97,95.17,107.97,94.56,108z"/>
<path style="fill-rule:evenodd;clip-rule:evenodd;fill:#040000;" d="M31.68,107.04c0.16,0,0.32,0,0.48,0c0,0.08,0,0.16,0,0.24
	C31.74,107.13,31.93,107.23,31.68,107.04z"/>
<path style="fill-rule:evenodd;clip-rule:evenodd;fill:#040000;" d="M87.36,108.96c-0.51,1.76-1.85,1.13-1.92,2.88
	c0.67,0.85,0.76,2.25,1.44,3.12c0.07-1.52,0-2.4,0.72-3.6c0.49-0.81,1.29-0.57,1.68-1.68C88.01,109.6,88.24,109.3,87.36,108.96z"/>
<path style="fill-rule:evenodd;clip-rule:evenodd;fill:#040000;" d="M28.32,109.2c0.16,0,0.32,0,0.48,0c0,0.16,0,0.32,0,0.48
	c-0.16,0-0.32,0-0.48,0C28.32,109.52,28.32,109.36,28.32,109.2z"/>
<path style="fill-rule:evenodd;clip-rule:evenodd;fill:#040000;" d="M102.24,109.2c0.61,0.31,0.69,0.26,0.96,0.96
	c-0.24,0-0.48,0-0.72,0C102.08,109.52,102.11,109.97,102.24,109.2z"/>
<path style="fill-rule:evenodd;clip-rule:evenodd;fill:#040000;" d="M36,109.44c0.16,0,0.32,0,0.48,0c0,0.08,0,0.16,0,0.24
	C36.06,109.53,36.25,109.63,36,109.44z"/>
<path style="fill-rule:evenodd;clip-rule:evenodd;fill:#040000;" d="M43.68,109.92c0.24,0,0.48,0,0.72,0
	c0.15,0.42,0.05,0.23,0.24,0.48c-0.15,0.42-0.05,0.23-0.24,0.48c0,0.08,0,0.16,0,0.24c-0.16,0-0.32,0-0.48,0
	C43.59,110.43,43.52,110.67,43.68,109.92z"/>
<path style="fill-rule:evenodd;clip-rule:evenodd;fill:#040000;" d="M94.8,110.64c0.16,0,0.32,0,0.48,0
	C95,111.03,95.18,110.93,94.8,110.64z"/>
<path style="fill-rule:evenodd;clip-rule:evenodd;fill:#040000;" d="M71.04,112.32c-0.78-0.2-0.37,0.12-0.72-0.48
	c0.42-0.23,0.4-0.3,0.96-0.48c0,0.08,0,0.16,0,0.24C71.1,111.86,71.14,111.83,71.04,112.32z"/>
<path style="fill-rule:evenodd;clip-rule:evenodd;fill:#040000;" d="M112.32,111.6c0.74,0.25,0.7,0.23,0.96,0.96
	c-0.26,0.22-0.02-0.02-0.24,0.24c-0.26-0.22-0.02,0.02-0.24-0.24C112.5,112.23,112.47,112.14,112.32,111.6z"/>
<path style="fill-rule:evenodd;clip-rule:evenodd;fill:#040000;" d="M61.44,112.56c0.32,0,0.64,0,0.96,0
	c0.2,0.35,0.43,0.69,0.72,0.96c-0.16,1.01-0.18,2.91-0.72,3.6c-0.44,0.45-0.63,0.58-1.44,0.72c-0.2-0.7-0.33-0.62-0.48-1.44
	c0.65-0.93,0.26-2.36,0.48-3.6C61.38,112.65,61.19,112.75,61.44,112.56z"/>
<path style="fill-rule:evenodd;clip-rule:evenodd;fill:#040000;" d="M116.16,112.56c-0.12,1.24-0.52,1.25-0.72,2.4
	c0.86,0.22,4.26,2.01,4.8,1.44c0.26-0.22,0.02,0.02,0.24-0.24C118.81,115.25,117.74,113.6,116.16,112.56z"/>
<path style="fill-rule:evenodd;clip-rule:evenodd;fill:#040000;" d="M58.32,113.28c0.16,0,0.32,0,0.48,0c0,0.08,0,0.16,0,0.24
	C58.38,113.37,58.57,113.47,58.32,113.28z"/>
<path style="fill-rule:evenodd;clip-rule:evenodd;fill:#040000;" d="M67.2,114.24c0.24,0,0.48,0,0.72,0
	c-0.07,0.56-0.11,0.59-0.24,0.96c-0.16,0-0.32,0-0.48,0C67.2,114.88,67.2,114.56,67.2,114.24z"/>
<path style="fill-rule:evenodd;clip-rule:evenodd;fill:#040000;" d="M37.68,114.48c0.39,0.32,0.27,0.15,0.48,0.72
	c-0.24,0-0.48,0-0.72,0C37.52,114.96,37.6,114.72,37.68,114.48z"/>
<path style="fill-rule:evenodd;clip-rule:evenodd;fill:#040000;" d="M70.08,118.32c-0.24,0-0.48,0-0.72,0
	c0.07-0.56,0.11-0.59,0.24-0.96c0.26,0.22,0.02-0.02,0.24,0.24C70.02,117.86,69.99,117.83,70.08,118.32z"/>
<path style="fill-rule:evenodd;clip-rule:evenodd;fill:#040000;" d="M63.36,117.84c0.56,0.07,0.59,0.11,0.96,0.24
	c0,0.16,0,0.32,0,0.48c-0.16,0-0.32,0-0.48,0c0,0.08,0,0.16,0,0.24c-0.08,0-0.16,0-0.24,0c0-0.08,0-0.16,0-0.24
	C63.42,118.3,63.46,118.33,63.36,117.84z"/>
<path style="fill-rule:evenodd;clip-rule:evenodd;fill:#040000;" d="M125.76,117.84c1.28,0.07,2.05,0.46,3.12,0.72
	c0,0.16,0,0.32,0,0.48c-0.32,0-0.64,0-0.96,0C127.28,118.55,126.34,118.39,125.76,117.84z"/>
<path style="fill-rule:evenodd;clip-rule:evenodd;fill:#040000;" d="M46.8,120c0.3,0.38,0.15,0.12,0,0.48
	c-0.06,0.11-0.25,1-0.72,0.48C46.32,120.64,46.56,120.32,46.8,120z"/>
<path style="fill-rule:evenodd;clip-rule:evenodd;fill:#040000;" d="M105.84,120c0.6,0.38,0.94,0.69,1.2,1.44c-0.08,0-0.16,0-0.24,0
	C106.43,120.87,106.1,120.74,105.84,120z"/>
<path style="fill-rule:evenodd;clip-rule:evenodd;fill:#040000;" d="M123.12,120c0.32,0,0.64,0,0.96,0c0.31,0.5,0.5,0.55,0.72,1.2
	c-0.08,0-0.16,0-0.24,0c-0.28,0.19-0.4,0.19-0.96,0.24c-0.25-0.19-0.07-0.08-0.48-0.24C122.95,120.61,122.95,120.59,123.12,120z"/>
<path style="fill-rule:evenodd;clip-rule:evenodd;fill:#040000;" d="M65.04,122.16c0-0.4,0-0.8,0-1.2c0.56-0.27,0.8-0.51,1.44-0.72
	c0,0.4,0,0.8,0,1.2c-0.19,0.25-0.09,0.07-0.24,0.48C65.86,122.05,65.66,122.11,65.04,122.16z"/>
<path style="fill-rule:evenodd;clip-rule:evenodd;fill:#040000;" d="M54.24,120.72c0.4,0,0.8,0,1.2,0c0.85,1.3,1.65,2.1,1.68,4.32
	c-0.36,0.13-0.41,0.16-0.96,0.24c-0.41-0.58-0.95-0.73-1.44-1.2c-0.87,0.29-1.07,0.69-1.44,1.44c-0.08,0-0.16,0-0.24,0
	c0-0.24,0-0.48,0-0.72c0.27-0.33,0.36-0.69,0.48-1.2c-0.61-0.38-0.95-0.63-0.72-1.2C53.11,121.48,53.66,121.32,54.24,120.72z"/>
<path style="fill-rule:evenodd;clip-rule:evenodd;fill:#040000;" d="M107.76,122.16c0.19,0.25,0.08,0.07,0.24,0.48
	c-0.08,0-0.16,0-0.24,0C107.76,122.48,107.76,122.32,107.76,122.16z"/>
<path style="fill-rule:evenodd;clip-rule:evenodd;fill:#040000;" d="M108,122.64c0.16,0,0.32,0,0.48,0
	C108.2,123.03,108.38,122.93,108,122.64z"/>
<path style="fill-rule:evenodd;clip-rule:evenodd;fill:#040000;" d="M96,123.12c0.78,0.31,0.63,0.21,0.72,1.2c-0.16,0-0.32,0-0.48,0
	C95.91,123.63,95.84,123.87,96,123.12z"/>
<path style="fill-rule:evenodd;clip-rule:evenodd;fill:#040000;" d="M133.92,123.36c-0.09,0.5-0.06,0.46-0.24,0.72
	c-0.26,0.18-0.23,0.14-0.72,0.24c-0.27-0.5-0.34-0.44-0.48-1.2C133.07,123.3,132.99,123.27,133.92,123.36z"/>
<path style="fill-rule:evenodd;clip-rule:evenodd;fill:#040000;" d="M108.72,123.36c0.69,0.33,0.92,0.41,1.2,1.2
	c-0.24,0-0.48,0-0.72,0c-0.25-0.19-0.07-0.08-0.48-0.24C108.72,124,108.72,123.68,108.72,123.36z"/>
<path style="fill-rule:evenodd;clip-rule:evenodd;fill:#040000;" d="M127.2,123.84c0.27,0.4,0.42,0.26,0,0.48
	C127.2,124.16,127.2,124,127.2,123.84z"/>
<path style="fill-rule:evenodd;clip-rule:evenodd;fill:#040000;" d="M41.28,125.52c0.61,0.35,0.27-0.05,0.48,0.72
	c-1.03,0.68-1.74,1.87-2.88,2.4c0-0.16,0-0.32,0-0.48C39.68,127.28,40.48,126.4,41.28,125.52z"/>
<path style="fill-rule:evenodd;clip-rule:evenodd;fill:#040000;" d="M107.76,125.52c0.19,0.24,0.35,0.66,0.48,0.96
	c-0.24,0-0.48,0-0.72,0c0-0.16,0-0.32,0-0.48C107.71,125.75,107.61,125.93,107.76,125.52z"/>
<path style="fill-rule:evenodd;clip-rule:evenodd;fill:#040000;" d="M93.84,126.24c0.07,0.09,0.48,0.33,0.24,0.72
	C93.48,126.5,94.06,126.61,93.84,126.24z"/>
<path style="fill-rule:evenodd;clip-rule:evenodd;fill:#040000;" d="M117.6,126.96c0.5,0.09,0.46,0.06,0.72,0.24
	c0.08,0,0.16,0,0.24,0c0,0.24,0,0.48,0,0.72c-0.5-0.09-0.46-0.06-0.72-0.24c-0.08,0-0.16,0-0.24,0
	C117.6,127.44,117.6,127.2,117.6,126.96z"/>
<path style="fill-rule:evenodd;clip-rule:evenodd;fill:#040000;" d="M51.36,127.92c0.24,0,0.48,0,0.72,0
	c-0.07,0.56-0.11,0.59-0.24,0.96c-0.16,0-0.32,0-0.48,0C51.36,128.56,51.36,128.24,51.36,127.92z"/>
</svg>
